<svg version="1.2" xmlns="http://www.w3.org/2000/svg" viewBox="611.0197302449467 -36.21113627674101 787.9451847131613 549.2020431312058" width="788" height="550">
	<title>2000601</title>
	<style>
		.s0 { fill: #ffffff } 
	</style>
	<g id="BACKGROUND 1">
		<g id="&lt;Clip Group&gt;">
			<g id="&lt;Group&gt;">
				<path id="&lt;Compound Path&gt;" class="s0" d="m1034.9 456.6c-3.2-7-17.9 9.2-20.1 11.6-4-6.9-12.8-6.2-17.4-0.6-1.1-1.4-2.6-2.4-4.4-2.5 1.2-6.9-4.5-12.5-11.2-12.6 2.8-2.2 18.4-14.5 19.2-7.3 0.4 2.7 2.8 1.3 2.7-0.9-0.1-2.6-1.9-4.4-4.5-4.5-5.7-0.2-12 5.9-16.3 9.2-1.9 1.4-3.8 3.5-5.9 4.6-2.7 1.4-4.5 1.8-5.6 5.1-1.8 5.2 0.5 12 5.4 14.6 2.2 1.2 5 1.5 7.5 1 1.4-0.4 2.8-1 4-1.9 1.3-0.9 2.1-2.9 3.3-3.7 1.4-0.8 2.8-0.3 3.6 1.7 0.6 1.6 0 3.6 0.3 5.4 1.8 12.4 19.9 13.4 20.9 0.2 0.1-1.6-1.1-4.3-0.6-5.5 0.3-1 2.4-2.5 3.1-3.3 2.6-2.5 5.4-5 8.4-7.1 1.1-0.8 4-3 5.4-2 0.6 0.5 0.2 2.8 1.8 2 1.2-0.6 0.9-2.5 0.4-3.5zm-49.3 12.1c-2.8 2-6.5 2-8.9-0.4-1.7-1.7-2.6-4.2-2.6-6.5 0-2.7 1.3-3.4 3.8-4.6 7.6-3.7 14.4 5.9 7.7 11.5zm22.6 13.1c-8.5 0.8-12.6-11.5-3.5-13.9 3.3-1 7 0.5 7.9 4 0.9 3.1-0.6 9.2-4.4 9.9z"/>
				<path id="&lt;Compound Path&gt;" class="s0" d="m923.4 457.2c-0.3-2.2-1.4-5.2-4.2-4.4 0.2-2.6 0.5-7.4-3.4-6.2-2.6 0.8-4.1 3.7-5.1 6-0.8 2.1-3.7 13.5 0 13.9-0.6 3.2-7.2 27.6-0.8 27.1 3.4-0.2 4.3-11.7 4.7-13.9 0.6-4.3 0.7-9.3 2.1-13.4 0.7-1.7 1.4-3.1 1.7-5.1 0.2-1.6 0-3.5 0.4-5.1 1.2-3.8 2.3-0.1 2.3 2.4 0 2.1-2.8 14.9 0.3 14.3 3.3-0.7 2.4-13.1 2-15.6zm-8.9 12.5c-0.6 3.8-0.9 8.4-1.4 11.8-0.4 3.1-0.8 8.9-3.4 11.1-2.7-2.7-1.6-9.1-1.1-12.4 0.5-2.7 1.1-5.4 1.7-8.1 0.3-1.2 0.3-3 0.9-4.2q-0.4-2 1.4-1.4 1.2 0 2.5-0.1c-0.3 1.1-0.5 2.2-0.6 3.3z"/>
				<g id="&lt;Group&gt;">
					<path id="&lt;Path&gt;" class="s0" d=""/>
					<path id="&lt;Path&gt;" class="s0" d=""/>
					<path id="&lt;Path&gt;" class="s0" d=""/>
					<path id="&lt;Path&gt;" class="s0" d=""/>
					<path id="&lt;Path&gt;" class="s0" d=""/>
				</g>
				<g id="&lt;Group&gt;">
				</g>
				<g id="&lt;Group&gt;">
					<path id="&lt;Path&gt;" class="s0" d="m1258.4 375.9q0 0 0 0 0 0.1 0 0z"/>
					<path id="&lt;Compound Path&gt;" class="s0" d="m1311.8 342.2c-0.7-3.3-2-6.5-3.5-9.5-0.6-1.1-2.2-5.2-3.4-5.8-2.1-0.9-5.8 1.5-7.8 2.4-2.9 1.4-5.8 3-8.5 4.8-5.6 3.6-10.8 7.8-16.2 11.5-2.8 1.9-5.5 3.7-8.4 5.2-1.4 0.8-5.4 3.4-7.1 3.4-0.9 0-2.5-1.4-3.5-1.8-1.6-0.5-3.3-0.9-5-0.9-3.2 0-6.2 1.3-8.6 3.4-5.1 4.6-7.6 12.9-5.2 19.4 1.1 3.2 3.4 5.8 6.5 7.3 0.6 0.3 2.6 0.6 2.9 1 0.7 0.8 0.8 4.2 1.1 5.3 1.4 7.5 2.3 13.3-4 18.6-0.6-0.8-1.4-1.7-2-2.5-0.7-1-1.8-3.8-2.9-4.3-1.6-0.7-4.4 2-5.7 2.9-4.6 3-9.3 5.8-13.9 8.7-2.7 1.7-10 5.2-10.7 8.4-0.5 1.9 2 5.9 2.8 7.5 1.2 2.5 2.7 4.8 4.1 7.1 2.2 3.4 3.6 6.5 7.5 4.2 5-2.9 9.6-6.4 14.3-9.6 3.3-2.4 7.5-4 10.6-6.6 4.1-3.6 1.4-8.3-1.2-12 11.7-4.7 7.5-18.1 5-27.2 7.1-0.5 13.9-5.8 14.6-13.2 0.1-1.1-1.2-4.9-0.9-5.5 0.2-0.7 2.8-1.7 3.4-2 3-2 5.8-4.3 8.9-6.2 2.3-1.4 6.4-4.3 9.2-4 1.7 0.2 2.2 2.3 4.1 2.1 3.9-0.4 2.1-4.4 2.5-6.6 0.3-1.6-0.6-1.4 0.6-1.5 0.9 0 1.8 1.1 1.9 1.2q0.1 0.1 0.2 0.2c1.8 2.3 7 11.3 9.2 4 0.7-2.4-0.3-4-1.1-6.1-0.4-0.8-2.1-4.2-1.3-4.9 1.2-1.2 3.4 6 3.8 6.4 1.1 1.4 3.6 2.8 5.5 2.2 3.2-0.8 2.7-4.6 2.2-7zm-66.5 75.5c0.4 4-7.7 6.5-10.3 8.4-5.6 3.9-11.3 7.7-17 11.5-2-5.5-7.5-9.7-9.4-15.3-1.3-3.2 0.5-3.6 3.1-5.5 2.7-1.8 5.4-3.5 8.2-5.1 5.2-3.1 10.8-5.9 15.5-9.6 2.6 5.5 8.9 9.4 9.9 15.6zm64.3-71.8c-0.2 1.3-1.1 1-2.3 0.5-2.6-1.1-2.2-4.7-3.9-6.6-2-2.5-5.3-1.9-5.5 1.4-0.2 2.3 2.1 6 2.5 7.1 0.6 1.6 0.8 4.5-1.1 3.6-3.2-1.4-3.2-6.7-6.9-7.7-6.1-1.7-2.4 4.6-3.5 7-1.1 2.2-1.1 0.4-2.4-0.2-5.9-2.8-15 5-19.6 8-1.7 1.2-3.5 2.1-5.3 3.2-2.1 1.2-2 1-1.5 3.1 0.7 3.7 0.6 8-1.6 10.5q-0.1 0.1-0.1 0.2c-1.6 2.2-4.8 4-7.7 4.4-2.2 0.3-1.9 0.2-2.6-1.4-0.4-0.9-0.5-4.2 0.3-5 0.5-0.6 3-0.8 3.9-1.4 1.6-1 3.1-2.5 3.9-4.2 1.3-2.7 1.2-6-1.1-8.1-3.9-3.5-11-0.3-13.2 3.8-1.4 2.4-1.3 5.3 0.5 7.5 1.7 2 1.4 0.6 1.6 3 0.1 1.6-0.4 3.3-0.3 4.9-9-3.2-8.7-15.3-3.4-21.7 2.8-3.3 6.8-4.8 11.1-3.8 1.8 0.4 3.9 2.4 5.5 2.5 1.1 0.1 3.3-1.4 4.4-1.9 9.3-4.2 17.1-10.8 25.5-16.5 4.3-3 8.9-5.8 13.8-7.7 2.4-0.9 2.5-1 3.9 0.8 1.2 1.5 2.1 3.8 2.8 5.4q0.1 0.2 0.1 0.3c0.9 2 2.5 6 2.2 9zm-59.8 16c4.4-0.5 5.6 3.6 3 6.8-0.1-2.8-3.1-1.5-4.4-0.7-1.9 1.3-2.6 4.2-4.6 1.8-1.3-1.7-0.7-4 0.5-5.6 1.4-2 3.2-1.9 5.5-2.3z"/>
					<path id="&lt;Path&gt;" class="s0" d=""/>
					<path id="&lt;Path&gt;" class="s0" d=""/>
					<path id="&lt;Path&gt;" class="s0" d="m1223.3 421.4c-1-0.5-2.2-0.2-2.8-0.6-0.7-0.5-0.4-1.9-1.9-2.3-2.1-0.6-3.2 1.6-3.5 3.3-0.3 2.2 1.1 4.3 2.2 1.7 0.5-1.2-0.3-1.9 0.7-2.9 0.6 0.9-0.3 2 0.2 2.9 1.2 2.2 1.7-0.4 3.2 0.2 1 0.4 1.5 1.3 0.4 2.4-0.7 0.7-5.6 0.7-2.1 2.4 3.9 1.9 7.5-5 3.6-7.1z"/>
					<path id="&lt;Path&gt;" class="s0" d="m1227.9 419.5c-0.5-1-1.9-5.3-3.6-4.3-1.6 0.9 1 4.5 1.5 5.5 0.5 1.2 1.6 4.3 3.2 4 2.2-0.5-0.7-4.4-1.1-5.2z"/>
					<path id="&lt;Compound Path&gt;" class="s0" d="m1237.7 415.5c-0.9-1.4-2.2-1.1-3.2-1.9-0.7-0.6-0.6-2.4-2-3-3-1.3-6.4 4.5-3.9 5.4 1.4 0.6 2.6-6 3-2.2 0.1 1-1.6 1.9 0.1 2.7 0.8 0.4 1.9-0.8 2.8-0.5 1.1 0.4 1.8 1.5 1.1 2.6-0.6 0.8-5 1.4-1.6 2.6 3.3 1.1 4.9-3.4 3.7-5.7z"/>
				</g>
				<g id="&lt;Group&gt;">
					<path id="&lt;Path&gt;" class="s0" d=""/>
					<path id="&lt;Path&gt;" class="s0" d=""/>
				</g>
				<path id="&lt;Path&gt;" class="s0" d="m1181.6 475.9c-4-4-7.4-8-12.3-11.3-4.1-2.8-8.2-5.4-12.5-7.8-2.5-1.4-8.1-6.2-10.4-3.4-0.9 1.2-0.2 4.8-0.2 6.3-0.1 3 0 5.9-0.2 8.8-8.2-1.7-17.5-0.5-25.6 0.5q-4.1 0.5-8.1 1.1c-1.4 0.2-4.4 0.1-5.5 1-2.2 1.9-1.7 8.1-1.8 10.7-0.2 3.1-0.7 6.8 0.7 9.5 1.1 2 1.3 1.8 3.8 1.8 2.4 0 4.9-0.3 7.3-0.5 9.7-0.6 19.3-1.3 29-1.4 0 4.1-1.3 16 3.6 17.6 4.8 1.5 11.1-7.6 13.8-10.5q3.6-4 7.2-8c2.1-2.3 13.1-12.5 11.2-14.4z"/>
				<g id="&lt;Group&gt;">
					<path id="&lt;Path&gt;" class="s0" d=""/>
					<path id="&lt;Compound Path&gt;" class="s0" d="m893.6 486.8c-0.1-8.8-0.7-23.3-9.1-28.5-8.7-5.4-19.3 2.6-23.6 10.1-1.5-6.5-3.5-14.7-9-19-6.5-5-13.1 0.3-17.2 5.5-3.5 4.6-6.1 9.6-8.7 15.3-1.8 4-3.5 8.1-5 12.3-0.9 2.4-4.7 9.3-3.9 11.4 2 5 14.8 3.9 18.7 3.7 8.2-0.3 16-0.2 24.1 0.1 7.4 0.3 14.9 1.5 22.4 1.3 2.8-0.1 8 0.2 10-2.2 1.8-2.3 1.3-7.3 1.3-10zm-25.4-23.8c3.9-3 9.8-5.3 14.3-2.2 2.9 1.9 6.5 9.3 4.7 12.2-2.5 4-9.4 3.3-12.9 1.8-2.7-1.1-5.3-3-6.9-5.5-2.1-3-2.1-4 0.8-6.3zm-27.7-10.3c4.4-3.4 8.7-2.4 11.7 2.2 1.4 2 3 5.1 3.3 7.5 0.4 2.3-0.1 2.6-2.6 3.6-4.4 1.9-10.2 0.9-14.1-1.9-1.3-1-3.5-2.8-3.6-4.6-0.1-2.3 3.6-5.4 5.3-6.8zm18.6 41c-6-0.3-12-0.4-18 0.2-5.2 0.5-11.2 1.4-16.2 0.5q-0.1 0-0.3 0c0.3 0-2.3-0.5-2.6-0.6-2.4-0.7-2.2-0.4-1.7-2.8 0.6-3.4 2.5-7 3.7-10.2 2.5-6.3 5.2-12.6 8.7-18.5 3.7 7.5 17.9 12.6 24.5 6.1 2.1 8.4 3.1 17.4 5.9 25.6q-2-0.2-4-0.3zm27.8 1.4c-4.1 0.8-8.3 1.2-12.5 1.2-1.2 0-7.1 0.5-7.8-0.4-0.5-0.5-0.3-2.6-0.4-3.3-0.6-3.6-1.7-7.2-2.5-10.8-1-4.8-3.1-9.6-0.2-13.8 2.9 8.7 17.1 17.4 25.1 9.5 0.3 3.6 0.5 7.3 0.6 10.9 0.1 1.4 0.5 3.4 0.2 4.7-0.4 2 0 1.5-2.5 2z"/>
				</g>
				<g id="&lt;Group&gt;">
					<path id="&lt;Compound Path&gt;" class="s0" d="m830.2 448.4c-0.7-2.5-3.7 0.8-5.3-0.6-1.6-1.4 0.5-2.5 0.9-3.7 0.9-3.9-5.3 1.2-4.7-2.3 0.2-0.9 2.5-2 1.2-3.1-1.1-0.9-2.1 0.8-3.1 1.2-1.1 0.4-2.6 0.3-2.9-1.1-0.4-1.7 2.8-2.9 2-4.3-0.8-1.3-3.5 0.5-4.7-1.3-0.9-1.6 1.6-4.3-0.1-5.4-1.4-0.9-5.7 3.4-6.9 4.2-5.7 4-11.6 7.7-17.2 11.8-2.8 2.1-6 4.3-8.3 7-1.3 1.4-1.8 4.3 1 3.8 0.9-0.2 3.6-3.2 4.9-1.2 0.6 0.9-1.4 2.4-1.3 2.3-0.5 0.4-1.2 1-0.8 1.7 0.7 1.2 1.6 0 2.4-0.1 1.4-0.2 2.9-1 3.8 0.6 1.1 2.2-2 3.3-2.1 4.7-0.2 2.8 1.7 0.5 3.4 0.5 3.6 0.2-0.4 2.5-0.8 3.8-1.1 3.2 3.5-1.1 4.9 0.4 2.6 2.8-5.8 6.5-2.7 7.8 0.9 0.4 4.8-2.4 5.4-2.7 2.4-1.4 4.8-3 7.2-4.7 4.7-3.3 9.3-7 13.9-10.6 1.4-1.1 10.5-6.6 9.9-8.7zm-20.1 14.4c-3.5 3.1-8 5.9-12.1 8.3 0.8-2.3 0.3-5.9-2.9-5.7 1.3-2.2-0.4-4.2-2.8-4 1.6-2.9 0.3-6.6-3.4-6.5 1.2-3-2-4.4-4.5-4.1 8.5-7.1 18.7-11.8 27.1-19.1-0.2 2.2 1.3 4.1 3.5 4.4-1.9 3 0.3 6.6 3.9 6-0.2 2.2 1.9 3.3 3.8 3.1-0.6 2.2 0.7 4.5 2.9 5.1-5.2 4.1-10.3 8.4-15.5 12.5z"/>
					<path id="&lt;Compound Path&gt;" class="s0" d="m819.3 450.6c-0.8 0-3.9-6.8-4.9-7.9-1-1.2-2.2-2.2-3.7-2.9-2-0.8-2.5-0.3-4.3 0.9-3.2 2.3-6.4 4.6-9.7 6.8-2 1.4-6.9 2.8-5.8 5.6 0.4 1.3 2.2 2.8 3 3.9 1 1.4 2 2.9 3 4.4 1.8 2.5 3.3 5.2 6.4 3.4 3.4-2.1 6.5-5.1 9.7-7.4 1.8-1.2 3.6-2.4 5.3-3.7 0.4-0.3 3.9-3.1 1-3.1zm-9.5 6.1q-2.5 1.7-4.9 3.6c-0.7 0.5-1.5 1.4-2.3 1.8-1.6 0.8-1.1 1.1-2.5-0.6-2.5-3-4.7-6.3-7.2-9.2q4.1-2.4 8.1-5c2.3-1.4 4.7-3.7 7.1-4.7 1.7-0.7 1.4-1.5 3.2 0 0.9 0.7 1.4 1.7 2 2.6 1.3 2.2 1.9 4.8 3.5 6.8q-3.6 2.3-7 4.7z"/>
				</g>
				<g id="&lt;Group&gt;">
					<path id="&lt;Compound Path&gt;" class="s0" d="m1250.6 461.3q-0.5-5.9-1-11.7c-0.1-1.4 0.3-4.5-0.8-5.6-0.6-0.8-2.9-0.7-3.7-0.9-6.6-0.8-13.5 1.6-19.8 2.3q-0.2 0.1-0.5 0.1c-6.1 0.9-14.4 1.1-21.3 2.4-3.3 0.6-8.7 1.2-11.5 3.1-2.3 1.6-2.7 4.2-2.8 6.9-0.2 3.5 0 16.6 4 17.8 2.1 0.6 7.2-1.9 9.3-2.3 3.9-0.8 7.8-1.3 11.8-1.8-0.8 3.7 0.1 8.6 0.2 12.4q0.3 6.1 1 12.1c0.5 4.5-0.1 16.5 6.3 16.4 1.8 0 5.6-0.2 6.6-1.2 1.4-1.5 0.7-7 0.6-8.8-0.3-8-2.2-16.3-3.1-23.9-0.3-2.3 0.1-5.8-0.8-7.9 6.2-0.5 12.5-0.7 18.7-1.6 1.1-0.1 2.2-0.5 3.2-0.6-0.1 0 2.5-0.3 2.2-0.2 2.8-1.1 1.6-4.4 1.4-7zm-25 29.7c0.3 3 0.5 6.1 0.6 9.1 0.1 2.3 0.7 6.2-0.2 8.3-0.6 1.7-0.7 1.4-2.9 1.5-0.6 0.1-1.7 0.4-2.2 0.1-0.9-0.5-1-2.4-1.2-3.3-1.3-5.6-1.9-11.5-2.3-17.2q-0.4-4.4-0.6-8.8c-0.1-2.5 0.7-7.1-0.3-9.3q3.4-0.4 6.9-0.6c-0.7 2.6 0.5 6.8 0.8 9.4 0.5 3.6 1 7.2 1.4 10.8zm21-25.6c-8.1-0.9-17.1 1-25.2 2.1-9 1.3-18 3.1-26.8 5.6-0.5-5.6-3.3-11.1-2.5-16.8 0.4-3 1.3-3.3 4.1-4.1 2.6-0.7 5.5-1.4 8-1.6q0.2 0 0.4-0.1c6-0.9 13.3-0.7 19.8-1.2 7.4-0.6 14.8-2.3 22.2-3.1 0.3 6.4-0.3 12.9 0.7 19.3q-0.4-0.1-0.7-0.1z"/>
					<path id="&lt;Path&gt;" class="s0" d=""/>
					<path id="&lt;Path&gt;" class="s0" d=""/>
					<path id="&lt;Path&gt;" class="s0" d="m1201.5 457.8c-0.1-1.9-1.7-0.7-2.2 0-0.4 0.6 0 6.2 0.5 6.7 3.2 3.2 1.7-5.3 1.7-6.7z"/>
					<path id="&lt;Compound Path&gt;" class="s0" d="m1210.1 458.6c-3.1-5.4-7.7 2.6-5.6 5.2 2.9 3.5 7.7-1.5 5.6-5.2zm-1.9 3.3c-0.9 1.6-2.4 1-2.6-0.4-0.8-3.5 3.5-2.4 2.6 0.4z"/>
					<path id="&lt;Compound Path&gt;" class="s0" d="m1219.2 456.2c-3.2-2.6-8.2 3.3-5.2 6.4 3.9 4.2 9.6-2.8 5.2-6.4zm-1.1 3.9c-0.3 1.7-2.6 1.9-3.2 0.3-0.8-2.6 3.4-3.7 3.2-0.3z"/>
					<path id="&lt;Path&gt;" class="s0" d="m1232 459.5c-0.8-0.3-1.5-0.4-2.2-0.3 0.4-0.6 3.2-2.9 2.8-3.9-0.9-1.9-3.7 2.5-4 3-0.1-0.9 0.2-5.8-2.2-3.8-1.1 0.9-0.5 4.8-0.4 6 0.2 1.1 0.2 3.6 1.8 3.6 1.6 0.1 1.2-1.8 1.1-2.9 0.7 0.3 1.4-0.2 2.2 0.1 0.5 0.3 0.9 1.2 1.3 1.4 2.9 0.8 1.6-2.3-0.4-3.2z"/>
					<path id="&lt;Path&gt;" class="s0" d="m1242.1 455.8c-0.2-2.9-3.6 2.4-3.7 2.6-2.1-2-5.3-4.9-4.3 0.8 0.2 0.8 0.7 3.9 2.1 3.5 1.4-0.4 0.4-2.5 0.2-3.4 2.3 1.9 2.8 1.4 4-1.1 0.1 0.8 0 7.1 2 5.7 1.1-0.7-0.3-6.9-0.3-8.1z"/>
				</g>
				<g id="&lt;Group&gt;">
					<path id="&lt;Path&gt;" class="s0" d=""/>
					<path id="&lt;Path&gt;" class="s0" d=""/>
				</g>
				<path id="&lt;Compound Path&gt;" class="s0" d="m648.2 481c2.6 0.5 3.8 0.5 2.8 3.7-1 3.2-2.7 2.6-5.5 2.4-3.8-0.2-8.3-1-11.9 0.5-4.4 1.7-4.9 6.1-4.6 10.2 0.3 4.3 1.4 6.8 5.6 7.7 9.6 2 20.6 1.1 30.4 1.7q8.4 0.6 16.8 1.1c3.2 0.2 6.9 0.8 10-0.1 4.4-1.3 5.6-5.3 6.6-9.3 0.6-2.3 2.3-6 1.2-8-1.7-3-9.5-2.1-12.2-2.2-3.5-0.1-8.8 0.6-11.8-1-1.8-1-4.5-3.7-5.1-5.7-1.1-3.3 2.5-3 5-4.6 2.3-1.5 3.6-2.8 3.1-5.4-0.2-0.8-2.3-4.7-2.3-4.7 19.4-9.6 23.3-32.6 11.5-49.7-5.5-8.1-12.9-14.3-22.2-17.7-4.1-1.5-8.5-2.3-12.9-2-2.6 0.3-10 1-11.5 3.3 0-1.6-2.4-5.3-3.9-5.8-0.9-0.3-1.3 0.4-2 0.4-4.4 0.4-8.5 2.3-11.9 5.2-7.9 7-11.6 18.4-12.2 28.7-1.7 24.8 11.8 46.3 37 51.3zm-32.6-56.2q0 0.2 0 0.4c1-7.8 3.9-16.6 9.9-22.1 2.3-2.1 6.2-4.6 9.5-4.5 1.8 0.1 0.7-0.6 2.2 0.8 0.5 0.5 1 3 1.8 3-17.8 10.9-19.8 37.4-9 53.7 5.4 8.1 13.8 13.3 23.4 14.7 4.9 0.7 9.8 0.5 14.6-0.5 2-0.5 5.2-2.2 6.5-1.5 1 0.6 1.8 3.2 2.4 4.3-6 1.9-10.9 4.5-17.4 4.8-7 0.3-14.1-1.3-20.4-4.3-13.4-6.4-21.4-18.7-23.4-33.2-0.7-5.2-0.6-10.4-0.1-15.6zm58.3 38.9c-1.2 0.6-3.8 2-5 1.7-1.1-0.3-2.2-2.6-3-3.5-4.1-4.7-7.8-9.7-10.9-15 4.5-1.9 9.4-4.4 13-7.7 2.9 7.2 4.3 14.4 5.4 22.1 0.1 0.8-0.2 1.8 0.5 2.4zm-16.8-43.5c1.7 2.2 11.2 14.9 9.5 17.2-2.8 1.8-6.6 4.4-10.2 6-3 1.4-2.7 1-4.1-1.8q-1.6-3.3-3-6.7c-3.7-9.3-5.7-19-6.6-28.9q1 0.7 2 1.4c4.7 3.7 8.8 8.1 12.4 12.8zm7.7 46.2c-2.7 0.5-6.2 1.1-8.3-0.4-0.7-0.4-1.2-1.2-1.8-1.8-4-4.4-7.6-9-10.5-14.2 1.1-0.2 6.5-2.3 7.3-1.8 0.6 0.3 2.2 4 2.5 4.6 2.2 3.6 4.6 7.1 7.4 10.3 1 1.2 2.2 2.3 3.4 3.3zm-14.7-0.7c-8.9-2.2-15.4-8.4-19.6-16.4 2.3 0.8 7.2 0.1 9 1.1 0.6 0.4 2.1 4.2 2.5 4.9q1.4 2.3 2.9 4.5c1.6 2.1 3.2 4.2 5.2 5.9zm-22.9-39.8c1.2-7.1 4.3-13.4 9.4-18.4-5.2 12.7-3.5 27.6 1.6 40-2.5 0-5.1-0.3-7.5-1-5.2-1.3-4.2-16.4-3.5-20.6zm39.5-14c3.5 2.9 7.5 6.6 9.6 10.7 1.3 2.4 0.9 2.8-0.6 5.2-1.5 2.2-3.3 4.2-5.1 6.1-3.9-6.7-8.7-13-14-18.7-1.5-1.6-13.4-12.3-13.6-12 8.6 0 17 3.4 23.7 8.7zm12.8 7.6c-7.2-9.7-18.7-17.2-31-18.3 11.8-2.7 23.4 3.2 31.6 11.4 0.2 2.3-0.1 4.6-0.6 6.9zm2.8 4c-0.9-1.8-0.9-1.7-0.8-3.6 0.1-1.8 0.6-3.4 0.6-5.2 3.9 4.4 6.9 9.6 8.4 15.3 0.8 3.4 1.1 6.9 0.8 10.3-0.3 3.1-1.7 5.6-2.2 8.6 0.8-5.8-0.6-11.9-2.8-17.2-1.2-2.8-2.8-5.4-4-8.2zm-9 15.6c-1.7-3.5-1.4-3.1 1.1-6 1.7-2 3.2-4.1 4.4-6.4 3.3 6.2 5.7 13.3 5.6 20.4-0.1 3.2-1 5.8-2 8.9-0.6 1.8 0.5 1-1 2.9-0.8 1.1-2.5 2-3.6 2.7 0.9-3.3 0.6-6.7-0.1-9.9-0.9-4.4-2.5-8.6-4.4-12.6zm-5.6 48.9c0.6 0 1.3 0 1.9 0q-1 0-1.9 0zm-17.4-42.3c-1.5 0.5-5.3 2-6.9 1.5-1.5-0.4-2.3-3.6-2.9-5.2-1.8-4.6-3.3-9.5-3.9-14.4-0.8-6-1.3-17.8 3.7-23q0.3 5.5 1.1 11c1.4 9.9 3.8 21.4 8.9 30.1z"/>
				<g id="&lt;Group&gt;">
					<path id="&lt;Compound Path&gt;" class="s0" d="m815.9 377.1c-0.4-2.6-3.3-5.1-5-6.8-2.5-2.4-5.2-5.4-8.2-7.1-2-1.2-3-0.6-5.3-0.5-3.7 0.1-7.5 0.1-11.3 0.2 2.1-2 4.3-3.9 6.4-5.8 0.9-0.9 3.3-2.3 3.6-3.5 0.8-2.7-8-9.3-9.7-11.2-3.8-4.2-5.7-4.9-11.4-5.3-6-0.4-12-0.3-18-0.1 0-2.3 0.7-6.5-1.1-8.4-1.9-2-6.3-0.6-8.8-0.1-1.9 0.4-5.9 1-7.3 2.2-2 1.8-1.3 4.9-1.1 7.6q-7.7 0.8-15.3 1.7c-4.8 0.6-11.2 0.4-15.7 2.2-3.3 1.3-2.7 5.3-3 8.7-0.5 4.6-1.3 9.8-0.6 14.4-4.9-0.3-9.8-0.4-14.7-0.4-2.4 0-8-0.5-9.3 1-3.7 4.6-9.1 8.8-11.3 14.5-2.3 6.1 3.4 8.9 8.1 11.2 2.6 1.3 5.4 2.7 8.2 3.4 2.8 0.8 5.7 0.5 8.7 0.4 7.2-0.2 14.3-0.6 21.5-1q-0.1 0.5 0 0.2c-0.9 5-5.9 16.4-0.8 20.3 2.2 1.7 7.4 0.9 10.3 0.9 4.3-0.1 8.6-0.2 13-0.4-0.8 23.2-2.1 46.3-3.3 69.5-0.7-1.1-2.7-4.2-4.1-4.2-2.6 0.1-1 1.7-0.2 2.8 2.2 3 3.9 6 3.9 9.9-1.8-2.8-4.2-5.4-7.2-6.8-1.3-0.5-4.6-1.6-5.9-0.8-1.8 1.1-0.5 1.8 0.7 2.3 1.8 0.7 3.3 0.2 5.1 1.4 1.4 1 2.6 2.5 3.6 4 1 1.5 1.6 4.8 3.3 5.7 0.9 0.5 2.6 0.2 3.6 0.1 3-0.1 9.1 1 11-1.2 1.6-1.9 1.2-5.1 3.1-7.2 1.5-1.7 3.4-2.7 5.5-3.4 1.1-0.4 4-0.4 2.7-2.4-1.9-3.1-9 3-10.1 4.5 0.1-1.9 0-3.5 1.4-5 1-1 3.9-1.1 4.3-2.3 1.3-3.5-4.7-0.2-5.5 1.1 0.2-11.5 0.8-22.9 1.1-34.3 0.1-6.2 0.3-12.3 0.6-18.5q0.2-4.4 0.5-8.9c0.1-1.4-0.1-3.8 0.3-5.2 0.7-2.1 0.3-1.8 2.9-1.9 6.3-0.2 12.5-0.2 18.7-0.1 4.6 0 11.8 1 16-1.2 3-1.4 7.4-5.8 7.1-9.4-0.3-4.8-7.2-8.5-10.7-11.1 3 0.2 8.4 1.5 11.2 0.2-0.6 0.2 2.2-2.2 1.7-1.7 1.1-0.9 2.7-1.5 3.9-2.2 3.9-2.1 13.6-6.5 12.9-12zm-74.7-43.3c3.6-1.5 7.4-2.1 11.2-2.4-0.1 2-0.1 4 0.2 5.9q-5.5 0.3-11 0.8-0.2-2.2-0.4-4.3zm-17.7 8.9c12.9-1.2 25.9-2 38.9-1.9q4.4 0 8.7 0.1c1.8 0.1 3.5 0.1 5.3 0.2 2.1 0 2.8-0.1 4.4 1.2 4 3.1 6.8 7.8 10.9 11-1.9 2.2-4 4.1-6 6.1-1.2 1.2-1.9 2.1-3.3 2.4-1.4 0.3-3.5-0.2-4.9-0.1-7.5 0.2-14.9 0.9-22.3 1.3-15.8 1-31.5 1.7-47.3 2 0.7-5.7-0.1-11.5 0.4-17.3 0-0.6-0.1-3 0.3-3.5 0.4-0.4 3.8-0.4 4.7-0.5q5.1-0.6 10.2-1zm-29.3 49.7q-1.8 0-3.6 0.1-1.8 0.8-2.6-0.7c-1.5-0.7-3-1.7-4.6-2.4-3.1-1.3-6.3-2.4-9.3-4.2-5-3.1-0.7-8 2-11.3q0.1-0.1 0.2-0.2c0.7-0.9 3-4.3 4.4-5.1 1.8-1 4.9-0.4 7.1-0.4 5.8-0.2 11.6-0.6 17.3-0.4 12.6 0.3 25.3 0.1 37.9-0.2-0.5 4-0.7 7.9-0.8 11.9-0.1 3.4-1 7.8 0.5 11-16.2 0.2-32.3 1.3-48.5 1.9zm53.3 55.7c-0.8 8.4-1.2 16.9-1.5 25.3-0.3 7.4-2.2 15-1.3 22.4-2.7 0.1-5.4 0.4-8 0.8-0.7-27.1 2.7-54.2 2.7-81.3q5.5-0.2 11-0.5c-0.8 11.1-1.8 22.2-2.9 33.3zm39.4-51.8c1.7 1.4 4.7 3.5 5.9 5.7 1.4 2.7-0.6 4.1-2.7 6.2-2.6 2.5-4.1 2.1-7.6 2.2-4.1 0.1-8.3 0-12.4 0-17.7 0-35.3 2.9-53.1 2.7 1.2-3.5 0.5-7.8 0.7-11.5 0.1-1.6-0.2-5.1 0.6-6.5 1-1.6 3.7-1.1 5.9-1.2 7.6-0.4 16 0 23-1.6 3-0.6 6.9 0.2 9.9 0.2 3.9 0.1 7.8 0 11.7 0 3.8 0.1 8-0.3 11.9 0.2 2.6 0.3 4.2 2 6.2 3.6zm24.4-18.2c-3.7 4.2-9.2 6.8-13.5 10.2-1 0.8-1 1.3-2.1 1.6-0.9 0.3-2.7-0.3-3.7-0.4-3-0.3-5.9-0.3-8.8-0.3-12.4 0-24.9 1.1-37.3 0.8 1.1-2.9 0.2-6.6-0.1-9.5-0.2-2.3-1.8-11.5-0.2-13 0.8-0.7 5.6-0.1 6.7-0.1q3.5-0.1 6.9-0.2c4.7-0.2 9.4-0.4 14.1-0.8 7.4-0.6 13-1.1 20.6-0.8 1.7 0.1 4.9-0.5 6.5 0.1 1.5 0.6 3.3 2.9 4.5 4 1.3 1.2 7.8 6.5 6.4 8.4z"/>
					<path id="&lt;Path&gt;" class="s0" d=""/>
					<path id="&lt;Path&gt;" class="s0" d=""/>
					<path id="&lt;Path&gt;" class="s0" d="m737.1 398.4c-0.4-2.8-4.4 3.6-4.6 4.2-0.8-0.7-4.3-4.2-5.2-3.8-1.6 0.7-0.4 4.5-0.3 5.9 0.1 1-0.3 4.4 1.2 4.2 1.2-0.2 0.1-5.9 0-6.4q0.1 0.9-0.1-1.2c4.2 3.8 4.4 4.4 7.4-0.5 0.1 1.2 0 9.1 2.2 7.9 1.9-1-0.3-8.4-0.6-10.3z"/>
					<path id="&lt;Compound Path&gt;" class="s0" d="m745.2 400.4c-0.6-1.7-1.8-2.5-3.6-2.4-2.2 0.2-2.4 1.4-2.5 3.2-0.1 1.4-0.5 5 0.8 5.7 0.2 0.2 3.2-0.7 3.6-0.8 0.2 1.8 1.2 2.4 2.3 1.1 1-1.1-0.1-5.6-0.6-6.8zm-3.7-0.6c0.7-0.2 0.6 0 1.1 0.4 0.3 0.3 0.6 1.9 0.6 2.2-0.1 2-0.1 1.6-2.3 1.9-0.1-1.5-0.9-3.7 0.6-4.5z"/>
					<path id="&lt;Path&gt;" class="s0" d=""/>
					<path id="&lt;Compound Path&gt;" class="s0" d="m751.8 399.6c-2-1-5.1-0.2-4.8 2 0.4 2.6-0.7 7.6 3.8 7.1 4.5-0.6 4.8-7.3 1-9.1zm0.3 5.6c-0.5 1.1-1.5 1.4-2.6 1.5 0-1.6-1.8-6 0.7-5.8 1.9 0.2 2.4 3 1.9 4.3z"/>
					<path id="&lt;Compound Path&gt;" class="s0" d="m760.8 403.8c-0.6-0.3 1.4-4-1.2-5.2-1.9-0.9-3.8 0.8-4.3 2.7-0.2 0.8 0.3 6.4 1.2 6.8 2 1.1 1.5-2 1.3-2.9 1.7 0 2.8 2.2 3.9 2.2 2.9 0 0.6-2.7-0.9-3.6zm-1.1-2.4c-0.3 1.2-1.4 1.5-2.3 2-1.2-3.9 2.4-4.6 2.3-2z"/>
					<path id="&lt;Path&gt;" class="s0" d="m766.2 402.9c-0.2-1.1 0.4-3.6-1.3-3.7-1.9-0.1-1.3 3.5-1.2 4.5 0.2 1 0.4 4.1 2.2 3.7 1.8-0.5 0.4-3.5 0.3-4.5z"/>
					<path id="&lt;Compound Path&gt;" class="s0" d="m775.4 401.3c-0.5-0.8-1.4-1.4-2.3-1.6-0.5-0.1-3.1-0.4-3.3-0.3-1.6 0.8-1.7 6.4-0.6 7.7 3.2 4 9.2-1.6 6.2-5.8zm-1.3 2.7c-0.1 0.8-0.7 1.6-1.6 1.7-1.6 0.4-1.9-1.9-1.6-3.4 0.3-1.1 0.2-1.9 1.8-1.2 1.1 0.4 1.5 1.7 1.4 2.9z"/>
					<path id="&lt;Compound Path&gt;" class="s0" d="m763.5 379.7c-0.4-0.8-1.4-1.3-2.2-1.4 2-2.7-1.3-5.2-3.8-4.6-3 0.7-3.1 2.7-2.9 5.5 0.2 3.3 0.5 5.3 4.3 5.6 2.5 0.1 6.4-2.1 4.6-5.1zm-6.5-4.7c1.5-1 4-0.1 3.6 1.9-0.3 1.6-3.1 1.7-3.8 2.1-0.1-1.2-0.8-3.2 0.2-4zm4.9 6.5c-0.5 1-1.6 1.4-2.7 1.4-2.3 0-2-0.6-2.3-2.6 0.4 0.1 2.5-0.3 2.1-0.3q0.1 0 0.2 0c1-0.2 3.3-0.1 2.7 1.5z"/>
					<path id="&lt;Path&gt;" class="s0" d=""/>
					<path id="&lt;Compound Path&gt;" class="s0" d="m769.3 374.7c-3.1 0-4.3 3.2-4.3 5.8 0 2 2.2 5.1 1.6 2 0.6 0.2 4.7-0.2 5.3-0.7 0.3 3.9 2.9 2.5 2.6-0.8-0.2-2.7-2-6.3-5.2-6.3zm2.1 5.4c-1.3-0.1-3.9 0-5 0.8-0.1-1.6 0.4-4.1 2.5-4.2 1.6 0 3.3 3.4 2.5 3.4z"/>
					<path id="&lt;Path&gt;" class="s0" d="m780.9 382.8c-2.3-1.4-2.7 1.2-3.7-2.2-0.2-0.9 0-7.3-2.3-4.6-1 1.1 0 6.5 0.7 7.6 2 2.9 7.2 0.4 5.3-0.8z"/>
					<path id="&lt;Path&gt;" class="s0" d="m783.9 376.8c0.3-2-1.7-0.4-2.1 0-0.5 0.7-0.8 5.9-0.2 6.6 3.1 3.5 2.2-5.2 2.3-6.6z"/>
					<path id="&lt;Path&gt;" class="s0" d="m783.2 371.2c-1.6 0-1.6 2.4 0 2.4 1.5 0 1.5-2.4 0-2.4z"/>
					<path id="&lt;Path&gt;" class="s0" d="m693.1 383.3q-2.1 1-1.2 0.6-0.1 0.1-0.3 0.1c-3.2 1.5-6.4-3.3-3.1-5.5 1.3-0.9 2.4 0.8 3.4 0.4 2.7-1-1.2-2.8-2.6-2.7-5.1 0.2-6.3 8.5-2.3 10.9 2 1.2 4.4 0.7 6.1-0.6 1.1-0.8 2.7-4.6 0-3.2z"/>
					<path id="&lt;Path&gt;" class="s0" d=""/>
					<path id="&lt;Path&gt;" class="s0" d=""/>
					<path id="&lt;Compound Path&gt;" class="s0" d="m702.2 377.5c-0.8-1.4-2.4-1.9-3.9-1.2-2 1.1-2 4.4-2.1 6.4-0.1 1.2-0.5 4.4 0.5 5.1 0.7 0.4 0.7-0.6 0.9-0.6-0.7 0 2.6-1 2.7-1 0.4 3.1 2.5 1.4 2.9-0.7 0.5-2.4 0.3-5.9-1-8zm-2.4 6.4q-1.1 0.3-2.2 0.3 0.3-2.4 0.1-1.6 0.1-0.1 0.1-0.2c0.8-8.9 3.4 1.1 2 1.5z"/>
					<path id="&lt;Path&gt;" class="s0" d="m711.8 376.7c-1.9-0.5-2 5.2-2 6-0.6-1.2-2.6-6.2-4.3-5.6-1.3 0.4-0.9 3.9-0.9 4.8-0.1 1-0.7 6 0.7 6.1 1.3 0.1 0.8-6.8 0.9-7.6 1.1 1.9 3.5 10.1 5.6 5.5 0.5-1 1.3-8.9 0-9.2z"/>
					<path id="&lt;Compound Path&gt;" class="s0" d="m718.5 385.6c0.7 0 0.2 2.2 1.6 1.7 1-0.2 1-2.6 1.1-3.3 0.2-2.6 0.1-7.8-3.6-7.7-3.8 0-4.3 6.1-4.2 9 0.1 1.7-0.4 2.2 1.3 2.1 0.3 0 0.2-1.5 0.5-1.7 0.6-0.4 2.8-0.2 3.3-0.1zm-2.6-5.4c1.9-4.1 2.7 1.4 2.7 3-1.2-0.1-2.3-0.1-3.4 0.1q0.2-1.6 0.7-3.1z"/>
					<path id="&lt;Compound Path&gt;" class="s0" d="m722.3 386.4c0.8 3.3 11.6-2.1 5.8-7.9-1.2-1.1-3.8-1.8-5.2-0.8-1.9 1.3-1.2 6.4-0.6 8.7zm2.7-7.1c3.9-0.3 2.4 5.7-0.9 6.4 0.1-1.6-1-6 0.9-6.4z"/>
					<path id="&lt;Compound Path&gt;" class="s0" d="m730.8 387.8c0.9 0 0.5-0.8 0.9-1.1 0.9-0.6 2.7-0.8 3.7-1-0.2 3.2 2.4 2.5 2.7-0.4 0.3-2.4-0.3-6.4-3.2-7-4.9-1.1-5.9 9.5-4.1 9.5zm1.6-5.5c1.4-3.3 2.8-1.3 3 1.4-1.1-0.2-2.6 0.4-3.6 0.8q0.2-1.1 0.6-2.2z"/>
					<path id="&lt;Path&gt;" class="s0" d="m716.1 358.7c0.3 8.2 1.4-4.8 1.2-5.1 1.2 1.4 4.2 9.9 6.3 5.4 0.8-1.6 0.9-7.5-0.1-8.7-2.1-2.3-1.7 6.4-1.8 7.1-0.5-0.8-3.9-6.8-5.3-5.8-1.2 0.8-0.4 6-0.3 7.1z"/>
					<path id="&lt;Path&gt;" class="s0" d="m726.5 359.8c0.9 0.6 4.1 1.3 4.1-0.5 0.1-1.4-1.8-0.9-2.6-1.3 3.2-1.3 2.5-3.9-0.9-2.7q0-1.1 0.1-2.1-0.3-1.5 1.6-0.8c0.4-0.2 2 0.4 2.2-0.2 0.9-2.1-2.1-1.6-3.3-1.5-2.4 0.1-2.3-0.4-2.5 2.7-0.2 2.1-0.6 4.9 1.3 6.4z"/>
					<path id="&lt;Compound Path&gt;" class="s0" d="m734.3 358.9c1 1.2 3.8 0.3 4.8-0.4 1.5-1 2.5-4.4 2.1-6.2-1.4-5.5-2.5 3.7-3.6 4.7-0.9-3.6-1.4-1.7-2.1 0.7-0.8-0.8-1.8-7.1-2.5-7-2.5 0.4 0.4 7.1 1.3 8.2z"/>
					<path id="&lt;Path&gt;" class="s0" d="m750.1 355.3c0.7 0.4-1.3 2.4-0.2 3.4 1.1 1 3.1-4.5 3.4-5.1 0.5-1 2.7-4.1 0.9-4.6-1.5-0.5-2.6 3.7-3 4.5-0.6-0.6-2.3-4.4-3.3-4.2-2.8 0.4 1.4 5.5 2.2 6z"/>
					<path id="&lt;Compound Path&gt;" class="s0" d="m754.5 355.3c0 5.5 8.6 4.5 8.3-0.6-0.4-4.9-8.3-4.5-8.3 0.6zm2-0.6c0.4-2.2 3.5-2.4 3.8-0.1 0.4 2.6-4.1 3.1-3.8 0.1z"/>
					<path id="&lt;Compound Path&gt;" class="s0" d="m763.4 353.8c0.1 0.6 0.1 2.8 0.5 3.5 1 1.5 1.7 0.9 1.5-1.1 1.2 0.2 4 2.2 4.8 2 2.6-0.4-0.3-3-1.3-3.5 3.5-4.3-6.6-8.5-5.5-0.9zm2.4-2.8c1.1-0.4 1.9 0.2 2 1.3 0.1 1.5-1.7 1.4-2.7 1.8-0.3-1.5-1-2.4 0.7-3.1z"/>
					<path id="&lt;Path&gt;" class="s0" d="m771.8 355.4c0.5 2.7 1 1.9 2.3 1.3 1.3-0.6-1-1 0.8-1.1 1.2-0.1 1.2 1.3 1.9 1.7 1.3 0.8 2.7 1.6 1.4-1.2-0.2-0.5-2.8-2.9-3.3-2.2 0.3-0.6 3.8-3.3 2.5-3.9-1.1-0.6-3.3 3.1-3.8 3.8-0.3-1 0.2-4.3-1.2-4.6-1.8-0.2-0.7 5.5-0.6 6.2z"/>
				</g>
				<g id="&lt;Group&gt;">
				</g>
				<g id="&lt;Group&gt;">
					<path id="&lt;Path&gt;" class="s0" d=""/>
					<path id="&lt;Path&gt;" class="s0" d=""/>
					<path id="&lt;Path&gt;" class="s0" d=""/>
					<path id="&lt;Path&gt;" class="s0" d=""/>
					<path id="&lt;Path&gt;" class="s0" d=""/>
					<path id="&lt;Path&gt;" class="s0" d=""/>
				</g>
				<g id="&lt;Group&gt;">
					<path id="&lt;Compound Path&gt;" class="s0" d="m1070.2 396.8c2.3-5.3-22-7.3-24.3-7.7-10.4-2-20-7.1-30.5-9-3.2-0.6-9.6-1.8-12.5 0.1-3.6 2.4-5.1 9.1-6.2 13-0.9 3.4-3.8 11.3-2.6 15 0.9 2.4 6.5 3.1 9.3 3.5-1.8 6.4 3.9 12.2 10.1 12.8 2.9 0.2 5.9-0.6 8.1-2.6 1-0.9 1.4-2.3 2.3-3.1 1.7-1.6 0.6 0 2.8-0.9-0.1 5.9 7.7 8.3 12.2 5.6 0.3-0.2 1.8-1.5 2-1.5 1-0.3 3.5 1.2 4.7 1.6 3.7 1.2 7.7 2.5 11.6 2.8 6.3 0.5 7.5-3 9.6-8.6 1.9-5.2 6.5-15.5 3.4-21zm-2.4 9.7c-1.1 3.9-2.7 7.7-4.3 11.4-0.5 1.2-1.2 4.5-2.2 5.3-1.4 1.3 0.6 0.2-1.8 0.8-5.4 1.2-12.8-1.5-17.8-3.3 1.6-2.9 0.9-7.3-1.7-9.3 2.9-2 5.7-6.6 4-10.2-1.2-2.5-4.9-4.2-7.3-5.1-7-2.6-18.5 0.4-14.9 10.2-3.8-4.3-9.5-5.9-14.1-1.6-0.8 0.7-2.3 3.8-3.2 4.4-1.1 0.8-1.3 0.7-2.9 0.4-1.8-0.4-3.5-0.5-5.2-1 2.8-7.7 1.4-16.5 5.2-24 1.9-3.8 3.4-4 7.5-3.7 5.5 0.2 11 2.1 16.1 3.9 10.1 3.7 19.2 7.1 29.8 8.7 3.4 0.6 10.5 1 13 3.5 2.3 2.2 0.6 7-0.2 9.6zm-50-1.7c1.6 1 3.3 2.8 3.9 4.2q0.1 0.1 0.1 0.2c0.7 1.3 1.4 3.6 1.3 5q0 0.2 0 0.3c0 1.2-0.2 2.2-2.2 1.6-1.5-0.4-0.8-1.2-1.4-3.1 0.7-0.2 4.5-0.8 2.6-2.1-2.2-1.6-2.4 1.6-4.4-1.4 0.6-0.3 3.8-1.7 1.7-2.3-0.5-0.2-1.4 1-2 0.9-1.2-0.2-1.2-0.6-2.6-1.6 0.6-0.7 2.1-2.2 3-1.7zm6.5-5.3c1.5-2.2 4.6-3.4 7-3.1q0.1 0 0.2 0c2.6 0 6 1.1 8.2 2.5q0.1 0.1 0.1 0.1c2.4 1.3 3.5 3.2 2.7 6.2-0.3 1.4-1.5 3.7-2.8 4.5-1.7 1-1.5 0.2-3.8-0.1-3.2-0.4-4.9 2.2-7.9 0.6-3.8-2.1-6.1-6.6-3.7-10.7zm12.7 14.8q-0.4-0.4-0.8-0.7c1.8-1.1 1.3-1.6 3-0.1q-1.2 0.3-2.2 0.8zm-2.5 8.8c-9.7-0.5-5.8-13.5 0.4-8.8 0.9 0.7 2.1 1.1 2.7 2.5 1.2 2.4 0.5 6.3-3.1 6.3zm-25.7-1.9c-3.3-2.1-5.1-5.6-4.1-9.5 0.9-3.3 3.8-6.7 7.4-5.5q0 0 0.1 0c0.3 0.1 1.6 0.8 1.9 1 1.2 0.8 1.2 1.8 1.6 2.4 1.1 1.3 2.4 2.2 3 4.3 0.6 1.9 0.9 4.2 0 6.1-1.9 4-6.7 3.1-9.9 1.2zm11.5-0.7q-0.8 0.6-1.5 1.1c1.6-2.1 0.2-3.8 3.3-3.5q-0.7 1.4-1.8 2.4zm6.5-4c-1.4-1.1-1.1-0.2-1.8-1.6-0.7-1.3-0.4-3.8-1.1-5.4 1.5 1.5 3.2 2.5 5.4 2.6-1.2 1.2-2.1 2.8-2.5 4.4zm6.5-4.3q-0.8-0.2-1.6-0.1c1.6-1 2.7-1 4.5-0.4q-1.4 1.4-2.9 0.5zm5.8 9.2q-0.3 0.2-0.7 0.5c0.8-1.3 0.9-2.6 0.6-4 1.5-0.2 1.6-0.1 1.5-1.3q-0.2-0.1-0.5-0.1-1.8 0.8-2.1-1.1c1.6-0.8 1.7-1.3 2.7 0.1 1.2 1.9-0.2 4.6-1.5 5.9zm-28-17.3c1.4-0.8 3-0.8 4.6-0.3-1.1 0.6-1.9 1.5-2.8 1.7-0.9 0.2-2.4-0.5-3.5-0.3q0.8-0.6 1.7-1.1z"/>
					<path id="&lt;Path&gt;" class="s0" d=""/>
					<path id="&lt;Path&gt;" class="s0" d=""/>
					<path id="&lt;Path&gt;" class="s0" d=""/>
					<path id="&lt;Path&gt;" class="s0" d="m1057.6 397.1c-1.9-0.2-2.2 6.9-0.6 7 1.9 0.1 2.2-6.7 0.6-7z"/>
					<path id="&lt;Compound Path&gt;" class="s0" d="m1065.6 400.2c-1.7-3.1-7.1 0.6-6 3.8 1.4 4.5 8.6 1 6-3.8zm-1.6 2.8c-0.7 1.9-3.2 1.5-3.1-0.5 0.1-2.7 3.9-3 3.1 0.5z"/>
					<path id="&lt;Path&gt;" class="s0" d="m1005 384.6c-2.1-0.3-2.6 7.1-0.8 7.2 1.7 0.1 2.5-6.9 0.8-7.2z"/>
					<path id="&lt;Compound Path&gt;" class="s0" d="m1012.8 387c-2.9-0.4-8.4 2.4-5.5 5.7 4.6 5.2 9.7-5 5.5-5.7zm-0.5 3.3c-0.6 1.6-3.8 2.4-4 0.4-0.2-1.8 4.8-3.9 4-0.4z"/>
					<path id="&lt;Path&gt;" class="s0" d=""/>
					<path id="&lt;Path&gt;" class="s0" d="m1031.4 396.4q-0.1 0 0 0 0 0 0 0z"/>
					<path id="&lt;Compound Path&gt;" class="s0" d="m1029.7 407.4c-1.3 2.6 3.5 1.4 4.6 0.6 1.5-0.9 1.7-2.4 1.8-4 0.1-2.6-2.2-0.4-0.1-3.5 1.1 1.7 0.7 2.2 1.1 0.1 0 0.4-0.2-2.9 0-2.8-0.8-0.7-1.2 1-1.5 0.9-1.9-0.3-3-1.5-4.3 1-0.6 1.4-0.5 2.9 1.1 3.4q-0.9 1.3-1.8 2.6c-1.1-3.4-2.3 0-0.9 1.7zm2.6-6c-1-1.4 1.5-2.7 2.7-1.9-0.6 0.8-1.5 3-2.7 1.9zm1.2 2.9c0.3-0.4-0.4 0.6 0.5-0.7 1.4 0.6-0.6 3.4-2 3.3 0.5-0.9 1.1-1.9 1.5-2.6z"/>
					<path id="&lt;Path&gt;" class="s0" d=""/>
					<path id="&lt;Path&gt;" class="s0" d=""/>
				</g>
				<g id="&lt;Group&gt;">
					<path id="&lt;Path&gt;" class="s0" d=""/>
				</g>
				<g id="&lt;Group&gt;">
					<path id="&lt;Path&gt;" class="s0" d=""/>
					<path id="&lt;Path&gt;" class="s0" d=""/>
					<path id="&lt;Path&gt;" class="s0" d=""/>
					<path id="&lt;Path&gt;" class="s0" d=""/>
					<path id="&lt;Path&gt;" class="s0" d=""/>
				</g>
				<g id="&lt;Group&gt;">
					<path id="&lt;Path&gt;" class="s0" d=""/>
					<path id="&lt;Path&gt;" class="s0" d=""/>
				</g>
				<g id="&lt;Group&gt;">
					<path id="&lt;Path&gt;" class="s0" d=""/>
				</g>
				<g id="&lt;Group&gt;">
					<path id="&lt;Path&gt;" class="s0" d=""/>
					<path id="&lt;Path&gt;" class="s0" d=""/>
				</g>
				<g id="&lt;Group&gt;">
					<path id="&lt;Path&gt;" class="s0" d=""/>
					<path id="&lt;Path&gt;" class="s0" d=""/>
					<path id="&lt;Path&gt;" class="s0" d="m684.5 325.2c-1.2-3-3.1-7.4-6.1-8.1-3-0.7-8.1 1-11 1.8-9.7 2.5-19 6.5-28.2 10.4-4.9 2.1-9.9 4.2-14.9 6.2-3.1 1.2-8.8 2-9.7 4.8-1 3.1 0.9 9.1 1.5 12.2 0.9 4.3 2 8.6 3.4 12.8 1.3 4.3 2.9 8.7 5.2 12.6 2.5 4.3 4.6 5.7 9.2 3.9 9.7-3.8 19.5-7 29-11.2 4.4-2 8.7-3.9 13-5.8 4-1.7 11.1-3.1 14.3-6 3.4-3.1-4.8 0-6.4 0.6-4.6 1.8-9.1 3.8-13.5 5.9-10.3 4.7-20.5 9.6-31.1 13.4-3.1 1.1-6.8 3.5-9.9 1.7-3.8-2.2-6-9.5-7.5-13.4-2.6-6.4-5.7-15.8-6-23.4q0-0.1 0-0.2c-0.4-3.3 1-3 4.1-4.1q4.6-1.6 9.2-3.5c6.4-2.5 12.7-5.3 19.1-7.8 5.3-2.2 10.1-4 15.8-5.7 3.2-1 13.8-4.9 15.4-2.6q0.1 0.1 0.2 0.2c3.8 4.7 5.1 12 6.3 17.8 0.6 3.2 1.1 6.4 1.7 9.6 0.4 2.1 0.4 6.6 1.8 8.3 3.4 4.1 1-6.3 0.7-7.9-1.3-7.6-2.7-15.3-5.6-22.5z"/>
					<path id="&lt;Compound Path&gt;" class="s0" d="m678.9 358.9c2.1-0.8 7.3-1.5 8.3-3.7 1-2.3-1.1-7.6-1.5-9.9-1.1-5.1-2.9-19.2-8.6-21.3-2.6-0.9-9.2 2.2-11.6 3.1-3 1.1-5.9 2.3-9 3.3-7.7 2.6-15.7 4.4-23.3 7.5-3.3 1.3-11.1 3.7-12.6 7.1-0.8 1.6 0.7 8 1.3 10.3 1.2 4.5 3 8.8 4.7 13.1 1 2.2 1.6 6 3.3 7.5 0.9 0.8 0.1 0.9 1.5 1.3 1.5 0.4 6.5-2.5 8-3.1q6.6-2.6 13.1-5.2c8.8-3.5 17.5-6.9 26.4-10zm-29.3-13.6c1.6-3.3 4.9-1.1 7 0.8-2.2 2.1-4.9 2.6-7.9 1.8q0.3-1.4 0.9-2.6zm-18.3 5.9c4.3-8.6 12.2-1.7 16.3 3.3-1 0.2-2.1 2.7-3 3.3-1.5 1.1-3.6 1.6-5.4 1.9-2.3 0.3-5.8 0.4-7.9-0.9-2.8-1.9-1.3-4.7 0-7.6zm19.3 16.2c-6.2 2.6-12.5 5.2-18.9 7.6 0.3-2.5-2.6-5.3-3-7.8-0.4-2.3 0.1-5.4 0.5-7.8 4.9 4.1 17 3.1 19.6-3.5 2.2 3.1 4.4 6.5 7 9.2q-2.6 1.2-5.2 2.3zm7.3-3c-2.9-4.1-10-10.2-9.4-15.1 2.9 1 7.4 0.8 9.2-2.2 4 4 7.1 8.8 10.9 13.1q-5.4 2-10.7 4.2zm9.4-28.5c-0.6-2.1 1.7-4.8 3.7-4.7 1.2 0 3.2 1.4 3.9 2.1 1.7 1.7 2 1.3 0.9 3.2-1.6 2.7-6.3 2.9-8.8 2.7q0-1.7 0.3-3.3zm3.1 23.5c-2.2-3.1-2.6-4.5-2.9-8.2-0.3-3.3-0.6-6.7-0.6-10.1 4.3 0.4 9.2-0.5 11.4-4.6 1 1.1 2.1 2 3 3.1 2.5 2.9 2.5 6.5 3.2 10.5 0.3 1.6 1.2 3.6 0.3 4.6-0.7 0.8-3.8 1-4.8 1.4-3.3 1-6.4 2.1-9.6 3.3z"/>
				</g>
				<g id="&lt;Group&gt;">
					<path id="&lt;Path&gt;" class="s0" d=""/>
					<path id="&lt;Path&gt;" class="s0" d=""/>
					<path id="&lt;Path&gt;" class="s0" d="m1139.1 363c-0.3-2.9-0.9-6.9-3.3-8.3-2.3-1.3-7-1-9.6-1-8.8-0.2-17.5 0.9-26.2 2.1-4.6 0.6-9.2 1.2-13.9 1.7-2.9 0.3-7.9-0.4-9.3 1.7-1.6 2.4-1.4 7.9-1.6 10.7-0.2 3.8-0.3 7.7-0.2 11.5 0.2 3.9 0.4 8 1.4 11.8 1.2 4.3 2.6 5.9 6.8 5.5 9.1-0.9 18.1-1.3 27.1-2.6 4.1-0.6 8.2-1.3 12.3-1.8 3.7-0.5 10 0 13.4-1.7 3.6-1.8-4-1.2-5.5-1-4.3 0.4-8.6 1.1-12.8 1.7-9.7 1.6-19.4 3.4-29.2 4-2.9 0.2-6.6 1.4-8.7-0.8-2.8-2.8-2.9-9.5-3.2-13.1-0.7-6-1.1-14.6 0.4-21.1q0-0.1 0-0.1c0.5-2.9 1.6-2.4 4.5-2.5q4.2-0.3 8.5-0.8c5.9-0.6 11.9-1.5 17.9-2.1 5-0.6 9.5-1 14.7-1.1 2.8 0 12.7-0.9 13.5 1.5q0 0.1 0.1 0.2c2.1 4.8 1.5 11.3 1.1 16.4-0.2 2.8-0.5 5.6-0.8 8.4-0.2 2-1.2 5.7-0.4 7.5 1.8 4.2 2.3-5.1 2.4-6.5 0.7-6.7 1.4-13.5 0.6-20.2z"/>
					<path id="&lt;Compound Path&gt;" class="s0" d="m1126.5 390c1.9-0.2 6.4 0.4 7.8-1.2 1.4-1.7 0.9-6.6 1.1-8.7 0.3-4.4 2-16.8-2.3-19.9-1.9-1.3-8.2-0.2-10.4-0.1-2.8 0.3-5.6 0.6-8.4 0.7-7.1 0.4-14.2 0-21.3 0.8-3.1 0.4-10.3 0.5-12.3 3-1 1.2-1.3 7-1.3 9-0.1 4 0.4 8.1 0.9 12.1 0.3 2.1-0.1 5.4 1 7.1 0.6 0.9-0.1 0.8 0.9 1.4 1.2 0.7 6.1-0.6 7.5-0.7q6.1-0.6 12.2-1.3c8.2-0.9 16.4-1.7 24.6-2.2zm-21.5-18.3c2.2-2.4 4.4 0.2 5.7 2.3-2.3 1.3-4.7 1.1-7-0.4q0.6-1 1.3-1.9zm-16.7 0.7c5.6-6.3 10.6 1.4 12.9 6.6-0.9-0.1-2.4 1.7-3.3 2-1.5 0.6-3.4 0.6-5 0.4-2-0.3-5-1.1-6.4-2.7-1.9-2.2 0-4.2 1.8-6.3zm12.4 18.1c-5.9 0.7-11.8 1.4-17.7 2 0.8-2.1-0.9-5.1-0.7-7.3 0.2-2.1 1.4-4.5 2.2-6.5 3.2 4.6 13.6 6.6 17.3 1.7 1.2 3.2 2.2 6.5 3.8 9.4q-2.4 0.4-4.9 0.7zm6.9-0.8c-1.6-4.1-6.1-11-4.4-14.9 2.2 1.5 6 2.4 8.2 0.3 2.4 4.3 3.9 9.1 6.1 13.5q-5 0.5-9.9 1.1zm14.5-21.8c0-1.9 2.5-3.6 4.2-3.1 1 0.3 2.4 2 2.8 2.8 1 1.8 1.4 1.5 0 2.9-2 1.9-5.9 0.9-8.1 0.2q0.5-1.5 1.1-2.8zm-2.9 20.6c-1.1-3.2-1.1-4.5-0.5-7.6 0.5-2.9 1.1-5.8 1.9-8.7 3.5 1.3 7.8 1.8 10.6-1.1 0.6 1.1 1.3 2.1 1.8 3.2 1.4 3.1 0.6 6.1 0.3 9.6-0.2 1.5 0.1 3.3-0.9 4-0.7 0.5-3.4-0.1-4.4 0-2.9 0.1-5.9 0.3-8.8 0.6z"/>
				</g>
				<g id="&lt;Group&gt;">
				</g>
				<g id="&lt;Group&gt;">
					<path id="&lt;Path&gt;" class="s0" d=""/>
					<path id="&lt;Path&gt;" class="s0" d=""/>
					<path id="&lt;Path&gt;" class="s0" d=""/>
				</g>
				<g id="&lt;Group&gt;">
					<path id="&lt;Path&gt;" class="s0" d=""/>
					<path id="&lt;Path&gt;" class="s0" d=""/>
					<path id="&lt;Path&gt;" class="s0" d=""/>
					<path id="&lt;Path&gt;" class="s0" d=""/>
					<path id="&lt;Path&gt;" class="s0" d=""/>
					<path id="&lt;Compound Path&gt;" class="s0" d="m989 371.3c-4.3-22.7-23-36.4-45.9-34.7-22.9 1.8-42 16.9-44.5 40.4-1.3 11.4 0.8 23.6 5.8 33.9 4.6 9.7 13.8 15.5 21.4 22.5 3.5 3.2 7.9 7.2 9.4 11.8 1.3 4.1 0.5 9.2 0.9 13.6 0.3 2.5 0.8 4.8 0.4 7-0.2 1-1 2.4-1 4.3 0.1 4.9 0.6 11 3.8 15 3 3.6 7.6 4.2 11.8 2.4 5.6-2.4 6.7-7.7 7.2-13.2 0.3-3.2-0.4-6.5-1.1-10-0.5-3-0.3-6.2 0.2-9.9 0.4-5.1 2-11.7 3.4-17.2 2.4-8.5 8.1-14.3 14.3-20.3 12.8-12.6 17.2-27.9 13.9-45.6zm-37.3-30.4c5.9 0.8 7.8 0.9 10.3 6q3.1 6.3 4.9 13c2.5 9.1 3.3 19.1 1.8 28.4q0 0.1 0 0.3c-0.8 10.4-5.6 20.7-9.8 30.4-2.2 4.9-4.4 9.8-5.7 15.1-0.8 2.8-0.6 6.1-1.5 8.8-0.9 2.9 1.9 2.4-2.1 2.8 2.5-6.7 1.4-16.6 1.2-23.6-0.2-9.8-1.1-19.7-2.1-29.5-0.9-9.8-2-19.6-2.5-29.5-0.3-4.5-0.4-9.1-0.4-13.6 0-1.9-0.5-4.9 0.1-6.8q-1-3.2 2-2.2 1.9 0.1 3.8 0.4zm-0.1 124.5c-4.2 1.5-8.9 0.7-13.2 0.9 1.4-1.3 5.9-3.2 7.9-2.6 0.4 0.1 2.5 4.4 2.2-0.2 1.8-0.1 3.5-0.1 5.3 0.1 0 0.9-1.6 1.5-2.2 1.8zm1 15.9c-0.5-0.4-1.5-0.9-1.8-1.4-1.9-2.2 0.1-1.7 0.3-4.4 1.2 1.2 2.3 2.4 3.6 3.4q-1.1 1.1-2.1 2.4zm-3.8 1.9c0.2-0.5-3.3-2-3.6-2.2q0.8-1.1 1.5-2.1c1.5 1.4 3.5 2.1 2.1 4.3zm-5.1-9.6c-0.1-0.3-1.9-1.8-1.7-1.6 0.2-0.2 1.3-1.3 1.5-1.4q0.1-0.1 0.1-0.1c1.4-1.4 2.4 0.2 3.6 1.2-1 0.8-2 1.7-2.5 2.8q-0.5-0.4-1-0.9zm-6.2-3.4c1.4 1 1.2 0.7 0.1 2.4q0-1.2-0.1-2.4zm0-1.9c-0.2-0.1 3.5-0.6 4.2-0.4 1.7 0.6 0.6 0.7 1.9 1.3-0.9 0.6-1.7 1.2-2.4 2.1q-1.7-1.6-3.7-3zm8.2 6.7c2-3 2.6-2.4 4.9 0-0.7 0-1.8 2.7-2 3.1-0.4-0.3-3.3-2.5-2.9-3.1zm8.3 0.5c-1.2-1.3-1-1.8 0.2-3q0-0.1 0.1-0.2c3.2-4.8 0.7 4.3-0.3 3.2zm-2.1-2.2c-2-2-4.1-3.9-6.5-5.3 2 0 4-0.2 5.9-0.8-0.6 0.8-3 2.7-1.5 3.6 1 0.5 1-1 1.7-1 1.4-0.1 1.1-0.9 2.9 0.3q-1.5 1.5-2.5 3.2zm3.2-18.8c-0.4 2.1-0.5 6.4-1.8 7.2-0.5 0.3-2 0-2.6-0.1-2.6-0.5-1.7 0.6-2.4-1.9-0.5-1.9-0.7-7.1 0-8.9 0.8-2.5-0.3-1 2-2.1 1.7-0.7 4.3-0.6 6.1-1.3q-0.7 3.6-1.3 7.1zm-17-113.7q3-0.3 6-0.3c-0.9 18.8 1.2 37.6 2.8 56.4 0.7 9 1.3 18.1 1.5 27.2q0.1 6.1-0.1 12.3c-0.1 2-1.4 8-0.3 9.5q-1.5 0.1-3 0.2c2.4-1.6-1.5-11.1-2.2-12.9-1.7-4.4-4.1-8.6-6.5-12.6-5.4-9-11.1-17.6-13.6-27.9-2.4-10.1-2.6-20.8-0.2-30.9 1.2-4.6 2.8-9.1 5.3-13.1 1.2-2 2.7-4.6 4.6-6.1 1.5-1.1 3.5-1.5 5.7-1.8zm-12.2 90.7c-7.2-6.6-16.9-13-20.3-22.5-4.1-10-6.1-21.8-4.6-32.2q0.1-0.2 0.1-0.4c0.8-9.7 6.4-20.8 14.3-26.4q0.1-0.1 0.2-0.2c3.8-3.1 9.4-5.7 14.5-7.2-11.2 12.6-13.5 31.3-11.2 47.5 2.6 17.6 14.8 30.9 21.2 46.4q0.1 0.2 0.2 0.5c1.1 2.4 1.9 5.7 3.1 8.5-0.3-0.7 0.2 0.4 0.4 0.6-1.1-0.1-3.1-0.1-4-0.3q-0.2 0-0.4 0c-3.1-0.3-3.2-1.9-5-4.8-2.3-3.7-5.4-6.7-8.5-9.5zm12.4 26.5c-0.4-2-0.8-7.2-0.7-10.2q4.3 1 8.8 1c-0.2 3.4 0.7 8.2-0.3 11.3-0.8 2.7 0.3 1.1-2.8 2.2-1.4 0.6-2.9 0.8-4.3 1.5-0.2-1.9-0.5-3.9-0.7-5.8zm-0.4 17.9c-0.2-1.4 1-2.7 1.8-3.9 3 2.7 0.4 1.9 0.8 5.1 0.4 2.7 2.8-2 2.6-1.8 2.5 2.5 2.3 1.9 0.8 4.8-0.8-0.5-2.1-1.2-2.8-1.9-0.3-0.3-2.3-2.6-3-1.2q-0.3-1.8-0.2-1.1zm1.5 5.9q-0.7-1.8-1.1-3.7c2.8 2.5 3.3 1.6 1.8 5q-0.3-0.7-0.7-1.3zm2.8 3.8c-2.1-1.7-0.7-2.4 0.2-4.4 1.4 0.9 2.8 1.4 2.9 2.8 0.1 0.7-1.7 1.9-0.9 2.7q-1.3-0.2-2.2-1.1zm8.9 0.5c-2 0.8-4.1 1.2-6.2 0.7 0.7-0.2 1.5-2.5 1.7-2.9 1.9 1.1 7.6 3.1 3-0.1 1.4-1.4 3-1.3 4.6-0.1-0.9 1.1-1.9 1.8-3.1 2.4zm4.9-5.2c-0.5 1 3.3-4.7-1.1 2-0.4-0.4-0.2-0.2-0.8-0.7 0.5-0.6 1.6-2.2 2.2-2.5q-0.7 1.9-0.3 1.2zm0.7-2.5c-1.2-1.5-0.5-2.2 0.4-4q0 1.4-0.2 2.8 0.1-0.8-0.2 1.2zm-3.5-11q0.1-0.6-0.3-0.8c0.5-0.2 2.6-0.6 2.8-1.2 0.5 1.4 0.8 2.8 1 4.2q-1.6-1.2-3.5-2.2zm34.1-77c-1.7 12.3-8.6 19.6-17 28-4.1 3.9-7.9 8.2-10.1 13.4-1 2.5-1.7 5.1-2.1 7.8-0.5 3.3 0.1 3.9-3.3 5 1.4-18.1 12-31.2 15.4-48.8 3.4-17.8 0.9-36.3-8-52.3 19.1 7.1 27.6 27.5 25.1 46.9z"/>
					<path id="&lt;Path&gt;" class="s0" d=""/>
					<path id="&lt;Path&gt;" class="s0" d=""/>
					<path id="&lt;Path&gt;" class="s0" d=""/>
					<path id="&lt;Path&gt;" class="s0" d=""/>
					<path id="&lt;Path&gt;" class="s0" d=""/>
				</g>
				<g id="&lt;Group&gt;">
					<path id="&lt;Path&gt;" class="s0" d=""/>
					<path id="&lt;Compound Path&gt;" class="s0" d="m1381.7 337.9c-1.4-6.4-2.2-12.8-3.8-19.1-1.1-4.2-3.6-14.6-8.3-15.9-4.9-1.3-12.1 3.2-16.4 4.9-7 2.9-14.4 4.6-21.6 7-5.8 1.9-13.4 4.4-18.1 7.7-4.1 2.9-1.1 12.9 0.2 17.2 0.9 3.4 2.1 6.7 3.5 10 0.8 1.9 1.9 6.2 3.7 7.5 1.4 0.9 5.5-0.3 7.3-0.5 4-0.5 7.9-1.4 11.7-2.4 7.7-2.2 15.2-5.2 22.6-8.2 2-0.9 19.5-6.8 19.2-8.2zm-5.3 0.5c-15.1 5.6-28.4 13-44.1 16.1-2.1 0.5-8.3 2.4-10.2 1.4-1.7-1-3.4-7.7-4.1-9.5-2.4-6.2-5.7-15-4.3-21.3q0-0.1 0.1-0.2c0.3-2.4 7.4-4.8 9.6-5.7 2.1-0.8 4.1-1.5 6.4-2.3 8.5-2.7 17.3-4.5 25.6-7.8 3.9-1.6 7.7-3.2 11.9-4 2.1-0.4 1.9-0.5 3.3 0.7 1.3 1.2 2.2 3.6 2.9 5.2 3.6 8.5 3.4 17.8 6.2 26.4q-1.7 0.4-3.3 1z"/>
					<path id="&lt;Path&gt;" class="s0" d=""/>
					<path id="&lt;Path&gt;" class="s0" d="m1332.7 325.9c3.2-1.1 6.4-2.3 9.5-3.5 0.2 0 10.5-3.1 8.5-4.4-2.3-1.5-10.5 3-12.8 4-2.3 0.9-4.7 1.8-7.1 2.6-1.4 0.4-7.4 1.1-8.1 1.9-2.6 3.2 8.7-0.2 10-0.6z"/>
					<path id="&lt;Path&gt;" class="s0" d="m1340.3 330.9c1.2-0.3 5.7-1.1 6.2-2.1 1-1.9-1.9-1-2.2-0.9-4.4 0.4-9.4 3.1-13.6 4.6-1.7 0.6-5.9 1.1-7.1 2.3-1.4 1.6 1.1 0.9 1.9 0.8 5-0.9 10-3.2 14.8-4.7z"/>
					<path id="&lt;Path&gt;" class="s0" d="m1356.7 330c-3.6 0-30.5 8.3-29.3 10.8 0.3 0.5 14.7-5.4 16.4-5.9q4.3-1.3 8.7-2.3c1-0.3 2.8-0.3 3.7-0.9 0.3-0.2 2.3-1.7 0.5-1.7z"/>
					<path id="&lt;Path&gt;" class="s0" d="m1349.2 340.3c-2 0-4.6 1.3-6.7 1.9-2.5 0.7-5.1 1.4-7.6 2.2-0.8 0.3-6.8 2-6.7 3 0.1 1.8 3.8-0.5 4.6-0.8 2.7-1 7.1-2.1 10.4-3.1 1.6-0.4 4.3-0.7 5.7-1.7 0.1-0.1 2.1-1.5 0.3-1.5z"/>
					<path id="&lt;Path&gt;" class="s0" d="m1371.8 334.2c-1.7-4-8.7-1.3-7.9 2.7 1 4.9 10.1 2.1 7.9-2.7z"/>
					<path id="&lt;Path&gt;" class="s0" d="m1369.1 327c0.4-0.1 3.1-1 2.2-2 1.6 0.3-0.8-6.1-0.9-6.6-0.7-3.1-0.5-7.9-4.8-7.7-1.6 0.1-6 1.6-7.1 3-1 1.4 0.1 5.6 0.4 7.3 0.4 1.6 0.9 5.2 2.4 6.4 1.7 1.3 5.9 0.2 7.8-0.4z"/>
				</g>
				<g id="&lt;Group&gt;">
					<path id="&lt;Path&gt;" class="s0" d=""/>
					<path id="&lt;Path&gt;" class="s0" d=""/>
					<path id="&lt;Compound Path&gt;" class="s0" d="m1107.8 443.5c-0.5-3-2.5-6-3.9-8.7-1.5-2.9-3.1-6.8-5.4-9.2-3.8-4.2-10.9 0.2-14.9 2.4-6.1 3.4-11.7 7.3-18 10.4-6.5 3.2-13.3 6.4-19.1 10.8-3.5 2.7-2.1 2.9-1.5 6.6 0.3 2 0.3 1.8-1.4 3.2-0.6 0.5-1.5 1.1-2.1 1.7-3.9 4.5 0.2 11.4 2.7 15.7 1.6 2.6 3.1 4.7 6.4 4.5 3-0.2 6.8-4.1 9.5-3.7 1.6 0.2 2.2 3.2 3.6 4.7 2.2 2.5 4.7 2.4 7.7 1.5 7.9-2.2 14.6-7.5 21.8-11.4 2.8-1.5 6-2.6 8.6-4.6 3.6-2.9 2-3.5 0.5-7.1-0.6-1.1-1.3-3.5-1.8-5 1.8-0.4 5.5-1 5.9-3 0.3-1.6-2.7-4.3-3.7-5.3 1.3-0.7 5.3-1.6 5.1-3.5zm-47.8 32.2c-3.4 1.4-8.8 5.8-12.5 3.3-2.5-1.7-4.2-6.7-5.3-9.3-0.7-1.6-1.3-3.6-1.3-5.4 0.4-2.9 3.1-4.2 5-6 1.9 4.8 4 10.9 7.5 14.6 1.6 1.7 3.1 1.8 5.3-0.7 0.1 0.4 1.6 3.4 1.3 3.5zm41-15.9c1.1 2.6 3.1 4 0.7 5.7q-0.1 0.1-0.2 0.1c-3.5 3.1-9.1 5.1-13.3 7.7-4.6 2.8-9.4 6-14.3 7.9-2.9 1.2-6.1 2.6-8.7 0.4-2.4-2-3.8-6.3-5-9.2-1.1-2.9-2.2-6-2.9-9.1-1-4.4-0.9-5.1 2.7-7.8 5.8-4.3 12.5-7.5 18.8-11 4.7-2.6 10.8-6.7 14.7-1.4q0 0.1 0.1 0.2c3.8 4.5 5.2 11.1 7.4 16.5zm3.7-15.4c-2.4 0.7-4.9 2.5-6.8 4.1-1.8-4-4.5-9.9-9.6-9.7-5.4 0.2-11.1 4.8-15.6 7.3-5.4 2.9-10.6 5.7-15.5 9.4-2.3 1.8-2.3 3-1.8 6 0.6 3.3 1.7 6.5 2.8 9.6-0.9-0.2-2.3 0.7-3 1.2-2.2-5.3-5.8-10.1-8-15.4-0.3-0.7-2-3.6-1.8-4.5 0.2-0.6 3.1-2.4 3.5-2.7 2.6-1.9 5.5-3.6 8.4-5.1 5.6-3 11.6-5.4 17-8.8 4.9-3 10-6.9 15.1-8.7q0.1-0.1 0.3-0.1c1.4-0.8 5.9-2.5 7.1-0.8 2 2.2 3.6 5.8 5.1 8.5q1.3 2.2 2.4 4.5c1 2 2.9 4 0.4 5.2zm-1.6 6.2c1.1 1.9 0.8 1.9-1 2.9-1.9 0.8-3.2-0.1-3.2-2.5 0-1.9 0.3-1.8 2.3-3.1q0.1 0.3 0.3 0.5c0.4 0.5 1.1 1.6 1.6 2.2z"/>
					<path id="&lt;Path&gt;" class="s0" d=""/>
					<path id="&lt;Path&gt;" class="s0" d=""/>
					<path id="&lt;Path&gt;" class="s0" d=""/>
					<path id="&lt;Path&gt;" class="s0" d="m1069.5 475.5c-0.2-0.1-0.6-0.1-0.5-0.4 0.5-1 0.9-2-1-2.3 1.8-2.5 0.2-2.2-1.9-2.3 1.9-2.9-1-1.1-2-2.5-0.9-1.2 0.1-5.1 0.2-6.4 0-1.2 1.1-1.7-1-1.8-2.5-0.1-2.1 0.9 0.3 1-1.1 1.6-0.9 3.2-0.6 5 0 2.6-0.9 3.1 2.1 3.8-1.6 2.3-0.5 2.2 1.8 2.3-1 1.5-0.7 1.9 1 2.3-1.5 3.4 3.6 2.6 1.6 1.3z"/>
					<path id="&lt;Path&gt;" class="s0" d="m1089.8 452.5c-2.8-2.8-8-1.9-11.4-1.1-5.9 1.5-11.8 7.4-8.4 13.8 6.4 11.9 29.3-3.1 19.8-12.7z"/>
				</g>
				<path id="&lt;Compound Path&gt;" class="s0" d="m1215.6 371.6c-2.8-10.2-12.6-12.6-21-6.8-8.8 6.2-9 18.1-4.3 26.9 2.4 4.4 6 8.3 10.5 10.5 1.9 1 3.4 1.3 5.3 1.4 0.5 0 0.1 1 1.1 0.6 0.8-0.3 1.7-2.4 2.1-3 5-8.9 9-19.3 6.3-29.6zm-9.9 8.3c-0.6 3.4-2.1 6.5-3.3 9.8-0.7-1-1.2-2.1-1.7-3.2 0-1.7-1.6-5.1-1.8-6.3-0.2-2-0.5-5.2 1.9-5.8 3.6-1 5.2 2.7 4.9 5.5z"/>
				<g id="&lt;Group&gt;">
					<path id="&lt;Path&gt;" class="s0" d=""/>
					<path id="&lt;Path&gt;" class="s0" d=""/>
					<path id="&lt;Path&gt;" class="s0" d=""/>
					<path id="&lt;Path&gt;" class="s0" d=""/>
					<path id="&lt;Path&gt;" class="s0" d=""/>
				</g>
				<g id="&lt;Group&gt;">
					<path id="&lt;Path&gt;" class="s0" d=""/>
					<path id="&lt;Path&gt;" class="s0" d="m816.8 399.1c5.4 0 11 2.9 15.7 5.2 6 3 12.2 5.8 18.1 9 6 3.3 12.1 7.1 16.9 12.1 2.1 2.2 4.7 5.1 5.7 8 0.4 1.3 1.2 2.9-0.3 1.6-0.8-0.7-1.3-2.7-1.9-3.6-1.7-2.7-3.9-4.9-6.2-7-5.5-4.9-12-8.4-18.6-11.6-5.5-2.6-11.1-5.2-16.6-7.6-3.2-1.4-6.5-2.7-9.9-3.4-0.9-0.2-3.2-0.2-3.6-0.9-0.4-0.6-0.4-1.8 0.7-1.8z"/>
					<path id="&lt;Compound Path&gt;" class="s0" d="m821 414.2c7.1 4.9 15 8.1 22.6 12.3 10.4 5.8 32.5 25.9 43.6 11.7 2.2-2.8 1.2-6.1-0.8-9.4-1.2-1.9-2.8-3.7-4.4-5.3-1-0.9-3.6-2.4-4.2-3.5-1.3-2.7 3.3-8.3 4.8-10.8 2.1-3.5 4.4-7.3 4.7-11.5 0.6-9.2-9-14.3-16.7-16.3-6.1-1.5-10.4-6-15.5-9.6-6.6-4.7-15-7.5-22.1-2.2-6.3 4.6-8.4 12.7-9 20.1-4.5-1.9-14.7-5.2-17.9 0.8-4.7 8.5 9 19.6 14.9 23.7zm32.3-27c-7.2-3.3-17.6-8.1-25.8-6.7 2.7-6.9 8.6-12.6 16.6-11.5 8.1 1 13.9 8 20.7 12.1-2.9 0.1-5.7 0.4-8.6 0.2-2.1-0.1-4-0.6-5.9-1.5-0.7-0.4-1.8-1.6-2.5-1.7-5.3-0.7 1.8 5.1 3.8 5.8 2.4 0.8 5 0.9 7.5 0.8 7.9-0.3 14.7-1 21.4 4.2 6.6 5.1 4.8 11.9 1.2 18.5-7.8-8.6-18-15.3-28.4-20.2zm-9.3 15c11.5 6.1 23.8 11.5 33.5 20 3.3 2.9 9.4 8.4 8.6 13.5-1.1 6.1-9.5 6-14 4.9-11.9-3.1-21.4-11.9-32.3-17.3-11.6-5.6-30.1-13.9-32.6-28.4-1.9-14.4 32.6 5.1 36.8 7.3zm31.9 16.3c-7.6-5.6-16.1-9.8-24.2-14.5-5.1-3-10.3-5.9-15.5-8.6-1.9-0.9-11.1-4.2-10.9-5.9 9.5 2.1 20.1 6.4 29.4 10.1 5 2.1 9.9 4.5 14.5 7.5 2.3 1.5 3.3 2.3 5.4 4.3 0.8 0.8 1.8 2.6 2.9 3.2-0.6 1.2-1.2 2.5-1.6 3.9z"/>
				</g>
				<g id="&lt;Group&gt;">
					<path id="&lt;Path&gt;" class="s0" d=""/>
				</g>
				<g id="&lt;Group&gt;">
					<path id="&lt;Path&gt;" class="s0" d=""/>
					<path id="&lt;Path&gt;" class="s0" d=""/>
					<path id="&lt;Path&gt;" class="s0" d=""/>
					<path id="&lt;Path&gt;" class="s0" d=""/>
				</g>
				<g id="&lt;Group&gt;">
					<path id="&lt;Path&gt;" class="s0" d=""/>
					<path id="&lt;Path&gt;" class="s0" d=""/>
					<path id="&lt;Path&gt;" class="s0" d=""/>
					<path id="&lt;Path&gt;" class="s0" d=""/>
				</g>
				<g id="&lt;Group&gt;">
				</g>
				<g id="&lt;Group&gt;">
					<path id="&lt;Path&gt;" class="s0" d=""/>
					<path id="&lt;Path&gt;" class="s0" d=""/>
					<path id="&lt;Path&gt;" class="s0" d=""/>
					<path id="&lt;Path&gt;" class="s0" d=""/>
					<path id="&lt;Path&gt;" class="s0" d=""/>
					<path id="&lt;Path&gt;" class="s0" d=""/>
					<path id="&lt;Path&gt;" class="s0" d=""/>
					<path id="&lt;Path&gt;" class="s0" d="m1352.4 460.6c-2.6 0-2.6 4.1 0 4.1 2.7 0 2.7-4.1 0-4.1z"/>
					<path id="&lt;Path&gt;" class="s0" d="m1352.4 468c-2.6 0-2.6 4 0 4 2.6 0 2.6-4 0-4z"/>
					<path id="&lt;Path&gt;" class="s0" d="m1352.4 476.4c-3.1 0 0 2.7 0 2.7 0 0 3.1-2.7 0-2.7z"/>
					<path id="&lt;Path&gt;" class="s0" d=""/>
					<path id="&lt;Compound Path&gt;" class="s0" d="m1387.7 470.2c-0.7-3.4-5.9-18.4-12.4-12.9q0-1.4-1.1-2.1c10.3-5.5 3.9-22.5 2.3-31-2-10.5-0.8-25-12.7-29.8q-1.5-0.6-3.2-1-3.2 0.6-2.1-2.6c-1-2.5-0.6-5.7-1.6-8.4-1.8-4.9-5.2-8.7-10.5-9.5-9.1-1.4-24.5 3.4-27 13.2-7.7-6.5-20-4.8-28.9-2.3-10.9 3-18.6 7.3-24 17.6-10.3 19.5-12.4 44.6-11 66.2 0.7 10.9 2.4 23.5 8.9 32.7 2.7 3.8 6.7 6.7 11 8.3 6.1 2.3 8.9 0.7 14.5-1.1 3.3-1.1 8.5 0.5 12.5 0 4.1-0.5 1.9 0 4.8 2 2.3 1.7 4.8 2.3 7.5 2.7 10.8 1.6 22.1 0.3 33-0.2 12.3-0.5 23.7-1.3 29.1-13.7 1.7-3.9 0.9-1.9 4.7-3.8 2.9-1.4 4.5-4.1 5.5-7 2-5.4 1.8-11.7 0.7-17.3zm-28.9-74.5c3.5 0.3 8 2.3 9.8 5.1q0.1 0.1 0.2 0.2c2.5 2.9 3.4 8.1 3.9 12 1.4 7.2 3.6 17.8 4.4 25.9 1 7.8 0.4 14.5-8.8 15.9q-2.3 0.3-4.5 0.3-3.4 1.1-2.4-2.5c-0.9-2.1-0.5-5.2-0.9-7.4-0.9-4.6-2-11.4-6.6-13.7-3.2-1.7-18-0.8-15.9 5 0.7 1.9 3.6 3 4.5 5.6 1.6 4.5 1.2 9.6 1 14.3-1.8-2.5-9.7-0.5-12.9-2-3.9-1.8-4.2-5.7-4.2-9.6-0.1-9.1 3.8-21.1-3.5-28.5-16.8-17.1-34.4 12.7-31.5 27.9-4-3.9-0.6-15.3 0.4-19.8 1.3-5.8 2.8-13.5 7.7-17.1q0.2-0.1 0.3-0.2c7.3-6 20.7-5.3 30.3-7.2 9.5-1.8 19.7-5.4 28.7-4.2zm15.6 101.9c-5.6 12.8-23 11.2-34.7 12-6.2 0.4-12.4 0.6-18.6 0.1-2.7-0.2-12.2-0.4-13.2-3.4 12.5-3.9 9.7-20.6 9-30.6-0.3-3.7 0.7-8.3-0.6-11.6-1.8-4.9-9.3-7.3-13.9-7.6 2.1-3.8-6-4-3.7 0-1.9 0.1-3.6 0.4-5.4 0.9 1.9-1.9-0.3-11.9-0.5-14.6-0.6-7 1.3-16.5 6.4-21.8 2.7-3.4 6.5-6.3 11-6.7-0.8 0.9-3.3 3.5-1.4 4.7 1.9 1.1 3.2-2.5 4.2-3.3q0-2.2 2.1-0.9 1.7 0.4 3.3 1.3c1 0.6 2.6 1.8 3.1 2.6q0.1 0.1 0.2 0.3c5.6 6.3 0.9 19.9 1.6 28 0.4 4.7 1.9 8.7 6.4 10.7 2.5 1.1 11.7 3 13.7 0.6-0.2 4.9-0.7 9.9-0.5 14.9 0.1 4.8 1.3 8.1 0.2 12.8-1.7 7.9-0.1 17.3 10.1 12.5 7.4-3.4 4.3-10.1 4.8-16.2 0.2-3.5 2.4-7.8 3-11.7 0.6-4.4 0.8-8.9 0.7-13.4 3.9 0.1 7.9 0 11.6-1.6-0.9 1.7 1.8 7 2.2 9q1.2 5.5 1.6 11.2c0.5 7.3 0.1 15-2.7 21.8zm-18.7-10.1c0.1 4.6-3 12.6-9.6 9.7-4.6-2-1.8-10-0.9-13.6 1 1.5 2.6 2.5 4.4 2.8-1.4 0.7-1.5 8.4 1.3 6.5 0.8-0.5 0.5-3.9 0.8-4.6 1-2.7 1.9-2 4-4.1q0 1.7 0 3.3zm-58-28.6c5-0.6 12 0 15.2 4.5 3 4.1-0.3 1.8-3.5 2.9-10.6 3.6 1.5 18.9-8.8 22.5 0.7-4.4 2.8-16.8-6.3-13.3-4.8 1.9-5.1 9.9-4.7 14.3-6.9-1.4-6-11.1-5.1-16.2q0-0.2 0-0.3c0.7-8.1 5-13.3 13.2-14.4zm-3.9 46c-8.5-1.3-7.4-7.8-7.8-14.1 1.5 0.7 3.1 0.7 4 1.6 1.8 1.6 0.7 6.2 4.1 6.8 4.9 1 4.2-6 6-8.2 1-1 3.6-1.3 4.8-2.5 1.5-1.6 2.1-3.6 2.3-5.7 0.4-3.7-2.4-10.7 1.2-13.5 0.9-0.7 1.3-0.5 2.6-0.6 3.9-0.3 3.1 1.4 3.3 4.7 0.3 5.6 1 11.1 0.7 16.6-0.2 4.2-0.8 9.3-4.2 12.1-4.1 3.4-12 3.5-17 2.8zm-3.1-46.6c-6.2 2.7-8 8.7-8.8 15-0.6 4.7-1.5 13.3 2.8 16.7-1.5 0.7-1.3 4.4-1.3 5.7-9.8-4.7-11.6-19.6-11.9-29.2-0.5-13 1.5-26.3 3.1-39.1 1.3-10.2 3-22.9 10.6-30.5 7.1-7 19-6.9 22.7 3.4-15.2 3.9-18.7 17.3-20.5 31.4-0.8 6.2-0.4 10.1 2.9 15 0.8 1.2 0.7-0.3 1.4 1.5 0.4 1.2 0.1 3.1 0.1 4.4 0.1 1.1-0.4 4.8 0.9 5q-1 0.4-2 0.7zm5.9 31.5c-0.3 0.1 2.7-1.9 0.8-3.6-2.8-2.6-5.5 3.4-1.7 3.7-3.9 0.4-4.6 0.3-4.3-3.7 0.1-2 0.4-4.2 1.2-6 1.2-2.6 1.5-3 4.2-3.1 3.3-0.2 3 0.1 3.5 3 0.2 1.6-0.2 3.6-0.4 5.2-0.4 2.9 0.2 4-3.3 4.5zm26.9-97.1c-1.6-5.9 5.7-9.2 11-9.3-2.8 1.1-4.4 3.7-5.5 6.4-0.5 1.3-0.8 2.8-1 4.1-0.4 3.8 0.2 3.6-3.8 4.1 0-1.8-0.2-3.6-0.7-5.3zm19.4-5.1c1.4 1.9 2.6 3.9 3.9 5.9-5.5 0.8-10.8 2.3-16.2 3.5-0.1-3.2 1-9.4 4.3-11 1.2-0.6 4.7 0.3 4.9-1.2 1.2 0.7 2.2 1.7 3.1 2.8zm-17.2-6c4.3-3.3 10.8-5.8 16.1-6.1q0.2-0.1 0.4-0.1c10.5-1.8 14.5 8.2 14.6 17.6-2.2-0.2-4.5 0.3-6.6 0.1-2.5-0.2-1.7 0.2-3.3-1.8-2.7-3.1-3.5-6.9-7.3-9.1-4.6-2.8-11.1-2.1-15.4 0.9q0.5-0.9 1.5-1.5zm-15.6 2.6c2.3 0.3 6.4 1.3 8.5 3.4 1.5 1.6 4.1 5.2 4.1 7.9-0.1 3.1 0.3 2-2.3 2.9-1.8 0.6-4.2 0.5-6.1 0.7-0.8 0.1-4.1 1.2-4.7 0.9-0.6-0.4-1.6-3.3-2.1-3.9-3.9-5.6-11.1-8.5-17.7-9.3 6.5-2.1 13.5-3.4 20.3-2.6zm-25.5 122.5c-16.5 1.8-22.8-18.7-24-30.8q0-0.2 0-0.5c-1.9-12.6-1.5-27.3 0.3-39.6q0.1-0.2 0.1-0.5c1.3-13.3 5.5-27.7 13.1-39.2q0 0 0 0c2.7-2.7 6.6-6.6 11.4-6.9q0.1-0.1 0.3-0.1c2.6-0.4 6.5 0.1 9.4 0.9-23.7 1.4-23.9 40.8-25.8 57.2-1.3 11.9-2.4 24.5 1.2 36.1 1.4 4.8 3.7 10.2 7.8 13.2 1.4 1.1 4.5 1.4 5.5 2.4 1.8 1.8 1.9 4.7 4.3 6.5q-1.6 1.1-3.6 1.3zm13.2-12.6c-2.6 5.9-5 3.1-6-2.1q2.5-1.1 2.2 0.1 0.1 1.6 1.7 1.8c2.3-0.3 1-2.1 3-2.5q-0.3 1.4-0.9 2.7zm61.6-36.1c0 7-0.1 16-3.9 22.1-3.5 5.8-8.4 3.9-9.7-2.1-2.3-10.2 6.1-36.8-5.9-42.6 4.3-4.1 13.9-4.7 16.2 1.2q0 0.1 0.1 0.3c1.4 2.8 2.1 7 2.4 10.1 0.5 3.6 0.8 7.6 0.8 11zm25.7 24c-0.6 4.1-2 9.4-6.7 10.4 1.9-10.8 0.7-22.4-2.3-32.8 3.8 0.4 5.1 0.8 7 5.1 2.3 5.2 2.7 11.6 2 17.3z"/>
					<path id="&lt;Path&gt;" class="s0" d=""/>
					<path id="&lt;Path&gt;" class="s0" d=""/>
					<path id="&lt;Path&gt;" class="s0" d=""/>
					<path id="&lt;Path&gt;" class="s0" d=""/>
					<path id="&lt;Path&gt;" class="s0" d=""/>
					<path id="&lt;Path&gt;" class="s0" d=""/>
					<path id="&lt;Path&gt;" class="s0" d="m1307.9 424.4c0-3.8-6.2 0.9-5.2 3.6 1.5 3.9 3.7-1 4.7-2.4-0.6 0.8 0.5-0.9 0.5-1.2z"/>
					<path id="&lt;Path&gt;" class="s0" d="m1302.8 434c-2.4-0.7-3.4 5.6-2.1 6.4 2.2 1.4 4.2-5.8 2.1-6.4z"/>
					<path id="&lt;Path&gt;" class="s0" d="m1300.6 444.3c-2.8 0-2.9 7.1-0.1 7.1 2.7 0 2.8-7.1 0.1-7.1z"/>
				</g>
				<g id="&lt;Group&gt;">
					<path id="&lt;Path&gt;" class="s0" d=""/>
					<path id="&lt;Compound Path&gt;" class="s0" d="m1175.9 402.5c-6.6-8.5-19.5-12.9-28-4.9-8.1 7.6-13.8 22.2-6.7 32 6.6 9 20.3 9.7 29.2 4.2 10.9-6.7 13.3-21.4 5.5-31.3zm2.6 15.6c-1.3 8.9-9.1 16.3-17.7 17q-0.2 0-0.3 0c-15.4 2.4-24.9-12.2-18.4-25.9 3.8-8.7 10.7-15.9 20.9-13.1 9.5 2.6 16.6 12.1 15.5 22z"/>
					<path id="&lt;Path&gt;" class="s0" d="m1144.5 395.5q0 0 0 0 0 0 0 0z"/>
					<path id="&lt;Compound Path&gt;" class="s0" d="m1187.5 415.1c-0.5-6.9-3.2-14-7.9-19.2-2-2.1-4.2-3.9-6.8-5.3-0.7-0.3-3.5-1-3.9-1.6-0.4-0.7 0.4-4.1 0.2-5.2-1.4-6.6-8.9-9.6-14.6-6.3-2.4 1.4-4.1 3.8-4.8 6.5-0.4 1.6 0.3 3.5 0 4.9-0.4 1.5-2 2-3.5 3-11.1 7.4-18.5 22.3-15.9 35.6 3 15.1 17.6 22.4 32.1 20.1 16.1-2.7 26.5-16.1 25.1-32.5zm-34.9-26.9c-0.4-3.7 1.2-7.3 5.2-8.1 5.3-1 7.5 3.6 7.7 8.1-1.2-0.2-13.1-1.4-12.9 0zm32.8 34.3c-2.6 18-22.2 27.9-38.9 21.5-18.7-7.1-17.6-30.1-7.1-43.8 1-1.4 3.7-3.8 5-4.6q0-0.1 0.1-0.1c7.7-6.4 20.3-7.5 28.8-2.2 9.5 6 13.5 18.4 12.1 29.2z"/>
					<path id="&lt;Compound Path&gt;" class="s0" d="m1164 415.9c0.1-4.2 0.4-13-2.9-16.2-2.8-2.7-3.5 2.5-4.1 4.6-0.9 3-2.3 6.6-2.8 9.5-0.4 2.2 0.8 18.7 4 18 1.7-0.4 7.2-14.3 5.8-15.9zm-3.7 5.8c-0.8 2.2-1.6 4.5-2.6 6.6-0.9-2.4-1.3-5.1-1.6-7.7 0.6 0.6 3.9 1.9 4.2 1.1z"/>
					<path id="&lt;Path&gt;" class="s0" d="m1170.3 402c-1.4-0.8-3.5 2.2-2 3.3 1.3 1 3.6-2.3 2-3.3z"/>
					<path id="&lt;Path&gt;" class="s0" d="m1174.3 413.6c-1.6-0.4-4 0.2-2.2 2.2 1.8 2 4.7-1.5 2.2-2.2z"/>
					<path id="&lt;Path&gt;" class="s0" d="m1168.7 427.1c-1-1.8-3.7 0.7-1.6 2.5 2.2 1.9 2.4-0.9 1.6-2.5z"/>
					<path id="&lt;Path&gt;" class="s0" d="m1145.5 416c0.3-1.3-2.7-2.9-3.5-1.5-1 1.6 3 3.3 3.5 1.5z"/>
					<path id="&lt;Path&gt;" class="s0" d="m1147.3 424.3c-2.5 0-5.2 5.9-1.1 5.5 1.9-0.3 4.6-5.5 1.1-5.5z"/>
					<path id="&lt;Path&gt;" class="s0" d="m1150.6 401.6c-1.2-2.7-3.2-0.7-3 1.2 0.3 3.5 5.1 3.6 3-1.2z"/>
				</g>
			</g>
		</g>
	</g>
</svg>