<svg version="1.2" xmlns="http://www.w3.org/2000/svg" viewBox="611.0197302449467 -36.21113627674101 787.9451847131613 549.2020431312058" width="788" height="550">
	<title>2000601</title>
	<style>
		.s0 { fill: #ffffff } 
	</style>
	<g id="BACKGROUND 1">
		<g id="&lt;Clip Group&gt;">
			<g id="&lt;Group&gt;">
				<path id="&lt;Compound Path&gt;" class="s0" d="m1390.1 88.6c-0.3-2.3-1.5-5.5-4.5-4.7 0.2-2.9 0.5-8-3.7-6.7-2.8 0.8-4.5 4-5.5 6.5-0.9 2.3-4.1 14.6-0.1 15-0.6 3.4-7.8 29.9-0.8 29.4 3.6-0.2 4.7-12.7 5-15.1 0.7-4.6 0.8-10.1 2.4-14.5 0.7-1.9 1.5-3.3 1.8-5.5 0.2-1.8 0-3.8 0.5-5.5 1.2-4.2 2.4-0.2 2.4 2.6 0 2.2-3.1 16.1 0.3 15.4 3.6-0.7 2.6-14.2 2.2-16.9zm-9.7 13.6c-0.6 4.1-0.9 9.1-1.4 12.7-0.5 3.4-0.9 9.7-3.8 12.1-2.8-3-1.7-9.8-1.1-13.5 0.5-2.9 1.2-5.8 1.8-8.7 0.3-1.3 0.3-3.3 0.9-4.6q-0.4-2.1 1.6-1.5 1.3 0 2.7-0.1c-0.3 1.1-0.5 2.4-0.7 3.6z"/>
				<g id="&lt;Group&gt;">
					<path id="&lt;Path&gt;" class="s0" d=""/>
					<path id="&lt;Path&gt;" class="s0" d=""/>
					<path id="&lt;Compound Path&gt;" class="s0" d="m1362.1 88.2c-1.7-5.1-8.8-8-13.1-4.4-1.1-5.4-8.4-10.5-13.3-6-1.4-6.9-7.6-12.1-14.8-10.9-7.6 1.3-10.3 9.1-11.2 15.8-7.9-7.5-21.8 4.5-12.9 12.5 8.2 7.5 23.2 4.1 32.3 4.7 7.2 0.4 38.2 3.7 33-11.7zm-1.1 4.4c-2.7 7.4-16.9 4.7-22.5 4.1-8.3-0.9-17.1-0.7-24.9-1.2q-0.4 0-0.7-0.1c-3.1-0.1-8.3-0.5-11.8-2.2-3.8-1.8-5.5-6.1-1.6-8.9 2.3-1.5 7.5-2.6 9.5 0.1 0.7 1-0.1 3.7 1.4 4 1.6 0.3 1.2-2.3 1.2-2.9q0-0.2 0-0.3c0-5.9 2.8-14.9 10-15.9 3.9-0.6 7.6 1.1 9.9 4.4 0.9 1.3 1.5 2.9 1.9 4.5 0.3 1.5-0.6 4.9 0.1 6.1 1.8 2.8 2.9-3.8 4.2-4.7 2.5-1.7 6.2 0.1 7.8 2.4 1 1.5 0.7 6.3 3 5.8 1.1-0.3 2-2.9 3.6-3.5 1.2-0.5 3.1-0.4 4 0q0.1 0 0.2 0c0 0 1.7 0.8 1.7 0.9q0.1 0 0.2 0.1c2.2 1.2 3.6 4.6 2.8 7.3z"/>
					<path id="&lt;Path&gt;" class="s0" d=""/>
					<path id="&lt;Path&gt;" class="s0" d=""/>
					<path id="&lt;Path&gt;" class="s0" d=""/>
				</g>
				<g id="&lt;Group&gt;">
					<path id="&lt;Path&gt;" class="s0" d="m1183.6 95.4c-2.4-2.5-8.9 0.5-11.3 1.7-0.8 0.4-2.5 1.7-3.3 1.9-0.8 0.1-2.7-0.6-3.4-0.7q-2.8-0.7-5.5-1.4c-6.4-1.7-12.7-3.9-19.1-5.2-3.7-0.7-6.3-0.8-6.1 3.9 0.1 2.9 5.3 4 7.7 5.3 4.4 2.3 8.7 4.7 13.1 6.9q-2.5 1.7-5 3.5c-1.6 1.2-4.2 4.2-6 4.7-1.6 0.5-4.3-0.3-6-0.3-2 0-4.3 0.1-6.2 0.8-2.9 1.2-3.4 4.6 0.1 5.5 2.4 0.6 5.2 0.1 7.6-0.2-1 1.6-6.3 10.6-3.2 12.1 2.3 1.1 5.6-5.6 6.3-7.1 0.6-1.1 0.9-3 1.8-4 1.1-1.3 3.5-1.3 5.3-1.9 4-1.4 7.7-3.6 11.3-5.9 1.1 6.3 2.1 12.8 4 19 0.3 1 0.7 2.1 1.3 3.1 0.4 0.6-0.7 0.7 0.5 1.2 0.5 0.2 1.9-0.4 2.4-0.6 0.4-0.1 2.3-0.4 2.6-0.6 1.4-0.8 1.1-3 1.2-4.6 0.4-6.2 0.2-12.5 0.6-18.8q0.1-2.8 0.5-5.6c0.3-2.5 1.5-2.9 3.4-4.4 1.7-1.3 7.9-5.7 5.4-8.3z"/>
					<path id="&lt;Path&gt;" class="s0" d="m1133.6 125.2c-1.6-0.1-8.4 5.1-4.7 5.9 1.2 0.2 3.1-1.7 3.9-2.3 0.7-0.5 4.1-3.3 0.8-3.6z"/>
					<path id="&lt;Path&gt;" class="s0" d="m1122 132.9c-1.3 0-7.4 3.6-4.3 4.4 0.8 0.2 3.6-1.4 4.2-2 0.7-0.5 2.1-2.4 0.1-2.4z"/>
					<path id="&lt;Path&gt;" class="s0" d="m1109 138.4c-1.2 0-6.9 2.3-3.5 3.3 0.6 0.1 3.5-0.9 3.9-1.4 0.4-0.6 0.9-1.9-0.4-1.9z"/>
					<path id="&lt;Path&gt;" class="s0" d="m1098.3 140.3c-1.8-1.2-9.7 0.6-6.4 3.1 1.7 1.2 9.7-0.8 6.4-3.1z"/>
					<path id="&lt;Path&gt;" class="s0" d="m1084.1 139.5c-1-0.4-2.8-1.4-3.9-0.9-1.4 0.7-1.2 1.9-0.1 2.7 0.6 0.5 3.2 1.2 3.7 1 1.5-0.3 1.6-2.2 0.3-2.8z"/>
					<path id="&lt;Path&gt;" class="s0" d="m1071.4 134c-1.1-0.6-2.1 0.8-1.7 1.8 0.2 0.7 2.2 1.9 2.9 2.1 1 0.2 2.1 0.3 2.2-1 0.2-1.5-2.4-2.5-3.4-2.9z"/>
				</g>
				<g id="&lt;Group&gt;">
					<path id="&lt;Path&gt;" class="s0" d=""/>
					<path id="&lt;Path&gt;" class="s0" d=""/>
				</g>
				<g id="&lt;Group&gt;">
					<path id="&lt;Path&gt;" class="s0" d="m1341.4 154.7q0 0 0-0.1 0 0.1 0 0.1z"/>
					<path id="&lt;Compound Path&gt;" class="s0" d="m1291.3 128.5c1.9 0.6 4.3-0.7 5.4-2.2 0.4-0.4 2.5-7.4 3.8-6.2 0.7 0.7-1 4-1.3 4.8-0.8 2.1-1.8 3.6-1.1 5.9 2.2 7.2 7.2-1.6 9-3.8q0.1-0.1 0.1-0.2c0.2-0.2 1-1.3 1.9-1.2 1.3 0.1 0.3-0.1 0.6 1.5 0.4 2.1-1.4 6 2.5 6.4 1.8 0.2 2.3-1.8 4-2 2.8-0.4 6.8 2.5 9 3.8 3 1.9 5.7 4.2 8.7 6.1 0.6 0.4 3.1 1.3 3.4 1.9 0.2 0.7-1 4.4-0.9 5.5 0.6 7.2 7.3 12.4 14.2 12.8-2.4 9-6.6 22.1 5 26.7-2.6 3.6-5.3 8.1-1.3 11.7 3 2.6 7.1 4.2 10.4 6.4 4.6 3.2 9.1 6.6 14 9.4 3.8 2.3 5.2-0.7 7.3-4 1.4-2.3 2.8-4.6 4-7 0.8-1.5 3.2-5.5 2.8-7.3-0.7-3.2-7.9-6.5-10.5-8.2-4.5-2.9-9.1-5.6-13.5-8.5-1.4-0.9-4.1-3.6-5.6-2.9-1.1 0.5-2.2 3.3-2.9 4.2-0.6 0.8-1.3 1.7-2 2.5-6.1-5.2-5.3-10.9-3.8-18.3 0.2-1 0.3-4.3 1-5.1 0.3-0.4 2.2-0.7 2.9-1 3-1.4 5.2-4 6.3-7.1 2.3-6.4-0.1-14.6-5.1-19-2.3-2.1-5.3-3.3-8.4-3.3-1.7 0-3.3 0.3-4.9 0.9-1 0.3-2.5 1.7-3.4 1.7-1.6 0-5.6-2.6-6.9-3.3-2.9-1.5-5.6-3.3-8.2-5.1-5.4-3.7-10.4-7.7-15.9-11.2-2.7-1.8-5.5-3.4-8.4-4.8-1.9-0.9-5.6-3.2-7.5-2.3-1.2 0.6-2.8 4.6-3.4 5.7-1.5 2.9-2.8 6-3.4 9.2-0.5 2.4-1 6.1 2.1 6.9zm72.6 51.7c4.7 3.7 10.1 6.4 15.2 9.4 2.7 1.6 5.4 3.3 8 5.1 2.5 1.8 4.4 2.2 3.1 5.4-2 5.4-7.3 9.5-9.2 14.9-5.6-3.7-11.2-7.5-16.7-11.3-2.5-1.8-10.5-4.3-10.1-8.2 1-6 7.2-9.9 9.7-15.3zm-70.4-63.7q0-0.2 0.1-0.3c0.6-1.6 1.5-3.8 2.7-5.3 1.4-1.8 1.5-1.7 3.8-0.8 4.9 1.9 9.3 4.6 13.6 7.5 8.1 5.6 15.8 12.1 24.8 16.2 1.2 0.5 3.3 2 4.4 1.9 1.6-0.2 3.6-2.1 5.4-2.5 4.1-1 8.1 0.5 10.8 3.8 5.2 6.2 5.5 18-3.3 21.2 0.1-1.6-0.4-3.3-0.3-4.9 0.2-2.3-0.1-1 1.5-2.9 1.8-2.1 1.9-4.9 0.6-7.3-2.2-4-9.1-7.1-12.9-3.7-2.3 2-2.4 5.2-1.1 7.8 0.8 1.7 2.2 3.2 3.8 4.2 0.9 0.6 3.3 0.8 3.8 1.4 0.8 0.8 0.7 4 0.3 4.9-0.7 1.5-0.4 1.6-2.5 1.4-2.9-0.4-6-2.2-7.5-4.4q-0.1-0.1-0.2-0.2c-2.1-2.5-2.3-6.7-1.5-10.3 0.4-2 0.5-1.8-1.5-3-1.8-1-3.5-2-5.2-3.1-4.5-3-13.4-10.6-19.2-7.9-1.2 0.6-1.3 2.4-2.3 0.3-1.1-2.4 2.5-8.5-3.4-6.9-3.7 1-3.7 6.2-6.8 7.6-1.8 0.8-1.7-2.1-1-3.6 0.3-1 2.5-4.7 2.4-6.9-0.2-3.2-3.4-3.8-5.4-1.4-1.6 1.9-1.3 5.4-3.9 6.5-1.1 0.4-2 0.8-2.2-0.6-0.3-2.9 1.3-6.8 2.2-8.7zm61.7 26.6c1.1 1.6 1.8 3.9 0.5 5.6-2 2.3-2.6-0.5-4.5-1.8-1.2-0.8-4.2-2.1-4.3 0.6-2.5-3-1.3-7 3-6.6 2.2 0.4 3.9 0.3 5.3 2.2z"/>
					<path id="&lt;Path&gt;" class="s0" d=""/>
					<path id="&lt;Path&gt;" class="s0" d=""/>
					<path id="&lt;Path&gt;" class="s0" d="m1375.8 199.2c0.9-0.6 2.1-0.3 2.7-0.6 0.7-0.5 0.4-1.9 1.8-2.3 2.1-0.6 3.2 1.5 3.5 3.3 0.3 2-1.1 4.1-2.2 1.6-0.5-1.2 0.3-1.8-0.7-2.8-0.5 0.9 0.4 1.9-0.1 2.8-1.3 2.1-1.7-0.4-3.2 0.2-1 0.3-1.5 1.2-0.4 2.3 0.7 0.8 5.5 0.7 2.1 2.4-3.8 1.9-7.4-4.9-3.5-6.9z"/>
					<path id="&lt;Path&gt;" class="s0" d="m1371.2 197.3c0.5-1 1.9-5.2 3.6-4.2 1.5 0.8-1 4.4-1.5 5.4-0.5 1.1-1.6 4.2-3.1 3.8-2.2-0.4 0.6-4.2 1-5z"/>
					<path id="&lt;Compound Path&gt;" class="s0" d="m1365.3 198.9c3.4-1.2-1-1.7-1.6-2.5-0.7-1.1 0.1-2.2 1.1-2.5 0.8-0.3 2 0.8 2.7 0.4 1.7-0.7 0-1.6 0.1-2.6 0.4-3.8 1.6 2.7 3 2.2 2.4-0.9-0.9-6.6-3.8-5.3-1.4 0.6-1.3 2.3-2 2.9-1 0.8-2.3 0.4-3.1 1.8-1.2 2.3 0.4 6.8 3.6 5.6z"/>
				</g>
				<g id="&lt;Group&gt;">
					<path id="&lt;Path&gt;" class="s0" d=""/>
				</g>
				<g id="&lt;Group&gt;">
				</g>
				<g id="&lt;Group&gt;">
					<path id="&lt;Path&gt;" class="s0" d=""/>
					<path id="&lt;Path&gt;" class="s0" d=""/>
				</g>
				<g id="&lt;Group&gt;">
					<path id="&lt;Compound Path&gt;" class="s0" d="m793.8 30.1c-0.4-5.1-0.9-10.2-1.3-15.3-0.1-1.9 0.3-6-1-7.5-0.8-0.9-3.8-0.9-5-1-8.6-1.1-17.6 2-25.9 2.9q-0.3 0.1-0.7 0.1c-8 1.3-18.8 1.5-27.9 3.2-4.4 0.8-11.4 1.6-15.1 4.1-3 2-3.5 5.5-3.7 9-0.3 4.6 0.1 21.8 5.3 23.3 2.7 0.9 9.4-2.3 12.1-2.9 5.1-1 10.3-1.8 15.5-2.3-1.1 4.8 0.1 11.2 0.4 16.2q0.4 8 1.2 15.9c0.7 5.9-0.1 21.7 8.4 21.6 2.2-0.1 7.3-0.3 8.5-1.7 1.9-2 0.9-9.1 0.8-11.5-0.4-10.5-2.8-21.4-4-31.4-0.4-3 0.1-7.7-1.1-10.4 8.2-0.6 16.5-0.9 24.6-2 1.4-0.2 2.8-0.7 4.2-0.8-0.2 0 3.3-0.5 2.8-0.3 3.7-1.5 2.2-5.9 1.9-9.3zm-32.9 39.1c0.4 4 0.8 8 0.9 12 0.1 3 0.9 8.1-0.2 10.9-0.9 2.2-1 1.7-3.9 1.9-0.7 0.1-2.2 0.5-2.8 0.2-1.3-0.7-1.4-3.2-1.7-4.3-1.6-7.4-2.4-15.1-3-22.7q-0.5-5.8-0.8-11.5c-0.1-3.3 0.9-9.3-0.4-12.3q4.5-0.4 9.1-0.8c-0.9 3.5 0.7 9 1.1 12.4 0.6 4.7 1.2 9.4 1.7 14.2zm27.7-33.6c-10.7-1.3-22.5 1.2-33.1 2.8-11.8 1.7-23.6 4-35.2 7.3-0.7-7.4-4.3-14.6-3.3-22.1 0.5-3.9 1.7-4.3 5.4-5.3 3.4-1 7.2-1.8 10.5-2.2q0.3 0 0.5 0c7.9-1.2 17.4-1 26-1.7 9.8-0.7 19.4-3 29.2-4.1 0.4 8.5-0.4 17 0.8 25.4q-0.4-0.1-0.8-0.1z"/>
					<path id="&lt;Path&gt;" class="s0" d=""/>
					<path id="&lt;Path&gt;" class="s0" d=""/>
					<path id="&lt;Path&gt;" class="s0" d="m729.3 25.5c0-2.6-2.2-0.9-2.8 0-0.6 0.8-0.1 8.1 0.6 8.8 4.2 4.1 2.3-6.9 2.2-8.8z"/>
					<path id="&lt;Compound Path&gt;" class="s0" d="m740.6 26.6c-4-7.1-10.1 3.4-7.4 6.7 3.9 4.7 10.2-2 7.4-6.7zm-2.5 4.2c-1.1 2.1-3.1 1.3-3.4-0.4-1-4.6 4.6-3.2 3.4 0.4z"/>
					<path id="&lt;Compound Path&gt;" class="s0" d="m752.6 23.4c-4.3-3.4-10.8 4.4-6.9 8.5 5.2 5.4 12.6-3.8 6.9-8.5zm-1.5 5.1c-0.4 2.3-3.4 2.5-4.1 0.4-1.1-3.4 4.4-4.9 4.1-0.4z"/>
					<path id="&lt;Path&gt;" class="s0" d="m769.4 27.7c-1-0.4-1.9-0.5-2.9-0.4 0.5-0.8 4.2-3.7 3.6-5.1-1.1-2.5-4.8 3.3-5.2 4-0.1-1.3 0.3-7.6-2.9-5-1.3 1.1-0.7 6.2-0.5 7.8 0.2 1.5 0.3 4.7 2.3 4.8 2.1 0 1.7-2.4 1.5-3.8 0.9 0.3 1.9-0.2 2.9 0.1 0.7 0.3 1.1 1.6 1.7 1.8 3.9 1.1 2.2-3-0.5-4.2z"/>
					<path id="&lt;Path&gt;" class="s0" d="m782.6 22.9c-0.2-3.9-4.7 3.1-4.9 3.4-2.7-2.6-6.9-6.4-5.5 1 0.2 1.1 0.9 5.1 2.8 4.6 1.8-0.5 0.4-3.3 0.2-4.5 2.9 2.5 3.6 1.9 5.2-1.4 0.1 1.1 0.1 9.3 2.7 7.5 1.3-0.9-0.4-9.1-0.5-10.6z"/>
				</g>
				<g id="&lt;Group&gt;">
					<path id="&lt;Path&gt;" class="s0" d=""/>
					<path id="&lt;Path&gt;" class="s0" d=""/>
					<path id="&lt;Path&gt;" class="s0" d=""/>
					<path id="&lt;Path&gt;" class="s0" d=""/>
					<path id="&lt;Path&gt;" class="s0" d=""/>
					<path id="&lt;Path&gt;" class="s0" d=""/>
				</g>
				<g id="&lt;Group&gt;">
					<path id="&lt;Path&gt;" class="s0" d="m1114.7 65.6c-1.3 0.7 1.1 2.7-0.6 3.1-1 0.3-1.2-0.8-1.7-1.2-1.4-1.2 0.4-1.2-1.6-0.8-1.1 0.2-0.5 1.7-1.3 0.7-0.7-0.6 1.3-1.8-0.1-2.4-0.6-0.3-1.2 1-2 0.7-1.5-0.8-0.1-1.4 0.3-1.9 0.2-0.4 2.3-0.2 0.9-1.3-0.9-0.7-2.6 0.6-3 1.4-1 2.4 1.7 2.5 2.5 3.3 0.4 0.4 0.1 1.4 0.8 1.8 0.8 0.5 1.5-0.4 2.1-0.3 1.3 0.2 3 2.8 4.8 0.6 0.5-0.6 0.7-4.7-1.1-3.7z"/>
					<path id="&lt;Path&gt;" class="s0" d="m1105.9 51.8c0.9 0.1 2.3-10.3 0.6-10.5-1.5-0.1-1.7 10.5-0.6 10.5z"/>
					<path id="&lt;Path&gt;" class="s0" d="m1117.5 53.9c0.8 0.2 5.3-7.9 4.4-8.8-1.4-1.2-6.1 8.2-4.4 8.8z"/>
					<path id="&lt;Path&gt;" class="s0" d="m1134.9 54.1c1.5-1 0-2-1.1-2-1.2 0-5.2 2.8-6 3.7-1.2 1.5-0.8 2.3 1.2 1.8 1.6-0.4 4.5-2.5 5.9-3.5z"/>
					<path id="&lt;Path&gt;" class="s0" d="m1139.8 63.1c-0.5-2-9.9 0.9-9.1 2.6 0.4 1.1 9.4-1.3 9.1-2.6z"/>
					<path id="&lt;Compound Path&gt;" class="s0" d="m1126.8 69.1c-1.3-4.9-6.5-7.7-10.9-9.6-4.1-1.8-12.9-5.4-16.8-1.3-3.1 3.3-2.3 10.9-2.4 15 0 3.4 0.5 5.6-1.2 8.4-1.8 2.9-3.6 5.7-5.3 8.5-2 3.4-16.9 29.9-6.9 29.7 4.7-0.2 8.9-7.9 11.1-11.2 3.6-5.4 6.8-11 9.9-16.7 1.1-2.1 2.1-5.3 3.6-7 1.2-1.3 3.4-2.2 4.9-3 3.3-2 15.3-7.7 14-12.8zm-28.9 23.2c-1.5 2.9-2.8 5.8-4.4 8.7-0.4 0.7-2.7 5.3-3.8 4.9-1.4-0.6 0-4.9 0.2-5.7 1.1-3.4 3.1-8.6 6.3-10.4 2.7-1.6 2.7 0.2 1.7 2.5zm27.2-22.4c-0.7 1.9-8.4 2.3-9.5 2.5-6.5 0.2-11.7-1.6-14.7-7.8-1.6-3.4-1.8-6.2 3.1-6.3 4-0.2 8.3 1.5 11.9 3.2 1.9 0.9 10.3 5.1 9.2 8.4z"/>
				</g>
				<g id="&lt;Group&gt;">
					<path id="&lt;Compound Path&gt;" class="s0" d="m1296.7-14c2.3-5.4-22-7.4-24.3-7.8-10.4-2-20-7.1-30.5-9-3.3-0.5-9.6-1.8-12.5 0.2-3.6 2.3-5.1 9-6.2 12.9-1 3.5-3.9 11.4-2.6 15 0.8 2.4 6.4 3.1 9.3 3.5-1.8 6.4 3.9 12.2 10 12.8 2.9 0.3 6-0.6 8.1-2.6 1-0.9 1.5-2.2 2.4-3.1 1.7-1.5 0.5 0 2.7-0.9 0 5.9 7.8 8.3 12.3 5.6 0.3-0.1 1.7-1.5 1.9-1.5 1.1-0.2 3.6 1.3 4.7 1.7 3.8 1.2 7.7 2.4 11.6 2.7 6.3 0.5 7.6-3 9.6-8.5 2-5.3 6.6-15.5 3.5-21zm-2.4 9.6c-1.2 3.9-2.7 7.7-4.3 11.4-0.6 1.3-1.3 4.5-2.2 5.3-1.4 1.3 0.5 0.2-1.9 0.8-5.4 1.3-12.7-1.5-17.8-3.3 1.6-2.8 0.9-7.2-1.6-9.3 2.8-2 5.7-6.6 4-10.2-1.2-2.5-4.9-4.2-7.3-5.1-7-2.6-18.6 0.5-14.9 10.2-3.8-4.3-9.6-5.9-14.2-1.6-0.7 0.7-2.2 3.8-3.1 4.4-1.2 0.9-1.4 0.7-3 0.4-1.7-0.3-3.5-0.5-5.2-1 2.9-7.7 1.5-16.5 5.3-24 1.9-3.8 3.3-3.9 7.5-3.7 5.5 0.2 10.9 2.1 16.1 4 10 3.6 19.1 7 29.7 8.7 3.4 0.5 10.5 0.9 13.1 3.4 2.2 2.2 0.5 7.1-0.2 9.6zm-50-1.7c1.6 1 3.3 2.9 3.9 4.2q0 0.1 0.1 0.2c0.7 1.3 1.3 3.6 1.2 5.1q0 0.1 0 0.2c0 1.2-0.2 2.2-2.1 1.6-1.5-0.4-0.8-1.2-1.5-3.1 0.8-0.1 4.6-0.7 2.6-2.1-2.1-1.5-2.3 1.6-4.4-1.4 0.7-0.3 3.8-1.7 1.8-2.3-0.6-0.2-1.4 1-2 0.9-1.3-0.2-1.3-0.6-2.7-1.5 0.7-0.7 2.2-2.3 3.1-1.8zm6.4-5.3c1.5-2.2 4.7-3.4 7-3.1q0.1 0 0.2 0c2.6 0 6.1 1.1 8.3 2.5q0 0.1 0.1 0.1c2.3 1.4 3.4 3.2 2.7 6.2-0.3 1.4-1.5 3.8-2.8 4.5-1.8 1.1-1.5 0.2-3.8-0.1-3.3-0.3-4.9 2.2-7.9 0.6-3.8-2.1-6.1-6.6-3.8-10.7zm12.7 14.8q-0.4-0.3-0.8-0.7c1.8-1.1 1.4-1.6 3-0.1q-1.1 0.3-2.2 0.8zm-2.4 8.9c-9.7-0.6-5.9-13.6 0.3-8.9 0.9 0.7 2.1 1.2 2.8 2.5 1.2 2.5 0.5 6.4-3.1 6.4zm-25.8-2c-3.3-2-5-5.6-4-9.5 0.8-3.3 3.8-6.7 7.3-5.5q0.1 0 0.1 0c0.4 0.1 1.6 0.8 1.9 1 1.3 0.8 1.2 1.8 1.7 2.4 1.1 1.3 2.4 2.2 3 4.3 0.6 1.9 0.9 4.2 0 6.1-1.9 4-6.7 3.1-10 1.2zm11.6-0.6q-0.8 0.5-1.6 1.1c1.6-2.2 0.2-3.8 3.3-3.6q-0.7 1.4-1.7 2.5zm6.5-4.1c-1.4-1.1-1.2-0.2-1.9-1.5-0.7-1.4-0.3-3.9-1-5.4 1.4 1.5 3.2 2.5 5.3 2.6-1.2 1.1-2.1 2.7-2.4 4.3zm6.4-4.3q-0.8-0.2-1.5 0c1.6-1.1 2.7-1.1 4.4-0.5q-1.3 1.5-2.9 0.5zm5.8 9.2q-0.3 0.3-0.6 0.5c0.8-1.2 0.9-2.6 0.6-4 1.4-0.1 1.6-0.1 1.5-1.2q-0.3-0.2-0.5-0.2-1.8 0.8-2.2-1.1c1.7-0.8 1.8-1.3 2.7 0.2 1.2 1.8-0.2 4.6-1.5 5.8zm-28-17.3c1.5-0.8 3.1-0.8 4.7-0.2-1.1 0.6-1.9 1.5-2.9 1.7-0.9 0.2-2.3-0.6-3.4-0.4q0.8-0.6 1.6-1.1z"/>
					<path id="&lt;Path&gt;" class="s0" d=""/>
					<path id="&lt;Path&gt;" class="s0" d=""/>
					<path id="&lt;Path&gt;" class="s0" d=""/>
					<path id="&lt;Path&gt;" class="s0" d="m1284-13.8c-1.8-0.2-2.2 6.9-0.5 7 1.9 0.1 2.1-6.7 0.5-7z"/>
					<path id="&lt;Compound Path&gt;" class="s0" d="m1292.1-10.6c-1.7-3.2-7.1 0.5-6.1 3.7 1.5 4.5 8.7 1 6.1-3.7zm-1.7 2.7c-0.6 1.9-3.1 1.5-3.1-0.5 0.1-2.7 4-3 3.1 0.5z"/>
					<path id="&lt;Path&gt;" class="s0" d="m1231.5-26.2c-2.2-0.4-2.7 7-0.9 7.1 1.7 0.1 2.5-6.9 0.9-7.1z"/>
					<path id="&lt;Compound Path&gt;" class="s0" d="m1239.3-23.9c-2.9-0.4-8.4 2.5-5.5 5.8 4.5 5.1 9.7-5.1 5.5-5.8zm-0.5 3.4c-0.6 1.5-3.9 2.4-4.1 0.3-0.2-1.7 4.9-3.8 4.1-0.3z"/>
					<path id="&lt;Path&gt;" class="s0" d=""/>
					<path id="&lt;Path&gt;" class="s0" d="m1257.9-14.5q-0.2 0 0 0 0 0 0 0z"/>
					<path id="&lt;Compound Path&gt;" class="s0" d="m1256.1-3.4c-1.3 2.5 3.6 1.3 4.7 0.6 1.5-1 1.6-2.4 1.7-4.1 0.2-2.5-2.1-0.4-0.1-3.5 1.2 1.7 0.8 2.2 1.2 0.2-0.1 0.4-0.3-3-0.1-2.8-0.7-0.8-1.1 0.9-1.5 0.8-1.8-0.2-3-1.5-4.2 1.1-0.7 1.3-0.5 2.8 1.1 3.3q-0.9 1.3-1.8 2.6c-1.2-3.4-2.3 0-1 1.8zm2.7-6.1c-1.1-1.4 1.5-2.7 2.6-1.8-0.6 0.8-1.4 2.9-2.6 1.8zm1.2 2.9c0.2-0.4-0.4 0.6 0.4-0.7 1.5 0.6-0.6 3.4-1.9 3.3 0.5-0.9 1-1.9 1.5-2.6z"/>
					<path id="&lt;Path&gt;" class="s0" d=""/>
					<path id="&lt;Path&gt;" class="s0" d=""/>
				</g>
				<g id="&lt;Group&gt;">
					<path id="&lt;Path&gt;" class="s0" d=""/>
					<path id="&lt;Path&gt;" class="s0" d=""/>
					<path id="&lt;Path&gt;" class="s0" d=""/>
					<path id="&lt;Path&gt;" class="s0" d=""/>
					<path id="&lt;Path&gt;" class="s0" d=""/>
					<path id="&lt;Path&gt;" class="s0" d=""/>
				</g>
				<g id="&lt;Group&gt;">
					<path id="&lt;Path&gt;" class="s0" d="m1367.9 12.5c1.4-5.5-9.7-10.1-13.9-9.2-2 0.5-1.1 1-2.2 2.3-1.3 1.6-3 2.2-4.5 3.5-1.3 1.1-3 3.4-2.5 5.2 0.5 2 3.2 2.4 3.8 4.5 0.5 1.6-0.6 2.7 0.4 4.4 0.9 1.4 2.8 1.8 3.7 3.1 1.4 2.4 2.9 6.4 6.2 6.5 2.7 0 3.2-2.3 3.6-4.5 0.6-3 0.5-6.5 1.6-9.4 0.9-2.3 3.2-4 3.8-6.4z"/>
					<path id="&lt;Compound Path&gt;" class="s0" d="m1394 1.7c-0.7-2.5 2-4.3 1.4-6.4-0.8-2.8-2.6-0.4-3.3 1.1-5.4-13.3-16.7-20.8-30.8-22.1q0.4-0.6 1.1-1c0.1 2.5 4.2-2.8-0.6-2.9-1.7 0-1.3 0.9-1.8 1.5-1.4 1.6-1.4 1.9-3.9 2.4-8.9 1.7-16.1 5.2-22.2 12.1-6 6.8-9.9 15.8-10.4 24.8-0.1 2.2 0 4.5 0.4 6.7 0.3 2 1.5 4.5 1.1 6.4-0.2 1.2-2.3 2.7-1.1 4 1.2 1.2 2-0.8 2.5-1.6 7.8 19.1 28.5 23 46.6 17.1 8.2-2.6 16-7.5 20.1-15.2 4.4-8.3 3.3-18.2 0.9-26.9zm-1.5 20.3c-6.4 24.2-47.9 29.1-60.8 8 4.8 3.7 3.4-14.2 5.7-16.5q-0.1 0.2-0.1 0.1c3.6-3.2 1.5-7.7-3.1-7.5-1.6 0.1-4.6 1.6-6 0.9-1.5-0.7-0.8-1.5-0.5-3.3 0.6 1.1 6.3-1.8 6.8-2.2 1.4-1 1.5-1.3 2.3-2.7 1.9-3.4 8-11.1 0.9-12.4 0.8 0.1 1-1.1 1.3-1.5 1.3-1.3 1.1-0.9 2.9-1 3.2-0.2 6.7 0.9 10 0.8 2 0 17.4-1.9 15.4-6.3 0.8 0.6 2.6 0.7 3.5 1-2.7 0.1-3.4 2.9-4.7 4.6-2.2 2.8-4.2 3.1-7.6 3.2-1.2 0-4.1-0.3-5.1 0.2-2.3 1.1-5.2 6.6-5.1 9.1 0.1 4.1 3.6 4.7 5.7 2 1.3-1.6 1.4-5.2 3.2-6.4 3.4-2.2-0.6 5.8-0.4 6.8 1.6 7.2 9.3-2.9 12.3-0.4 1.9 1.7 0.6 9.1 0.6 11.7-0.1 2.1-0.6 5.2 1.5 6.5 2 1.2 4-0.3 4.8-2.1 1-1.9 0-4.5 2.2-6 1.8-1.2 1.9-0.2 2.5 2 0.7 0.8 3.9 15.6 8.3 7.2 1.7-3.2-1.7-6-1.7-9.1 0-3 2.2-3.3 4.5-4.1 1.3 5.6 2 11.7 0.7 17.4z"/>
					<path id="&lt;Path&gt;" class="s0" d="m1368.4-30.6c0.8-0.5 3.7-2.8 4.5-2.3-1.1 1.7 0.5 2.4 1.6 0.9 1.3-1.8-1.3-3.9-3.2-3.7-1.6 0.1-0.8 0.7-1.7 1.6-0.7 0.7-2.6 1-2.9 2.1-0.2 0.9 0.4 2.3 1.7 1.4z"/>
					<path id="&lt;Path&gt;" class="s0" d=""/>
					<path id="&lt;Path&gt;" class="s0" d="m1378.3-33c0.6-0.1 2.1-0.3 2.7-0.3q0.1 0 0.2 0c0.4-0.1 3.2 0.9 3.4 0.6 0.9-1.1 0.2-2.5-0.9-3.1-1.8-1.1-1.2 0.2-2.2 0.4-0.6 0-3.8 0-4.2 0.8-0.3 0.7-0.1 1.9 1 1.6z"/>
					<path id="&lt;Path&gt;" class="s0" d="m1389.1-27.6c1.4 0.6 2.4 1.8 3.2 3.1-3.9-1.3-0.6 3.3 2.1 1.3 1.4-1 0.7-4.4-0.2-3.1-0.6-1.1-3-3.9-4.4-3.7-1.1 0.2-2.5 1.6-0.7 2.4z"/>
					<path id="&lt;Path&gt;" class="s0" d="m1372.4 32.5c-1.5-0.1-5.7 5-5.7 6.2 0.1 4.3 5.4 1.5 2.3 0.9 0.8-0.6 6.1-6.8 3.4-7.1z"/>
					<path id="&lt;Path&gt;" class="s0" d="m1359.1 49.1c-1-0.1-3.1 2.5-3.7 3.1 0.4-3.5-1.9-1.7-1.6 0.5 0.2 1.2 2.2 3 3.6 2 0.7-0.4 1.3-1.7-0.1-1.7 0.3-0.4 3.7-3.7 1.8-3.9z"/>
					<path id="&lt;Path&gt;" class="s0" d="m1343.2 57q-1 0.1-1.9 0.4c1.5-1.3-3.7-1.4-2.6 1.8 0.8 2.5 3.7 1.4 1.9 0.1 0.3-0.1 3-0.4 3.2-1 0.1-0.5 0.2-1.3-0.6-1.3z"/>
					<path id="&lt;Path&gt;" class="s0" d="m1329.2 53.4q-0.7-0.3-1.4-0.5c2.9-0.3-0.8-3-2.6-1-1.9 2 2.3 7.3 1.5 2.3 2.1 1.4 3.9-0.4 2.5-0.8z"/>
					<path id="&lt;Path&gt;" class="s0" d="m1398.6-14.6c-0.7-1-1.7 0.4-2.3 0.6 0.6-4.2-1.3-6.2-2.1-0.9-0.8-1.2-2.4 1-0.2 2.5 1.4 0.9 6.2-0.1 4.6-2.2z"/>
					<path id="&lt;Path&gt;" class="s0" d="m1381.4 22.8q-0.3 0.1-0.5 0.2c2.1-2.7 0.6-6.2-1.7-2.5-0.8-2.3-3.9 2.5-1.5 4.5 1 0.9 3.7 0.9 4.6-0.2 0.7-0.7 0.9-2.8-0.9-2z"/>
					<path id="&lt;Path&gt;" class="s0" d="m1323.7 31.8c-1-1.5-4.6-1.9-5.2 0.4-0.4 1.8 1.1 1.2 2 0.5-0.3 1-2.1 4.6-0.2 4.8 1 0.1 2.1-3.6 2.1-4.4 0.9 1.3 2.2 0.1 1.3-1.3z"/>
					<path id="&lt;Path&gt;" class="s0" d="m1322.2 43.1c1.5-1.2-1.9-3.4-3.5-2-1.9 1.6 0 4.1 0.5 2.7 0.2 1.1 0.7 4.1 2.1 4.1 2 0 0.1-4-0.1-4.7q0.5 0.2 1-0.1z"/>
				</g>
				<path id="&lt;Compound Path&gt;" class="s0" d="m777.2 87.3c3.4 0.6 0.3-13.2 0.3-15.4 0-2.8 1.2-6.8 2.4-2.6 0.5 1.7 0.3 3.7 0.6 5.4 0.2 2.2 1.1 3.7 1.7 5.6 1.6 4.4 1.7 9.8 2.4 14.5 0.4 2.3 1.4 14.8 5 15.1 7 0.4-0.2-26-0.8-29.4 4-0.5 0.8-12.8-0.1-15.1-1-2.5-2.7-5.6-5.5-6.5-4.2-1.3-3.9 3.9-3.6 6.7-3-0.8-4.3 2.5-4.6 4.8-0.4 2.7-1.4 16.1 2.2 16.9zm6.8-7q1.4 0.2 2.8 0.2 1.9-0.7 1.5 1.5c0.6 1.2 0.6 3.2 0.9 4.6 0.6 2.9 1.3 5.8 1.8 8.7 0.6 3.6 1.7 10.5-1.1 13.4-2.9-2.3-3.3-8.6-3.8-12-0.5-3.6-0.8-8.7-1.4-12.8-0.2-1.2-0.4-2.4-0.7-3.6z"/>
				<g id="&lt;Group&gt;">
					<path id="&lt;Path&gt;" class="s0" d=""/>
					<path id="&lt;Path&gt;" class="s0" d=""/>
					<path id="&lt;Compound Path&gt;" class="s0" d="m878 118.9c9.1-0.6 24.1 2.7 32.3-4.8 8.9-8-5-19.9-12.9-12.5-0.9-6.7-3.6-14.4-11.2-15.7-7.2-1.3-13.4 4-14.8 10.9-4.9-4.6-12.2 0.5-13.3 5.9-4.3-3.5-11.4-0.6-13.1 4.4-5.2 15.4 25.8 12.2 33 11.8zm-29.1-14.7q0.1 0 0.2-0.1c0 0 1.7-0.8 1.7-0.8q0.1-0.1 0.2-0.1c0.9-0.3 2.8-0.4 4 0 1.6 0.6 2.5 3.2 3.6 3.5 2.3 0.5 2-4.3 3-5.8 1.6-2.2 5.2-4.1 7.8-2.3 1.3 0.8 2.4 7.4 4.2 4.6 0.7-1.1-0.2-4.6 0.1-6.1 0.4-1.6 1-3.1 1.9-4.5 2.3-3.2 6-5 9.9-4.4 7.2 1.1 10 10.1 10 15.9q0 0.1 0 0.3c0 0.6-0.4 3.3 1.2 2.9 1.5-0.2 0.7-3 1.4-3.9 1.9-2.7 7.2-1.7 9.5-0.1 3.9 2.8 2.2 7-1.6 8.8-3.5 1.7-8.7 2.2-11.8 2.3q-0.4 0-0.7 0c-7.8 0.5-16.6 0.3-24.9 1.2-5.6 0.7-19.8 3.4-22.5-4.1-0.8-2.7 0.6-6 2.8-7.3z"/>
					<path id="&lt;Path&gt;" class="s0" d=""/>
					<path id="&lt;Path&gt;" class="s0" d=""/>
					<path id="&lt;Path&gt;" class="s0" d=""/>
				</g>
				<g id="&lt;Group&gt;">
					<path id="&lt;Path&gt;" class="s0" d="m684.2 134.6q0 0 0 0 0 0 0 0z"/>
					<path id="&lt;Compound Path&gt;" class="s0" d="m736.5 101.6c-0.7-3.2-2-6.4-3.5-9.3-0.5-1.1-2.1-5.1-3.3-5.6-2-0.9-5.7 1.4-7.6 2.3-2.9 1.3-5.7 3-8.4 4.7-5.4 3.5-10.5 7.6-15.8 11.2-2.7 1.9-5.4 3.6-8.2 5.1-1.4 0.8-5.3 3.4-6.9 3.3-1 0-2.5-1.3-3.5-1.7-1.5-0.5-3.2-0.9-4.8-0.9-3.2 0-6.1 1.3-8.5 3.3-5 4.5-7.4 12.6-5.1 19 1.2 3.2 3.4 5.7 6.4 7.2 0.6 0.3 2.5 0.5 2.9 1 0.7 0.7 0.8 4 1 5.1 1.4 7.3 2.2 13-3.9 18.2-0.6-0.8-1.4-1.6-2-2.4-0.7-1-1.7-3.8-2.8-4.2-1.6-0.7-4.3 2-5.6 2.8-4.5 3-9.1 5.6-13.6 8.5-2.6 1.7-9.8 5.1-10.5 8.2-0.4 1.9 2 5.8 2.8 7.4 1.2 2.4 2.6 4.7 4 6.9 2.1 3.4 3.5 6.4 7.4 4.1 4.8-2.8 9.4-6.2 13.9-9.4 3.3-2.3 7.4-3.9 10.4-6.5 4-3.5 1.4-8-1.2-11.7 11.5-4.5 7.4-17.7 4.9-26.6 7-0.4 13.7-5.7 14.3-12.9 0.1-1.1-1.2-4.7-0.9-5.4 0.3-0.7 2.8-1.6 3.4-2 2.9-1.9 5.7-4.1 8.7-6 2.2-1.4 6.2-4.2 9-3.9 1.6 0.2 2.1 2.2 4 2 3.8-0.4 2-4.3 2.4-6.4 0.3-1.6-0.6-1.4 0.6-1.5 0.9 0 1.8 1.1 1.9 1.2q0.1 0.1 0.2 0.2c1.7 2.3 6.8 11.1 8.9 3.9 0.7-2.3-0.2-3.9-1.1-6-0.3-0.7-2-4-1.2-4.7 1.2-1.2 3.4 5.8 3.7 6.2 1.1 1.4 3.6 2.7 5.4 2.2 3.1-0.8 2.7-4.5 2.2-6.9zm-65.1 73.9c0.4 3.9-7.5 6.4-10.1 8.2-5.5 3.8-11 7.6-16.6 11.2-2-5.4-7.3-9.4-9.2-14.9-1.3-3.1 0.5-3.6 3.1-5.4 2.5-1.8 5.2-3.4 7.9-5 5.1-3 10.6-5.7 15.3-9.4 2.4 5.4 8.6 9.2 9.6 15.3zm62.9-70.3c-0.2 1.3-1 1-2.2 0.5-2.5-1-2.2-4.6-3.8-6.5-2-2.4-5.2-1.8-5.5 1.5-0.1 2.1 2.1 5.8 2.5 6.9 0.6 1.5 0.8 4.4-1.1 3.5-3.1-1.3-3.1-6.5-6.7-7.5-6-1.7-2.3 4.5-3.4 6.8-1.1 2.2-1.2 0.4-2.4-0.2-5.8-2.7-14.7 4.9-19.2 7.9-1.7 1.1-3.4 2-5.1 3-2.1 1.3-2 1.1-1.6 3.1 0.8 3.6 0.6 7.8-1.4 10.2q-0.1 0.2-0.2 0.3c-1.6 2.1-4.7 3.9-7.5 4.3-2.1 0.3-1.9 0.2-2.6-1.4-0.4-0.9-0.4-4.1 0.3-4.9 0.5-0.5 2.9-0.8 3.9-1.4 1.6-1 3-2.4 3.8-4.1 1.3-2.6 1.1-5.8-1.1-7.9-3.8-3.4-10.8-0.3-12.9 3.7-1.3 2.4-1.3 5.2 0.5 7.4 1.6 1.9 1.3 0.5 1.5 2.9 0.1 1.5-0.4 3.2-0.3 4.8-8.7-3.1-8.4-15-3.3-21.2 2.7-3.2 6.7-4.7 10.8-3.8 1.8 0.4 3.9 2.4 5.5 2.5 1.1 0.1 3.2-1.3 4.3-1.8 9.1-4.1 16.7-10.6 24.9-16.2 4.2-2.9 8.7-5.7 13.5-7.5 2.3-0.9 2.4-1 3.9 0.8 1.1 1.4 2 3.7 2.6 5.2q0.1 0.2 0.2 0.3c0.8 2 2.4 5.9 2.1 8.8zm-58.5 15.7c4.3-0.5 5.5 3.6 2.9 6.6 0-2.7-3-1.5-4.3-0.6-1.8 1.2-2.5 4.1-4.4 1.7-1.4-1.6-0.7-3.9 0.4-5.5 1.4-1.9 3.1-1.8 5.4-2.2z"/>
					<path id="&lt;Path&gt;" class="s0" d=""/>
					<path id="&lt;Path&gt;" class="s0" d=""/>
					<path id="&lt;Path&gt;" class="s0" d="m649.9 179.1c-1-0.5-2.2-0.2-2.8-0.6-0.7-0.5-0.4-1.9-1.8-2.2-2-0.6-3.2 1.5-3.4 3.2-0.4 2.1 1 4.2 2.1 1.6 0.5-1.1-0.3-1.8 0.7-2.8 0.5 0.9-0.3 2 0.1 2.8 1.3 2.2 1.7-0.3 3.2 0.2 1 0.4 1.5 1.3 0.4 2.4-0.7 0.7-5.5 0.7-2 2.4 3.7 1.8 7.3-4.9 3.5-7z"/>
					<path id="&lt;Path&gt;" class="s0" d="m654.4 177.2c-0.5-1-1.9-5.1-3.6-4.2-1.5 0.9 1 4.5 1.5 5.5 0.6 1.1 1.6 4.1 3.2 3.8 2.1-0.5-0.7-4.3-1.1-5.1z"/>
					<path id="&lt;Compound Path&gt;" class="s0" d="m663.9 173.3c-0.8-1.4-2.1-1-3-1.8-0.7-0.6-0.6-2.3-2-3-3-1.3-6.2 4.4-3.9 5.3 1.4 0.6 2.6-5.9 3-2.2 0.1 1-1.6 2 0.1 2.7 0.8 0.3 1.9-0.8 2.7-0.5 1.1 0.4 1.8 1.5 1.1 2.5-0.5 0.9-4.9 1.4-1.6 2.6 3.2 1.1 4.9-3.4 3.6-5.6z"/>
				</g>
				<g id="&lt;Group&gt;">
					<path id="&lt;Path&gt;" class="s0" d="m664.4 41.3c-1.5-5.5 9.7-10.1 13.8-9.2 2.1 0.5 1.1 1 2.2 2.3 1.4 1.6 3.1 2.1 4.6 3.5 1.2 1.1 2.9 3.4 2.5 5.2-0.6 2-3.3 2.3-3.9 4.4-0.5 1.6 0.7 2.8-0.3 4.4-0.9 1.5-2.9 1.8-3.8 3.2-1.3 2.3-2.9 6.4-6.2 6.4-2.7 0.1-3.2-2.2-3.6-4.4-0.5-3.1-0.4-6.5-1.6-9.4-0.9-2.3-3.1-4-3.7-6.4z"/>
					<path id="&lt;Compound Path&gt;" class="s0" d="m639.1 57.4c4.1 7.7 12 12.6 20.1 15.2 18.1 5.8 38.8 2 46.6-17.1 0.5 0.8 1.3 2.8 2.5 1.6 1.3-1.3-0.8-2.8-1.1-4-0.4-1.9 0.9-4.4 1.2-6.4 0.3-2.2 0.4-4.5 0.3-6.7-0.4-9-4.4-18-10.3-24.8-6.1-6.9-13.4-10.4-22.3-12.1-2.5-0.5-2.5-0.8-3.8-2.4-0.6-0.6-0.2-1.5-1.8-1.5-4.8 0-0.8 5.3-0.7 2.8q0.7 0.5 1.2 1.1c-14.2 1.3-25.4 8.8-30.9 22-0.7-1.5-2.5-3.8-3.3-1-0.5 2.1 2.2 3.9 1.5 6.3-2.5 8.7-3.6 18.7 0.8 27zm1.3-24.1c2.3 0.9 4.5 1.1 4.5 4.1 0.1 3.1-3.4 5.9-1.6 9.2 4.4 8.3 7.6-6.4 8.2-7.2 0.6-2.3 0.7-3.2 2.6-2 2.1 1.4 1.2 4 2.1 6 0.8 1.8 2.9 3.3 4.9 2.1 2-1.3 1.5-4.4 1.5-6.5 0-2.6-1.3-10 0.6-11.7 2.9-2.5 10.6 7.6 12.2 0.4 0.3-1-3.8-9-0.3-6.8 1.7 1.1 1.9 4.7 3.1 6.3 2.1 2.7 5.6 2.2 5.7-1.9 0.1-2.5-2.8-8.1-5.1-9.2-0.9-0.4-3.8-0.1-5.1-0.2-3.3 0-5.4-0.4-7.5-3.1-1.3-1.7-2.1-4.5-4.8-4.6 0.9-0.3 2.7-0.5 3.6-1-2.1 4.4 13.4 6.3 15.4 6.3 3.3 0 6.7-1 10-0.9 1.7 0.1 1.5-0.2 2.8 1.1 0.4 0.3 0.6 1.6 1.3 1.5-7 1.3-1 8.9 1 12.4 0.7 1.3 0.9 1.7 2.2 2.6 0.6 0.4 6.3 3.3 6.8 2.2 0.4 1.9 1.1 2.6-0.4 3.4-1.5 0.6-4.5-0.9-6-1-4.6-0.2-6.8 4.4-3.1 7.5q-0.1 0.1-0.2-0.1c2.3 2.4 0.9 20.3 5.7 16.6-12.9 21-54.4 16.2-60.7-8-1.4-5.7-0.7-11.8 0.6-17.5z"/>
					<path id="&lt;Path&gt;" class="s0" d="m663.9-1.8c-0.8-0.6-3.7-2.9-4.5-2.3 1 1.7-0.6 2.4-1.7 0.9-1.3-1.8 1.3-3.9 3.2-3.8 1.7 0.1 0.8 0.8 1.7 1.7 0.8 0.7 2.6 1 2.9 2.1 0.2 0.9-0.4 2.3-1.6 1.4z"/>
					<path id="&lt;Path&gt;" class="s0" d=""/>
					<path id="&lt;Path&gt;" class="s0" d="m654-4.2c-0.7-0.2-2.2-0.4-2.7-0.4q-0.2 0-0.3 0c-0.3 0-3.1 0.9-3.4 0.6-0.9-1-0.1-2.4 0.9-3 1.9-1.1 1.2 0.2 2.2 0.3 0.6 0.1 3.8 0.1 4.2 0.9 0.3 0.7 0.1 1.8-0.9 1.6z"/>
					<path id="&lt;Path&gt;" class="s0" d="m643.2 1.2c-1.5 0.6-2.4 1.8-3.3 3.1 3.9-1.3 0.6 3.3-2.1 1.3-1.3-1-0.7-4.4 0.2-3.1 0.6-1.1 3-4 4.5-3.7 1 0.2 2.4 1.6 0.7 2.4z"/>
					<path id="&lt;Path&gt;" class="s0" d="m659.8 61.3c1.5-0.2 5.8 4.9 5.7 6.2-0.1 4.3-5.3 1.4-2.3 0.9-0.8-0.6-6.1-6.8-3.4-7.1z"/>
					<path id="&lt;Path&gt;" class="s0" d="m673.2 77.9c0.9-0.1 3 2.5 3.6 3-0.4-3.4 1.9-1.6 1.6 0.6-0.2 1.2-2.2 3-3.6 2-0.6-0.5-1.3-1.7 0.1-1.8-0.2-0.3-3.7-3.6-1.7-3.8z"/>
					<path id="&lt;Path&gt;" class="s0" d="m689.1 85.8q0.9 0.1 1.8 0.4c-1.5-1.4 3.7-1.5 2.6 1.8-0.7 2.4-3.6 1.4-1.9 0.1-0.3-0.1-3-0.5-3.2-1-0.1-0.5-0.2-1.3 0.7-1.3z"/>
					<path id="&lt;Path&gt;" class="s0" d="m703 82.2q0.7-0.3 1.4-0.6c-2.9-0.3 0.8-2.9 2.7-1 1.8 2-2.3 7.4-1.6 2.4-2 1.4-3.8-0.5-2.5-0.8z"/>
					<path id="&lt;Path&gt;" class="s0" d="m633.6 14.2c0.8-1 1.7 0.3 2.3 0.6-0.6-4.3 1.3-6.2 2.1-1 0.8-1.2 2.5 1.1 0.2 2.6-1.3 0.8-6.2-0.1-4.6-2.2z"/>
					<path id="&lt;Path&gt;" class="s0" d="m650.8 51.5q0.3 0.1 0.6 0.3c-2.2-2.8-0.7-6.2 1.6-2.5 0.9-2.3 4 2.5 1.6 4.5-1 0.8-3.7 0.9-4.7-0.2-0.6-0.8-0.8-2.8 0.9-2.1z"/>
					<path id="&lt;Path&gt;" class="s0" d="m708.5 60.6c1-1.5 4.6-2 5.2 0.4 0.5 1.8-1.1 1.2-2 0.5 0.3 1 2.1 4.6 0.3 4.8-1 0-2.2-3.6-2.2-4.4-0.9 1.3-2.1 0-1.3-1.3z"/>
					<path id="&lt;Path&gt;" class="s0" d="m710.1 71.8c-1.6-1.2 1.8-3.3 3.5-1.9 1.8 1.6-0.1 4.1-0.5 2.7-0.2 1.1-0.7 4.1-2.2 4.1-2 0 0-4 0.1-4.8q-0.5 0.3-0.9-0.1z"/>
				</g>
				<g id="&lt;Group&gt;">
					<path id="&lt;Path&gt;" class="s0" d=""/>
					<path id="&lt;Path&gt;" class="s0" d=""/>
					<path id="&lt;Path&gt;" class="s0" d="m1309.5 27.8c-0.3-2.5-0.9-6.2-3-7.4-2.1-1.2-6.3-0.9-8.7-0.9-7.9-0.2-15.8 0.8-23.6 1.9-4.1 0.5-8.3 1.1-12.5 1.5-2.6 0.3-7.2-0.3-8.4 1.6-1.5 2.1-1.3 7.1-1.4 9.6-0.3 3.5-0.3 6.9-0.2 10.4 0.1 3.5 0.3 7.2 1.3 10.6 1 3.9 2.3 5.3 6.1 4.9 8.2-0.8 16.3-1.1 24.4-2.3 3.7-0.6 7.4-1.1 11.1-1.6 3.4-0.5 9 0 12-1.6 3.3-1.6-3.6-1-4.9-0.8-3.9 0.3-7.7 0.9-11.5 1.5-8.8 1.4-17.5 3-26.4 3.6-2.6 0.2-5.9 1.2-7.8-0.7-2.5-2.5-2.6-8.5-2.9-11.8-0.6-5.4-1-13.2 0.4-19.1q0 0 0-0.1c0.4-2.5 1.4-2.1 4-2.2q3.8-0.3 7.7-0.7c5.4-0.6 10.7-1.3 16.1-1.9 4.5-0.5 8.6-0.9 13.3-1 2.5 0 11.4-0.8 12.2 1.3q0 0.1 0 0.2c1.9 4.3 1.4 10.2 1.1 14.8-0.2 2.6-0.5 5.1-0.8 7.6-0.1 1.7-1.1 5.2-0.3 6.8 1.6 3.7 2-4.7 2.1-5.9 0.6-6 1.3-12.2 0.6-18.3z"/>
					<path id="&lt;Compound Path&gt;" class="s0" d="m1298.1 52.2c1.7-0.1 5.8 0.4 7-1 1.3-1.6 0.9-6.1 1-7.9 0.3-4 1.8-15.1-2-17.9-1.8-1.3-7.4-0.3-9.5-0.1-2.5 0.2-4.9 0.5-7.5 0.6-6.4 0.4-12.8 0-19.2 0.7-2.8 0.3-9.3 0.5-11.1 2.8-0.9 1-1.1 6.2-1.2 8 0 3.7 0.4 7.3 0.9 10.9 0.2 1.9-0.1 4.9 0.9 6.4 0.5 0.8-0.1 0.8 0.8 1.3 1 0.6 5.5-0.5 6.8-0.6q5.4-0.6 10.9-1.2c7.4-0.8 14.8-1.5 22.2-2zm-19.4-16.5c2-2.2 4 0.2 5.2 2.1-2.1 1.1-4.3 1-6.3-0.3q0.4-1 1.1-1.8zm-15.1 0.6c5.1-5.6 9.7 1.3 11.7 6-0.8-0.1-2.2 1.5-3 1.8-1.3 0.6-3 0.5-4.4 0.3-1.9-0.2-4.6-0.9-5.8-2.3-1.8-2.1-0.1-3.8 1.5-5.8zm11.3 16.4c-5.4 0.6-10.7 1.3-16 1.8 0.7-1.9-0.9-4.6-0.6-6.6 0.2-1.9 1.2-4.1 2-5.9 2.8 4.2 12.2 6 15.6 1.6 1 2.8 2 5.8 3.4 8.5q-2.2 0.3-4.4 0.6zm6.1-0.8c-1.4-3.7-5.4-9.8-3.9-13.4 2 1.4 5.4 2.2 7.4 0.3 2.2 3.9 3.5 8.2 5.5 12.2q-4.5 0.4-9 0.9zm13.2-19.6c0-1.7 2.2-3.3 3.8-2.8 0.8 0.3 2.1 1.8 2.5 2.5 0.9 1.6 1.2 1.3-0.1 2.6-1.7 1.7-5.3 0.9-7.2 0.2q0.4-1.3 1-2.5zm-2.7 18.5c-0.9-2.8-1-4-0.4-6.8 0.5-2.6 0.9-5.2 1.7-7.8 3.1 1.2 7 1.6 9.6-1 0.5 0.9 1.1 1.9 1.6 2.9 1.3 2.7 0.5 5.5 0.2 8.6-0.1 1.3 0.1 3-0.7 3.6-0.7 0.4-3.1 0-4 0-2.7 0.1-5.3 0.3-8 0.5z"/>
				</g>
				<g id="&lt;Group&gt;">
					<path id="&lt;Path&gt;" class="s0" d=""/>
					<path id="&lt;Path&gt;" class="s0" d=""/>
				</g>
				<g id="&lt;Group&gt;">
					<path id="&lt;Path&gt;" class="s0" d=""/>
					<path id="&lt;Path&gt;" class="s0" d=""/>
				</g>
				<g id="&lt;Group&gt;">
					<path id="&lt;Compound Path&gt;" class="s0" d="m1280.4 85c-9.1-5.4-18.7-10.4-28.4-14.9-4.5-2-9.2-4-14-5.5-0.3-0.1-1.7-0.7-2.1-0.6-1.7 0.5-3.3 5.2-4.1 6.7-2.4 4.8-4.5 9.7-6.4 14.7-0.7 1.8-3.4 6.5-3 8.4 0.3 1.3 1.9 2 3.1 2.7 7.3 4.7 17.6 7 25.2 9.7 2.9 1.1 8.5 3.4 12.3 5.2 1.8 0.9 3.8 2.7 5.6 1.6 1.1-0.8 2.2-4.6 2.9-5.9 2.1-3.9 4.6-7.6 6.4-11.6 0.7-1.4 4.4-9.3 2.5-10.5zm-12.8 26.1c-6.7-4.3-14.3-6.7-21.7-9-3.8-1.3-7.6-2.4-11.4-3.7-3.3-1-6.9-2.9-10.2-3.6 1.5-1.8 2.1-5.9 2.8-8.1 1.1-3 1.9-5.2 3-8.1 1.1-2.9 2.4-5.8 3.8-8.6 0.6-1.2 1.2-3.4 2.2-4.2 1-0.8 1.9-0.2 2.8 0.2 5.1 1.9 10.1 4.2 14.9 6.7-6.5 10.5 11.3 9.2 11 18.1-0.1 4.3-1 7.3 2.6 10.5 0.7 0.7 3.5 2.1 3.7 2.9 0.2 0.8-3.2 5.9-3.5 6.9zm5-9.3q-0.2 0.4-0.4 0.7c-2-2.1-5-3.3-5.7-6.4-0.7-3 1.2-6-0.3-9-2.3-4.9-13.2-5-12.2-11.1q0.1-0.9 0.6-1.7 0.5-1.9 2-0.2c1.9 0.4 4.2 2.3 5.8 3.2 3.7 2 7.2 4 10.9 6 1.4 0.8 3.8 1.5 4.9 2.6q2.1 0.3 0.9 2.3-0.4 1.6-0.9 3.2c-1.4 3.7-3.5 7.1-5.6 10.4z"/>
					<path id="&lt;Compound Path&gt;" class="s0" d="m1247.7 77.5c3.8-7.5-8.6-10.4-10.8-2.6-1.9 6.7 8 8.2 10.8 2.6zm-5.3 2.5c-6.5 0.8-5.1-8 0.6-8.3 5.6-0.2 4.3 7.3-0.6 8.3z"/>
					<path id="&lt;Path&gt;" class="s0" d="m1237.5 89.9c-0.9-1.4-1.4-1.3-2.7-0.7-0.4-2-1.6-6-3.3-1.7-1.1 3 0.4 1.3 1.4 0 0.4-0.5 0.6 2.1 0.9 2.4 1.1 1.2 0.6-0.4 1.9 0 0.5 0.2 3.9 3.2 1.8 0z"/>
					<path id="&lt;Path&gt;" class="s0" d="m1249.8 94.3c-1.2-0.5-1.6-1.4-2.5-2.1-0.6-0.5 0-1-1.1-1.1-1.9-0.2-5 3.7-0.2 1.4 0.4 1.8 2.1 3.4 3.8 3.7 2.7 0.6 2.3-0.7 0-1.9z"/>
					<path id="&lt;Path&gt;" class="s0" d="m1263.6 100.1c-0.7-0.2-9.7-2.1-7.2-0.1 0.7 0.6 4.5 1.3 5.5 1.4 0.5 0 4.1-0.6 1.7-1.3z"/>
				</g>
				<g id="&lt;Group&gt;">
					<path id="&lt;Path&gt;" class="s0" d=""/>
					<path id="&lt;Path&gt;" class="s0" d=""/>
					<path id="&lt;Compound Path&gt;" class="s0" d="m1238.1 25.7c-1.9-0.6-4.6-6.8-5.7-8.6-2.4-3.8-4.8-7.6-7.1-11.5-1.8-3.1-3.1-8.2-6.5-8.7-3.8-0.6-8.9 1.4-12.6 2.3-4.9 1.1-9.7 2.3-14.6 3.1-1.1 0.2-6 1.5-6.9 1.1-1.1-0.6-2.5-6.6-3-7.9-0.8-1.9-9.8-23.4-13.2-19.8 0-0.2-0.2-1.7-0.7-1.4-1.4 0.7-1.2 2.6-1.5 4-1.1 4.2-2.6 8.3-4.2 12.3-4.8 11.4-11.4 21.9-16.7 33-2.6 5.2-5.1 10.7-6.6 16.3-1.4 5.4 0.3 8.9 2.1 14.3 1.9 6 3.7 12.1 6.4 17.7 0.7 1.6 1.9 5.4 3.3 6.4 1.9 1.2 5.3-0.3 7.5-0.8 11.3-2.4 22.8-4.4 34-7.1 2 10 7.6 18.7 11.1 28.1 1.8 4.7 3 5.7 5.2 0.8 2.3-5.1 4.8-10.1 7.1-15.2 4.4-9.7 8.5-19.5 12.5-29.4 1-2.6 11.8-28.6 10.1-29zm-35.9-22.7c5.5-1 11.1-1.9 16.5-3.3-2.1 5-4.1 10-6 15.1q-1.4 3.8-2.8 7.6c-1.2 3.5-1.4 3.3-4.9 3.8-10.2 1.4-20.2 3.8-30.3 5.2 2.6-7.3 5.2-14.7 8.2-21.9 1.7-4.2 2.5-4 7.1-4.5 4.1-0.6 8.1-1.2 12.2-2zm-3.3 50.5c-0.9-0.8-3.5-0.2-4.5-0.1 0.4-0.4 0.8-4-0.1-4-1.3 0-1.6 3.6-0.6 4.1-9.6 1-19 3.6-28.7 3.2 3.6-7.7 6.4-16.1 9.3-24.2 0.8 0.9 7.5-0.8 8.6-1-2.3 2.5-0.9 1.6 0.7 1 0.5-0.1 0.7-1.1 0.9-1.3 1.5-0.9 4.6-0.7 6.2-1 5.8-0.9 11.6-1.6 17.4-2.7-3 8.7-6 17.4-9.2 26zm-34.8-63.2c1.7-4.5 3.1-9.1 4.2-13.7 0.2 0.9 3 2.4 3.5 3.2q0.1 0.1 0.1 0.1c4.8 5.5 7.5 15.8 9.7 22.8 1.3 4.2 1.8-0.3 0.6 4.5-0.6 2.3-2 4.6-2.9 6.9-1.9 4.9-3.8 9.8-5.7 14.8-2.8-7.1-6.4-13.9-8.8-21.1-1.1-3.3-1.9-6.6-2.3-10-0.3-3.2 0.3-4.1 1.6-7.5zm-6.1 14q1.3-2.7 2.5-5.5c1.2 10 6.3 18.9 10.6 27.8 1.5 2.9 1.8 2.9 1.1 6-0.4 2.1-1.6 4.3-2.4 6.4-1.9 4.9-3.9 9.9-6 14.7-4-7.9-8.6-16.4-11.7-24.2-1.7-4.2-3.1-6.9-1-11.1 2.3-4.7 4.6-9.3 6.9-14.1zm-10.6 61.2c-1.8-4.3-3.4-8.7-5-13.1-0.7-2-2.2-4.6-2.4-6.7 0-1.1 0.2-2.1 0.9-3.9 2.5-6.5 4.7-12.1 7.8-18.4 3.1 9.8 7.9 18.9 12.4 28.1 1.4 3 1.6 3.3 1 6.2-0.6 2.7-2.7 5.7-4 8.2-0.9 1.9-3.8 9.7-5.8 10.1-1.6-3.5-3.4-6.9-4.9-10.5zm43.8 1.7c-12.2 0.5-24.4 5.4-36.2 8.2 2.9-4 6.5-15.6 10.5-16.9 3.6-1.2 9.2-0.3 13-0.7 4.7-0.5 9.3-1.3 14-2 0.7-0.1 4.2-0.5 5.9-0.8q-1 2.4-1.9 4.9c0 0-1.3-1.3-1.6-0.7q-0.3 1.3 1.1 1.8-0.5 1.2-0.9 2.4c-0.7 3.4-1.2 3.7-3.9 3.8zm18.8 23q-1.8 3.9-3.7 7.9c-2.6-7.1-6.8-13.5-9.8-20.4-1-2-2.4-5.9-2.2-8.4 0.5-4.2 3.9-9.5 5.4-13.6 0.6 1.7 1.6 3.5 2 5.3 0 0-1.3 0.7-0.9 1.7 0.1 0.2 1.3-0.5 1.4-0.4 0.6 1.7 1.3 3.3 1.9 4.9 1.7 4 3.4 8 5.3 11.9 0.6 1.4 2.6 3.8 2.7 5.3 0.2 1.8-1.2 4-2.1 5.8zm13.4-30.1c-2.7 6.8-6.8 15.7-10.2 23.2-3.2-7.3-6.3-14.8-9.1-21.9-0.9-2.1-2.9-4.7-3.2-7.2-0.3-2.3 1.3-5.4 2.2-7.9 5.3-15.1 10.5-31.1 16.5-45.3 4.6 8.5 11.6 16.3 15.5 25.1 1.2 2.6 0.9 2.7-0.4 5.9q-1.3 3.4-2.6 6.8-3.1 7.8-6.4 15.6c-4.3-8.6-10-16.5-13.7-25.5 0 0.1-0.9-3.3-1.8-1.6-0.8 1.4 4 9.1 4.8 10.6 1.9 3.6 3.9 7.1 5.8 10.6 1 1.7 2.2 3.5 2.9 5.4 1.1 3.1 1.2 2.7-0.3 6.2z"/>
					<path id="&lt;Path&gt;" class="s0" d="m1154.3 23.7c4.9 0.3 1.2 3.2 4.2 5.6 3.6 3 2.3-4 2.1-5.4 1.2-0.1 4.3 0.3 4-1.7-0.3-1.7-1.7-0.7-2.6-1.4-1.7-1.3-1.3 0-1.7-2.9-0.2-1.6 1.2-4.1-1.5-4.4-2.9-0.4-2.4 5.3-2.3 6.9-0.7 0-2.7-0.5-3.4 0.4-0.9 1.1-0.3 2.8 1.2 2.9z"/>
					<path id="&lt;Path&gt;" class="s0" d="m1163.6 25.5c-1.9-0.6 0.4 3.1 0.9 3.3 2.2 1.1 0.1-3.1-0.9-3.3z"/>
					<path id="&lt;Path&gt;" class="s0" d="m1167.9 33.1c2 2 2.2 0.1 0.6-1.4-1.4-1.4-1.9 0.1-0.6 1.4z"/>
					<path id="&lt;Path&gt;" class="s0" d="m1176.4 34.6c-0.5 0-4.1 1-1.9 1.6 1.9 0.6 3.5-1.6 1.9-1.6z"/>
					<path id="&lt;Path&gt;" class="s0" d="m1185.9 25.6c1.1 0.3 2.8-3.4 1.7-3.9-1.5-0.7-3.2 3.5-1.7 3.9z"/>
					<path id="&lt;Path&gt;" class="s0" d="m1192.4 17.6c1.7-1.2 0.3-1.2 0.5-1.6 0.3-1.1-2.6 3-0.5 1.6z"/>
					<path id="&lt;Path&gt;" class="s0" d="m1198.8 16.8c1.3 0 5.1-0.4 1.8-1.7-2.4-0.9-3.2 1.6-1.8 1.7z"/>
					<path id="&lt;Path&gt;" class="s0" d=""/>
					<path id="&lt;Path&gt;" class="s0" d="m1203.1 23.8c1 0.9 0.8-0.8 0.9-1.1 1.1-3.5-3.6-1.8-0.9 1.1z"/>
					<path id="&lt;Path&gt;" class="s0" d="m1203.1 32c-1.3-0.8-3.7 3.6-2.4 4 1.4 0.4 3.6-3.3 2.4-4z"/>
					<path id="&lt;Path&gt;" class="s0" d="m1197.2 41.3c-1.2-0.6-3.3 2.8-2 3.6 1.4 0.8 3.4-2.8 2-3.6z"/>
					<path id="&lt;Path&gt;" class="s0" d="m1207.6 57c-0.8 0-3.5 2.3-1.7 2.6 1.3 0.2 3.6-2.6 1.7-2.6z"/>
					<path id="&lt;Path&gt;" class="s0" d="m1214.5 54.3c-2 0-2.8 2-1.1 1.3 0 0 3.1-1.3 1.1-1.3z"/>
					<path id="&lt;Path&gt;" class="s0" d="m1219.1 59.3c-0.1-0.9-0.7-5.2-2.4-3.1-1.7 2.1 2.6 5.3 2.4 3.1z"/>
					<path id="&lt;Path&gt;" class="s0" d="m1219.9 63.7c0-1.4-2.9 1.6-1.2 3.6 1.8 2 1.2-3.2 1.2-3.6z"/>
				</g>
				<g id="&lt;Group&gt;">
					<path id="&lt;Path&gt;" class="s0" d=""/>
					<path id="&lt;Path&gt;" class="s0" d=""/>
					<path id="&lt;Path&gt;" class="s0" d=""/>
					<path id="&lt;Path&gt;" class="s0" d=""/>
					<path id="&lt;Path&gt;" class="s0" d=""/>
					<path id="&lt;Path&gt;" class="s0" d=""/>
					<path id="&lt;Path&gt;" class="s0" d=""/>
					<path id="&lt;Path&gt;" class="s0" d=""/>
					<path id="&lt;Path&gt;" class="s0" d=""/>
					<path id="&lt;Path&gt;" class="s0" d=""/>
				</g>
				<g id="&lt;Group&gt;">
					<path id="&lt;Path&gt;" class="s0" d=""/>
					<path id="&lt;Path&gt;" class="s0" d=""/>
				</g>
				<g id="&lt;Group&gt;">
					<path id="&lt;Path&gt;" class="s0" d=""/>
					<path id="&lt;Path&gt;" class="s0" d=""/>
					<path id="&lt;Path&gt;" class="s0" d=""/>
					<path id="&lt;Path&gt;" class="s0" d=""/>
					<path id="&lt;Path&gt;" class="s0" d=""/>
				</g>
				<path id="&lt;Compound Path&gt;" class="s0" d="m1131.9 7.9c-2.2-8.5-10.4-10.5-17.4-5.6-7.4 5.1-7.5 15-3.6 22.3 2 3.7 5 6.9 8.7 8.8 1.6 0.8 2.9 1.1 4.5 1.1 0.4 0 0 0.9 0.9 0.6 0.7-0.3 1.4-2.1 1.7-2.6 4.2-7.4 7.5-16 5.2-24.6zm-8.2 6.9c-0.4 2.9-1.8 5.5-2.7 8.2-0.6-0.9-1-1.8-1.4-2.7 0-1.4-1.3-4.2-1.6-5.2-0.1-1.7-0.4-4.3 1.7-4.9 3-0.8 4.3 2.3 4 4.6z"/>
				<g id="&lt;Group&gt;">
					<path id="&lt;Compound Path&gt;" class="s0" d="m882.6 59c-2.5-13-11.1-24.8-17.7-36-3.6-6.3-8-10.6-2.9-17.5 4.1-5.4 11.9-6.7 15.2-12.7 3.4-6.1 0.9-15.5-3.5-20.6-0.8-0.9-0.6-1.5-1.8-1.6-1 0-3.4 2.8-3.5 3.4-0.1 1.8 2.7 3.5 3.5 5.1 9.1 17.3-21.7 16-17.7 28.9-2.3-2.2-5.6-4.2-8.8-4.4-1.3-0.1-2.7 0-4 0.2-3 0.5-2.3 0.8-3.5-2-3-6.7-7.9-3.3-12 0.6-1.1 1.1-3.1 2.7-3.5 4.3-0.4 1.5 1 3.2 0.7 4.3-0.5 1.7-8 5.3-9.9 6.6-3.3 2.4-6.9 4.9-9.4 8.1-1.3 1.8-1.5 3-1.9 4.9-0.1 0.4 1.3 0 1.4 0.1-4.9 2.7-0.8 6.7 0.5 10.1 1.1 2.7 1.1 3-1.5 4.3-1.7 0.8-4.4 1.7-5.7 3.2-2.2 2.8 0.6 8.8 3 11 3.4 3.2 7.7-0.1 10.7-2.4 2 4.3 6.4 10.2 7 14.9q2.2 2.2-0.7 2.9-1.6 1.1-3.2 2.1c-0.9 0.5-5.1 2.3-5.2 3.4-0.4 2.3 4.2 6.9 6.1 7.8 3.2 1.5 6-0.4 8.6-2.2 0.9 2.4 2.1 4.5 4.8 4.6 2.8 0.1 5.3-3.1 7.5-2.8 1.5 0.3 2.6 2.3 4.8 2.4 1 0.1 2.1-0.2 3.1-0.5 3.4-0.8 6.7-2.5 9.7-4 6.3-3.2 12.1-7.3 17.7-11.5 4.9-3.9 13.4-7.9 12.1-15zm-58.7-49.1c-1.5-4.3 7.6-13.2 11.4-9.6 1.8 1.7 2.1 5.6 2.8 7.9 0.5 1.9 1.4 3.6 1.3 5.6 0 0.5 0.8 1.6 0.7 2-0.4 1.1-5.9 2.8-7.1 3.3-3 1.4-2.4 1.6-4.6-0.4-0.2-0.2-1.3-2-1.3-2-1.3-2.1-2.3-4.5-3.2-6.8zm20.5 8.6c-5.4 3.7-11.3 6.5-17.2 9.4-5.8 2.7-11.1 4.9-12 11.8-2.1 14.8 10 30.6 16.7 42.8-6.3 3.7-11.3-14.2-12.6-18.1-2.1-6.1-5.5-11.3-8-17.1-1.1-2.5-3.4-8.6-1.1-10.9 1.4-1.4 2.1-3.1 3.7-4.6 4.4-4.1 10-6.9 15.5-9.5 2.8-1.4 5.7-2.7 8.6-4 1.3-0.7 2.6-1.2 3.8-1.8 3-1.6 2.3-1.6 5.3-0.2-0.3 0.4-2.7 2.2-2.7 2.2zm30 49.3c-4.9 3.9-9.8 7.8-15 11.2-4.5 2.9-14.6 10.2-20.5 8.8-3.9-1-6.7-8.5-8.7-11.7-4.3-7.1-8.4-14.4-11.2-22.2-2-5.2-5.2-14.5-0.6-19.3 4-4.2 12.3-6.5 17.3-9.1 4.9-2.5 11.4-5.6 14.5-10.1 1.8-2.7 1.7-5.2-1.1-7.1-1.5-0.9-3.1-1.2-4.8-1.2-2 0-4.4 1.7-5-0.6 14.8-3.6 20.3 11.1 26.3 21.6 3.2 5.5 6.5 11.1 9.3 16.9 1.9 4.1 3.9 8.4 5 12.8 0.3 1.3 1.2 3.8 0.6 5.1-0.7 1.6-4.7 3.8-6.1 4.9zm-25.7-53c-0.2 0.2-1-0.3-0.8-0.2q-0.1 0-0.2-0.1c-2-0.8-4.1-3.3-4.4-5.8 4-0.3 8.7 2 5.4 6.1zm-6.7-5.9c0.1 1.9 0.7 1.3-1.5 2.6q-0.3-1.1-0.5-2.2 1-0.2 2-0.4zm-38.6 19.8c2.1-4.1 6.5-7 10.1-9.5q3-2.1 6.2-4c0.8-0.4 2.4-1.8 3.4-1.9q1-1.1 1.3 0.4 1.3 1.3-0.8 1.7c-1.2 1.5-4.2 2.7-5.8 3.7q-3.1 2.2-6.3 4.5c-2 1.5-4.2 3.9-6.4 4.8-0.5 0.2-2.2 1.4-1.7 0.3zm-1.4 5.8c-0.1-2.5 5.6-6.1 7.4-7.4 5.2-4 10.6-7.8 16.3-11.2q0.6 1.1 1.3 2.2c-8.2 3.8-22.6 9.5-23.2 20.3-0.8-1.2-1.6-2.5-1.8-3.9zm3.4 7.7c-0.4-1.6-0.3-3.1-0.3-4.6 0-4.5 5.4-8.6 8.5-10.8 2.2-1.7 5.4-3.4 8.2-4.9 3-1.5 5.1-4.1 7-0.8-6.4 3-13.6 6.4-18.1 11.9-1 1.2-1.9 2.5-2.4 4.1-0.3 1.2 0.1 2.9-0.4 4-0.8 1.8 1 0.9-2.1 2.3q-0.2-0.6-0.4-1.2zm3.1 13.1c-2.4 1.8-6 5-8.2 1.6-0.9-0.8-3.4-5.1-3-6.6 0.5-1.6 2.6-2.4 4-3.1 2.4-1.3 4.7-2.1 7.1-3.5 0.8 3.3 2.4 6.3 4 9.2-1.3 0.5-2.8 1.7-3.9 2.4zm7.9 12.2q-1.8-3.7-3.5-7.5c-1.5-3.1-2.2-3.2 0.5-5.4 1.6 2.9 3.1 5.8 4.2 9 0.5 1.4 0.9 2.8 1.4 4.2 0.8 2.4 2.4 3.7 0.1 5.3q-1.3-2.8-2.7-5.6zm0.9 18.1c-3.1 0.9-5.2-2.9-6.8-4.9 3.2-2.5 7.2-4.8 10.6-7.1 0.7 1.7 2.3 3.8 2.7 5.6 0.5 2.4 1.4 0.6-1 2.9-1.3 1.2-3.7 2.7-5.5 3.5zm13.9 1.9c-1.7 1.1-2.8 1.7-4.6 1.7q0 0-0.1-0.1c-1.6-0.5-2.7-3.2-1.9-4.4 1.7-2.7 3.1-0.1 5.2 0.2 2.4 0.3 2.6-1.5 4.1 0.9-0.9 0.3-2 1.2-2.7 1.7zm11.4-76q0.5 1.2 1.3 2.3-1.2 0.7-2.4 1.3c-0.8-2.3-0.9-2.3 1.1-3.6z"/>
					<path id="&lt;Path&gt;" class="s0" d=""/>
					<path id="&lt;Path&gt;" class="s0" d=""/>
					<path id="&lt;Path&gt;" class="s0" d=""/>
					<path id="&lt;Path&gt;" class="s0" d="m800.3 56.9q0 0.1 0 0.1 0 0 0-0.1z"/>
					<path id="&lt;Compound Path&gt;" class="s0" d="m855.9 51.6c5-0.8 4.5-3 4.9-7.6q0.4-4.6 0.7-9.2c0.1-1.4 1.2-6.1 0.1-7.2-1.1-1.2-5.5-0.8-7.1-1-2.5-0.3-4.9-0.7-7.4-0.5-6.3 0.3-5.8 1.9-6.2 7.6-2.5-1.2-9.1 1.7-10.9 3.4-3.6 3.5-1 10.2 0.2 14.4 1.4 4.8 2.8 8.4 8 9.5 6.4 1.3 11.7-2.6 10.8-9.1q3.4 0.3 6.9-0.3zm-8.7 1.7c-0.2 7.7-10.5 7.4-13.5 1.9-2.7-5-5.9-15.9 0.5-18q0.2-0.1 0.3-0.1c1.7-0.7 4.3-1.1 6.3-1.3-0.3 3.2-2.2 10.3-0.3 13 1.9 2.8 6.7 1 6.7 4.5zm-1.2-3.4c-0.3-0.1-2.4-0.6-2.8-0.8-2.8-1.5-1-8.2-1-11.2 0.1-2.4-0.1-5.1 0.4-7.4 0.4-2.1 0.6-2.3 2.9-2.6 5-0.6 9.7 2.4 14.6 1.8-0.3 5.4 0 12-1.3 17.3-0.7 2.6 0.3 1.3-2.5 2.4-2.9 1.2-7.3 1-10.3 0.5z"/>
					<path id="&lt;Path&gt;" class="s0" d=""/>
					<path id="&lt;Compound Path&gt;" class="s0" d="m869.4 58c-2-4-6-4.5-9.8-2.9-5.4 2.1-5.5 8.6-3.3 13.2 5.7 11.9 17.5-1.1 13.1-10.3zm-2.3 6.9c-1.2 6.1-7.3 7.4-9.2 1.1q0-0.1-0.1-0.3c-1.4-3.3-1-8.9 3.9-9.1 4.4-0.1 5.9 4.6 5.4 8.3z"/>
					<path id="&lt;Compound Path&gt;" class="s0" d="m847.1 75c-0.6-2-5-10.1-7.4-10.1-2.7 0-4.9 4.7-4.5 6.8 0.6 2.8 3.5 7.7 5.7 9.4 4.4 3.4 7.5-2 6.2-6.1zm-1.4 2.5c-0.9 3.7-2.3 3.6-4.4 1.1-1.5-1.7-3.3-4.6-3.8-6.7-0.6-2.6-0.3-3.1 2.1-5.1 2.2 2.7 6.6 6.9 6.1 10.7z"/>
					<path id="&lt;Path&gt;" class="s0" d=""/>
				</g>
				<g id="&lt;Group&gt;">
					<path id="&lt;Path&gt;" class="s0" d=""/>
				</g>
				<g id="&lt;Group&gt;">
					<path id="&lt;Path&gt;" class="s0" d=""/>
					<path id="&lt;Path&gt;" class="s0" d="m956.4 41.2c-5.3 0-10.7 2.8-15.3 5.1-5.8 2.9-11.8 5.6-17.5 8.7-5.9 3.2-11.8 6.8-16.4 11.7-2.1 2.2-4.6 4.9-5.6 7.8-0.4 1.3-1.2 2.8 0.3 1.5 0.8-0.6 1.3-2.6 1.9-3.5 1.6-2.5 3.7-4.7 5.9-6.7 5.4-4.8 11.7-8.2 18.2-11.3 5.3-2.5 10.7-5 16.1-7.4 3.1-1.4 6.3-2.6 9.6-3.3 0.8-0.2 3.1-0.2 3.4-0.8 0.4-0.7 0.4-1.8-0.6-1.8z"/>
					<path id="&lt;Compound Path&gt;" class="s0" d="m966.7 32.8c-3.1-5.8-13-2.6-17.4-0.7-0.5-7.2-2.6-15.1-8.6-19.5-7-5.1-15.1-2.5-21.5 2.1-5 3.5-9.1 7.9-15.1 9.3-7.5 1.9-16.7 6.9-16.1 15.9 0.2 4.1 2.4 7.7 4.5 11.1 1.4 2.4 5.9 7.8 4.6 10.5-0.5 1.1-3 2.5-4 3.4-1.6 1.5-3.1 3.3-4.2 5.1-2 3.3-3 6.4-0.8 9.1 10.7 13.9 32.1-5.7 42.3-11.3 7.3-4.1 15-7.2 21.9-12 5.7-3.9 19-14.7 14.4-23zm-73.3 16.4c-3.6-6.3-5.2-13 1.1-17.9 6.5-5.1 13.1-4.4 20.8-4.1 2.4 0.1 4.9 0.1 7.2-0.8 2-0.6 8.9-6.3 3.7-5.5-0.6 0-1.7 1.2-2.4 1.5-1.8 1-3.7 1.4-5.7 1.5-2.8 0.2-5.5-0.1-8.3-0.2 6.5-3.9 12.2-10.7 20.1-11.8 7.7-1 13.4 4.5 16 11.3-7.9-1.5-18 3.2-24.9 6.4-10.2 4.8-20 11.3-27.6 19.6zm72.2-12.1c-2.3 14.1-20.3 22.1-31.5 27.6-10.6 5.2-19.9 13.7-31.4 16.7-4.4 1.2-12.6 1.3-13.6-4.7-0.8-5 5.1-10.2 8.4-13.1 9.4-8.3 21.3-13.5 32.5-19.4 4-2.1 37.5-21.1 35.6-7.1zm-68.2 19.1c1.1-0.5 2.1-2.3 2.9-3.1 2-1.9 3-2.7 5.2-4.2 4.4-2.9 9.2-5.2 14.1-7.2 9-3.6 19.3-7.8 28.5-9.8 0.1 1.6-8.8 4.8-10.6 5.7-5.1 2.7-10 5.4-15 8.3-7.9 4.6-16.1 8.7-23.5 14.1-0.4-1.3-0.9-2.6-1.6-3.8z"/>
				</g>
				<g id="&lt;Group&gt;">
					<path id="&lt;Path&gt;" class="s0" d="m1033.9 42.2c0.2-0.5 0.9-3.5 0.7-4-0.9-1.8-1.4 1.9-1.6 2.3-0.4 0.6-3 1.9-2.5 2.7 0.5 0.8 3-0.4 3.4-1z"/>
					<path id="&lt;Compound Path&gt;" class="s0" d="m1049.2 42.6c-0.7-8.9-16-25-23.8-13.6-1.4 1.9-2.2 4.9-1.1 7.2 0.5 0.8 2.1 1.6 2.4 2.2 0.1 0.3-0.5 1.4-0.4 1.8 0.3 5 2.7 8.4 8.2 6.3-0.3 1.2 3 3.4 3.8 3.8 1.7 1.1 3.9 1.8 6 1.2 3.8-1.1 5.2-5.4 4.9-8.9zm-4.8-7.5c1.8 2.3 1.3 6.7-0.6 9-1.2 1.5-2.4 1.9-4.1 1-0.6-0.4-1-1.6-1.7-1.7 1.1-2 0.6-4.7 0.7-6.4 0-0.6 0.9-1 0.4-1.9-0.7-1.1-1.7-0.7-2.1 0.4-1.6-1.5-4-2-6-1.3 0.5-3 3.6-5.5 6.7-4.9 2.8 0.6 5.1 3.7 6.7 5.8zm-16.4 1.2q-0.3 0.5-0.6 0.9c-2.6-1.7-1.9-5.2-0.1-7.4 2-2.5 5.2-3 8.1-2-1.9 0.4-3.5 1.8-4.4 3.6-0.4 0.8-0.4 2-0.9 2.7-0.4 0.8-1.4 1.3-2.1 2.2zm4.3 9.2c-4.7-1.2-4.1-8.8 0.7-8.9 5.6-0.2 4.2 8.6-0.7 8.9zm15.7-0.3c-0.3 1.7-1.5 4.2-3.2 4.8q-0.1 0-0.2 0c-0.3 0.2-1.9 0.4-2.4 0.3q-0.1 0-0.2 0c-2.5-0.2-4.2-3.4-6.5-4.3q1-0.6 1.8-1.5c4.5 6.7 9.8-1.4 9-6.6q1 2.1 0.7 1.4 0 0.1 0.1 0.1c0.6 1.3 1.2 4.3 0.9 5.8z"/>
					<path id="&lt;Path&gt;" class="s0" d=""/>
					<path id="&lt;Path&gt;" class="s0" d=""/>
					<path id="&lt;Path&gt;" class="s0" d=""/>
					<path id="&lt;Path&gt;" class="s0" d=""/>
					<path id="&lt;Path&gt;" class="s0" d="m1028.1 32.4c-1.3 0-1.3 2 0 2 1.3 0 1.3-2 0-2z"/>
					<path id="&lt;Path&gt;" class="s0" d="m1029 31.7c1.7 0 0-1.5 0-1.5 0 0-1.7 1.5 0 1.5z"/>
					<path id="&lt;Path&gt;" class="s0" d="m1030.7 29.8c1.6 0 0-1.4 0-1.4 0 0-1.5 1.4 0 1.4z"/>
				</g>
				<g id="&lt;Group&gt;">
					<path id="&lt;Path&gt;" class="s0" d="m648.9 99.3c0.2-0.5 0.9-3.5 0.7-4-0.9-1.8-1.4 1.9-1.6 2.3-0.4 0.6-3 1.8-2.5 2.7 0.5 0.8 3-0.4 3.4-1z"/>
					<path id="&lt;Compound Path&gt;" class="s0" d="m664.2 99.6c-0.7-8.8-16-24.9-23.8-13.6-1.4 2-2.2 5-1.1 7.3 0.5 0.8 2.1 1.6 2.4 2.2 0.1 0.3-0.5 1.3-0.4 1.8 0.3 5 2.7 8.4 8.2 6.3-0.3 1.2 3 3.3 3.7 3.8 1.8 1.1 4 1.7 6.1 1.2 3.8-1.1 5.2-5.4 4.9-9zm-4.8-7.4c1.8 2.3 1.3 6.7-0.6 9-1.2 1.4-2.4 1.9-4.1 0.9-0.6-0.3-1-1.5-1.7-1.6 1.1-2 0.6-4.8 0.7-6.4 0-0.7 0.9-1 0.4-2-0.7-1-1.7-0.6-2.1 0.4-1.6-1.4-4-1.9-6-1.2 0.5-3 3.6-5.5 6.7-4.9 2.8 0.6 5.1 3.7 6.7 5.8zm-16.4 1.2q-0.3 0.4-0.6 0.9c-2.6-1.7-1.9-5.3-0.2-7.4 2.1-2.5 5.3-3 8.2-2-1.9 0.4-3.5 1.8-4.4 3.5-0.5 0.9-0.4 2.1-0.9 2.8-0.5 0.8-1.4 1.3-2.1 2.2zm4.3 9.1c-4.7-1.1-4.1-8.7 0.7-8.9 5.6-0.1 4.2 8.6-0.7 8.9zm15.7-0.2c-0.3 1.7-1.5 4.2-3.2 4.8q-0.1 0-0.2 0c-0.3 0.2-1.9 0.4-2.4 0.3q-0.1 0-0.2 0c-2.5-0.2-4.2-3.4-6.5-4.3q1-0.6 1.8-1.5c4.5 6.7 9.8-1.4 9-6.6q1 2.1 0.7 1.4 0 0 0.1 0.1c0.6 1.2 1.2 4.3 0.9 5.8z"/>
					<path id="&lt;Path&gt;" class="s0" d=""/>
					<path id="&lt;Path&gt;" class="s0" d=""/>
					<path id="&lt;Path&gt;" class="s0" d=""/>
					<path id="&lt;Path&gt;" class="s0" d=""/>
					<path id="&lt;Path&gt;" class="s0" d="m643.1 89.5c-1.3 0-1.3 2 0 2 1.3 0 1.3-2 0-2z"/>
					<path id="&lt;Path&gt;" class="s0" d="m644 88.8c1.7 0 0-1.5 0-1.5 0 0-1.7 1.5 0 1.5z"/>
					<path id="&lt;Path&gt;" class="s0" d="m645.7 86.8c1.5 0 0-1.3 0-1.3 0 0-1.5 1.3 0 1.3z"/>
				</g>
				<g id="&lt;Group&gt;">
					<path id="&lt;Path&gt;" class="s0" d="m987.4 68c-0.5-1.1-0.9 0.4-1 0.6-0.1 0.2 0.9 4.5 1 4.7 0.3 0.7 0.5 2 1.4 0.8 1-1.2-0.9-5-1.4-6.1z"/>
					<path id="&lt;Path&gt;" class="s0" d="m994.9 65c-0.5-0.8-2.9-3.3-2.4-0.9 0.3 1.6 3.2 2.2 2.4 0.9z"/>
					<path id="&lt;Path&gt;" class="s0" d="m996.8 71.5c1.1 0 0.5-2.4 0-2.7-1-0.7-1.1 2.7 0 2.7z"/>
					<path id="&lt;Path&gt;" class="s0" d="m996.4 74.3c-0.1 1-0.2 4.2 1.5 2.2 1.4-1.7-1.3-4.3-1.5-2.2z"/>
					<path id="&lt;Path&gt;" class="s0" d="m976.7 70.3c-7.1-9.1-22.5 2.1-15.7 11.5 7.1 9.8 23.5-1.8 15.7-11.5z"/>
					<path id="&lt;Path&gt;" class="s0" d="m1018.7 85.4c-1.3-5-10.5-4.7-8.8 1.8 1.9 6.6 10.5 4 8.8-1.8z"/>
					<path id="&lt;Compound Path&gt;" class="s0" d="m1087 66.1c-1.5-7.7-4.8-15-7.8-22.1-3.1-7.1-6.4-14.1-11-20.3-9.1-12.3-22-21-37.5-22-14.3-0.9-31.7 0.1-44.7 6.8-11.7 6.1-20.8 22.7-9.5 33.8-1 0.5-1.2 5.4-1.6 6.6-0.8 2.5-1.7 5-2.7 7.4-0.5 1.3-1 4-1.8 4.8-1 0.9-3.4 0.8-4.8 1.3-11.3 3.9-15.7 23.9-2.3 28.3 6.1 2 12.5-1.4 18.3-2.9 1.4-0.4 2.8-0.9 4.2-1.1 2.2-0.4 1.9-0.1 4.1 1.1 5.5 2.8 11.7 4.7 17.7 6.4 3.3 1 6.7 1.7 10 2.7 2.7 0.9 3.3 0.8 5.8-0.9 1.7-1.1 4-2.8 5.4-4 1.7-1.6 2.4-4.3 3.2-6.5 2-5.9 3.1-12.2 4.1-18.4 12.5 6.4 13.2 25.9 28.9 28.6 7.3 1.3 13.5-4 17.8-9.4 4.7-5.9 5.6-12.9 4.2-20.2zm-80.1-60.7c11.7-1.5 24.8-2.7 36.1 1.3 10.5 3.7 19.1 11.8 25.2 20.9 6.1 9.1 10 19 13.7 29.1 3.9 10.6 6.9 24.9-5.7 30.4 5-9.8 3.6-23.3 0.7-33.5-3-10.5-9-20.3-16.4-28.3-7.8-8.4-17.5-14.5-28.7-17-11.2-2.6-25.3-2.8-36.4 0.9 3.7-2.3 7.1-3.2 11.5-3.8zm31.4 54.5c-2.7-0.4-5.3-0.2-7.4-2.3-2.2-2.1-2.9-6.3-4.6-8.6-0.8-0.9-2.5-1.9-3.8-2.7-2.6-1.7-4.3-3.5-7.4-2.8-2.8 0.7-5.9 2.1-8.7 2-0.4 0-0.9 0.4-1.2 0.3-0.8-0.1-3-1.8-4.1-2.2-3.9-1.6-8-2.8-11.8-4.7-2.7-1.3-2.8-1.3-5.6 0q-0.4-1.7-0.7-3.4c-0.4-2-0.2-5.1 0.1-7.3 0.3-3.7 2.1-8.3 4.4-11.6 2.8-4 6.1-5.6 10.7-6.7 9.9-2.2 21.6-1.9 31.5-0.1 20.3 3.7 35.5 19.3 43.4 37.8 3.4 6.7 4.6 15.6 4.7 23.2 0 3.8-0.4 7.7-1.4 11.4-1.2 4.3-2.1 6.6-7 6-15.7-2.1-16-26.4-31.1-28.3zm-19.4-3.3c-0.4-2.9-0.5-3.4 2.3-4.7 1.4-0.6 2.8-1.1 4.3-1.7 0.8 2.7 2.6 5 3.8 7.6-1.7 0.3-8 3.4-9.4 2.6-0.8-0.5-0.9-2.9-1-3.8zm-1.8 6.4c-2.4 6.5-6.1 12.3-9.8 18.1-0.4 0.7-1.1 2.4-1.6 2.6-0.7 0.5-5.4-0.6-6.3-0.7 5.5-1.6 8.2-9.7 7.3-15.1-1-6-5.8-11.5-12.2-11.8q0.3-1.6 0.8-3.1c7.5 2.7 15.3 4.6 22.5 8.2-0.3 0.3-0.9 1.3-0.7 1.8zm-37.7-20c1-1 3.1-1.4 4.6-2 0.7-0.3 2.1-1.3 2.8-1.3 1.1-0.2 3.1 1.2 4.4 1.8-1.2-0.4-3.3-0.3-3.9 1-1 2.2 2.4 4.4 4 5.1 4.2 1.6 6.9-2.2 3-4.8 3.1 1.4 6.3 2.5 9.5 3.6-1.6 0.4-3.1 1.3-4.5 2-2.8 1.3-3.4 2-6.1 0.5-1.5-0.9-13.8-6-13.8-5.9zm34.4 14.6c-5.7-2.3-11.7-3.9-17.6-6 3.7-1.6 8.2-5.1 11.9-3.6 2.3 0.9 7.3 2.2 8.9 4.3 1 1.4 0.7 5.2 1 7.2-1.4-0.7-2.8-1.3-4.2-1.9zm2.1-8.1c-2-1.2-4.2-2-6.3-2.8 2.1-0.4 5.6-2.4 7.7-2 2.2 0.4 4.8 3.5 6.9 4.5-1.6 0.3-3.1 1.4-4.6 1.6-1.9 0.3-2-0.3-3.7-1.3zm7.6 11.5q1.3-0.3 2.6-0.6c3.2-0.8 4.4-0.1 7.5 0.9-3.2 1.4-3.3 3.6-6.7 2.1-1.6-0.7-3.3-1.4-4.9-2.1 0.5-0.1 1-0.3 1.5-0.3zm9.5 3.1c0.7-0.4 1.6-0.8 2.3-1.2-0.7 3.5-0.6 0.3-2.3 1.2zm-58-33c-1.2-10.2 6.4-17.8 15.2-21.5-5.5 5.3-9.5 12.2-9.4 20.1 0.1 2 0.3 4 0.7 6 0.5 2.2 1.8 3.5-0.5 4.6-2.2 0.9-2.6-0.6-3.7-2.5q-1.8-3.1-2.3-6.7zm-1.7 27c1.6-4.6 3.3-9.2 4-14 3.5 1.9 7.3 3.4 11 5q1.6 0.6 3.2 1.3c1.5 0.6 1.8 0.6 2 2.1 0.1 0.4-0.3 2-0.5 2.4-0.7 1.6-0.2 1.1-1.8 1.6-1.5 0.4-3.4 0.2-5.1 0.6-4.6 1.3-9 2.9-13.8 3.7q0.5-1.3 1-2.7zm3.1 28.8c-6.4 4.8-16.5 3.3-19.2-4.8-1.4-4.5-0.6-10.5 2.5-14.1 8.7-10.2 22.7-1.4 21.5 10.4-0.5 3.4-2.1 6.4-4.8 8.5zm11.2-2.1q-0.4 0.1-0.9 0.3c1.1-1.4 2.4-4.4 1.9-6.2-0.7-2.3-1.1-1.3-1.6 0.4-0.5 1.9-0.5 3.9-2.1 5.5-1.7 1.8-4.8 2.1-7.1 2.9 8.7-7.2 5.6-22.4-5.2-25.6 2.5-0.2 4.6-1 7.1-0.3 1.9 0.5 2.6 1.9 4.2 2.7 3.8 2-0.9-3.3-2.8-4q3.3-0.7 6.5-1.5c-0.9 2.2 8.4 3.3 1.3-0.4 4.1-0.7 7.5-1.7 11.3 1.2 2.9 2.2 4.7 5.9 4.9 9.5 0.1 2.1-0.2 3.9-1 5.9-0.7 1.6-1.8 4.3-3.1 5.5-0.8 0.7-2.8 1-3.8 1.4 0.7-3.1-1.1-5-2-1.6-0.7 2.4-0.2 2.2-2.8 3q-2.4 0.7-4.8 1.3zm33 8c0-0.1-0.9 2.7-1.2 2.9-1.3 0.7-8.3-2.1-9.9-2.6-7-1.9-14.1-4-20.6-7.2 2.2-0.6 4.8-1.7 7.1-1.9 1.5-0.1 2.9 0.3 4.5 0.7 4 0.7 6 1.3 8.4-2.2 2.7-3.9 4.8-8.2 6.8-12.5 0.7-1.5 2.2-7.7 3.7-7.8 1.9-0.2 6.3 2.4 7.8 3.2 2.1 1 1.3 0.3 1.3 2.3 0 1.5-1 3.3-1.4 4.8-1.8 6.9-3.7 13.7-6.5 20.3zm11.4-16.4c-1.1 3.8-2.3 7.5-3.6 11.2-1.1 3-3.2 4.7-5.6 6.7 2.3-5.5 3.6-11.4 4.8-17.3q0.7-3.2 1.4-6.4c0.3-1.2 0.4-4.2 1.6-4.9 0.1 0 3.6 0.7 3.9 0.8q-1.1 5-2.5 9.9zm39.6 16.3c-8.9 3.4-16.6-4.6-21-11.3-2.4-3.7-4.5-7.5-7.3-10.8-1.4-1.7-3-3.4-4.9-4.5-0.3-0.3-1.7-0.7-1.9-1-0.5-1 0.9-2.6 0.5-3.7 8.5 0 13.3 11.9 17.1 17.8 4.8 7.4 12.9 14.5 22.2 10.4-1.5 1.3-3 2.3-4.7 3.1z"/>
				</g>
				<g id="&lt;Group&gt;">
					<path id="&lt;Path&gt;" class="s0" d=""/>
					<path id="&lt;Path&gt;" class="s0" d=""/>
					<path id="&lt;Path&gt;" class="s0" d=""/>
					<path id="&lt;Path&gt;" class="s0" d=""/>
					<path id="&lt;Path&gt;" class="s0" d=""/>
					<path id="&lt;Path&gt;" class="s0" d=""/>
					<path id="&lt;Path&gt;" class="s0" d=""/>
					<path id="&lt;Path&gt;" class="s0" d=""/>
					<path id="&lt;Path&gt;" class="s0" d=""/>
					<path id="&lt;Path&gt;" class="s0" d=""/>
					<path id="&lt;Path&gt;" class="s0" d=""/>
					<path id="&lt;Path&gt;" class="s0" d=""/>
					<path id="&lt;Path&gt;" class="s0" d=""/>
					<path id="&lt;Path&gt;" class="s0" d=""/>
				</g>
				<g id="&lt;Group&gt;">
					<path id="&lt;Path&gt;" class="s0" d=""/>
				</g>
			</g>
		</g>
	</g>
</svg>